<svg xmlns="http://www.w3.org/2000/svg" viewBox="0 0 121.57 8.71"><defs><style>.cls-1{fill:#2455a1;}</style></defs><g id="Layer_2" data-name="Layer 2"><g id="Layer_1-2" data-name="Layer 1"><path class="cls-1" d="M0,.13H3.13A4.42,4.42,0,0,1,6.36,1.25,4.16,4.16,0,0,1,7.51,4.37,4.16,4.16,0,0,1,6.36,7.49,4.42,4.42,0,0,1,3.13,8.61H0ZM3,7.35c2,0,2.92-1,2.92-3S5,1.4,3,1.4H1.55V7.35Z"/><path class="cls-1" d="M16.26,5.94h-4a1.86,1.86,0,0,0,.49,1.22,1.7,1.7,0,0,0,1.2.39,2.8,2.8,0,0,0,1.78-.62l.44,1a3,3,0,0,1-1,.54,3.86,3.86,0,0,1-1.25.21,3.11,3.11,0,0,1-2.28-.82,3,3,0,0,1-.83-2.24,3.46,3.46,0,0,1,.36-1.6,2.65,2.65,0,0,1,1-1.08,2.81,2.81,0,0,1,1.48-.38,2.46,2.46,0,0,1,1.92.78,3.09,3.09,0,0,1,.7,2.15ZM12.71,4a1.82,1.82,0,0,0-.45,1.11H15A1.8,1.8,0,0,0,14.62,4a1.21,1.21,0,0,0-.94-.38A1.27,1.27,0,0,0,12.71,4Z"/><path class="cls-1" d="M20.73,8.34a2.59,2.59,0,0,1-1-1.06,3.4,3.4,0,0,1-.36-1.6,3.4,3.4,0,0,1,.38-1.62A2.64,2.64,0,0,1,20.79,3a3.22,3.22,0,0,1,1.61-.38,3.89,3.89,0,0,1,1.22.19,2.74,2.74,0,0,1,1,.54l-.44,1.06a3.13,3.13,0,0,0-.78-.46,2.47,2.47,0,0,0-.83-.15,1.55,1.55,0,0,0-1.21.48,2,2,0,0,0-.44,1.4A2,2,0,0,0,21.32,7a1.52,1.52,0,0,0,1.21.49,2.26,2.26,0,0,0,.83-.16,2.81,2.81,0,0,0,.78-.45l.44,1a2.63,2.63,0,0,1-1,.55,4,4,0,0,1-1.25.2A3.42,3.42,0,0,1,20.73,8.34Z"/><path class="cls-1" d="M27.61,0h1.66V1.48H27.61Zm.08,8.61V2.73H29.2V8.61Z"/><path class="cls-1" d="M38.59.13V8.61H37.1V7.66a1.88,1.88,0,0,1-.76.77,2.29,2.29,0,0,1-1.14.28,2.43,2.43,0,0,1-1.36-.39,2.57,2.57,0,0,1-.92-1.08,3.78,3.78,0,0,1-.33-1.62A3.63,3.63,0,0,1,32.92,4,2.52,2.52,0,0,1,33.84,3a2.45,2.45,0,0,1,1.36-.37,2.33,2.33,0,0,1,1.13.26,1.89,1.89,0,0,1,.76.75V.13ZM36.71,7.05a2.23,2.23,0,0,0,.39-1.41,2.2,2.2,0,0,0-.39-1.4,1.35,1.35,0,0,0-1.1-.49,1.37,1.37,0,0,0-1.12.48,2.13,2.13,0,0,0-.4,1.39A2.22,2.22,0,0,0,34.49,7a1.49,1.49,0,0,0,2.22,0Z"/><path class="cls-1" d="M47.47,5.94h-4A1.81,1.81,0,0,0,44,7.16a1.7,1.7,0,0,0,1.2.39,2.82,2.82,0,0,0,1.78-.62l.43,1a2.87,2.87,0,0,1-1,.54,3.8,3.8,0,0,1-1.24.21,3.11,3.11,0,0,1-2.28-.82A3,3,0,0,1,42,5.65a3.46,3.46,0,0,1,.36-1.6,2.65,2.65,0,0,1,1-1.08,2.85,2.85,0,0,1,1.49-.38,2.42,2.42,0,0,1,1.91.78,3.1,3.1,0,0,1,.71,2.15ZM43.91,4a2,2,0,0,0-.45,1.11h2.72A1.69,1.69,0,0,0,45.82,4a1.2,1.2,0,0,0-.94-.38A1.28,1.28,0,0,0,43.91,4Z"/><path class="cls-1" d="M55.94.13h3.13A4.41,4.41,0,0,1,62.3,1.25a4.12,4.12,0,0,1,1.15,3.12A4.12,4.12,0,0,1,62.3,7.49a4.41,4.41,0,0,1-3.23,1.12H55.94Zm3,7.22c1.94,0,2.92-1,2.92-3s-1-3-2.92-3H57.5V7.35Z"/><path class="cls-1" d="M67,0h1.66V1.48H67Zm.09,8.61V2.73h1.5V8.61Z"/><path class="cls-1" d="M74.18,2.73h1.55V3.86H74.18V8.61h-1.5V3.86H71.55V2.73h1.13a2.57,2.57,0,0,1,.65-1.9,3.12,3.12,0,0,1,2-.71l.59,0,.1,1.12-.57,0a1.55,1.55,0,0,0-1,.32,1.18,1.18,0,0,0-.3.9Z"/><path class="cls-1" d="M80.55,2.73H82.1V3.86H80.55V8.61H79V3.86H77.91V2.73H79A2.54,2.54,0,0,1,79.7.83a3.1,3.1,0,0,1,2-.71l.59,0,.09,1.12-.56,0a1.53,1.53,0,0,0-1,.32,1.18,1.18,0,0,0-.3.9Z"/><path class="cls-1" d="M90.21,5.94h-4a1.86,1.86,0,0,0,.49,1.22,1.71,1.71,0,0,0,1.21.39,2.82,2.82,0,0,0,1.78-.62l.43,1a3,3,0,0,1-1,.54,3.84,3.84,0,0,1-1.24.21,3.08,3.08,0,0,1-2.28-.82,3,3,0,0,1-.84-2.24,3.46,3.46,0,0,1,.36-1.6A2.65,2.65,0,0,1,86.1,3a2.81,2.81,0,0,1,1.48-.38,2.46,2.46,0,0,1,1.92.78,3.1,3.1,0,0,1,.71,2.15ZM86.65,4a2,2,0,0,0-.45,1.11h2.72A1.8,1.8,0,0,0,88.56,4a1.21,1.21,0,0,0-.94-.38A1.28,1.28,0,0,0,86.65,4Z"/><path class="cls-1" d="M97.47,3.84l-.88.08c-1,.11-1.49.61-1.49,1.52V8.61H93.6V2.73H95v1a2,2,0,0,1,1.89-1.16l.46,0Z"/><path class="cls-1" d="M105.41,5.94h-4a1.86,1.86,0,0,0,.5,1.22,1.7,1.7,0,0,0,1.2.39,2.82,2.82,0,0,0,1.78-.62l.43,1a2.91,2.91,0,0,1-1,.54,3.9,3.9,0,0,1-1.25.21,3.11,3.11,0,0,1-2.28-.82,3,3,0,0,1-.83-2.24,3.46,3.46,0,0,1,.36-1.6,2.7,2.7,0,0,1,1-1.08,2.85,2.85,0,0,1,1.49-.38,2.46,2.46,0,0,1,1.92.78,3.09,3.09,0,0,1,.7,2.15ZM101.86,4a1.89,1.89,0,0,0-.46,1.11h2.72A1.69,1.69,0,0,0,103.76,4a1.18,1.18,0,0,0-.94-.38A1.24,1.24,0,0,0,101.86,4Z"/><path class="cls-1" d="M113.8,3.19A2.73,2.73,0,0,1,114.31,5V8.61h-1.5V5.09a1.58,1.58,0,0,0-.26-1,1,1,0,0,0-.81-.31,1.35,1.35,0,0,0-1,.41,1.5,1.5,0,0,0-.39,1.09V8.61H108.8V2.73h1.47v.88a2,2,0,0,1,.81-.76,2.34,2.34,0,0,1,1.14-.26A2,2,0,0,1,113.8,3.19Z"/><path class="cls-1" d="M121.57,7.54l-.08,1.12a5.29,5.29,0,0,1-.66,0A2.57,2.57,0,0,1,119,8.13a2.3,2.3,0,0,1-.58-1.71V3.86h-1.14V2.73h1.14V1h1.5V2.73h1.55V3.86h-1.55V6.4c0,.79.36,1.18,1.09,1.18A3.69,3.69,0,0,0,121.57,7.54Z"/></g></g></svg>