<svg xmlns="http://www.w3.org/2000/svg" xmlns:xlink="http://www.w3.org/1999/xlink" viewBox="0 0 122.27 29.41"><defs><style>.cls-1{fill:none;}.cls-2{fill:#fff;}.cls-3{clip-path:url(#clip-path);}.cls-4{fill:url(#linear-gradient);}.cls-5{clip-path:url(#clip-path-2);}.cls-6{clip-path:url(#clip-path-3);}.cls-7{fill:url(#linear-gradient-2);}.cls-8{clip-path:url(#clip-path-4);}.cls-9{clip-path:url(#clip-path-5);}.cls-10{fill:url(#linear-gradient-3);}.cls-11{clip-path:url(#clip-path-6);}.cls-12{clip-path:url(#clip-path-7);}.cls-13{fill:url(#linear-gradient-4);}.cls-14{fill:url(#linear-gradient-5);}.cls-15{clip-path:url(#clip-path-9);}.cls-16{fill:url(#linear-gradient-6);}.cls-17{fill:url(#linear-gradient-7);}.cls-18{clip-path:url(#clip-path-11);}.cls-19{fill:url(#linear-gradient-8);}.cls-20{fill:url(#linear-gradient-9);}.cls-21{clip-path:url(#clip-path-13);}.cls-22{fill:url(#linear-gradient-10);}.cls-23{clip-path:url(#clip-path-14);}.cls-24{clip-path:url(#clip-path-15);}.cls-25{fill:url(#linear-gradient-11);}.cls-26{clip-path:url(#clip-path-16);}</style><clipPath id="clip-path"><path class="cls-1" d="M7.9,7.8H18.59a3,3,0,0,1,3,3v7.69a3,3,0,0,1-3,2.95H7.9ZM0,0V29.2H20.23A8,8,0,0,0,26,27.07a9.48,9.48,0,0,0,3.51-7.37V9.5A9.46,9.46,0,0,0,26,2.15,8,8,0,0,0,20.23,0Z"/></clipPath><linearGradient id="linear-gradient" x1="-401.93" y1="104.59" x2="-400.93" y2="104.59" gradientTransform="matrix(29.52, 0, 0, -29.52, 11866.22, 3102.36)" gradientUnits="userSpaceOnUse"><stop offset="0" stop-color="#2b387d"/><stop offset="0.11" stop-color="#214a8f"/><stop offset="0.3" stop-color="#1562a6"/><stop offset="0.51" stop-color="#0c73b7"/><stop offset="0.73" stop-color="#077dc1"/><stop offset="1" stop-color="#0580c4"/></linearGradient><clipPath id="clip-path-2"><path class="cls-2" d="M7.9,7.8H18.59a3,3,0,0,1,3,3v7.69a3,3,0,0,1-3,2.95H7.9ZM0,0V29.2H20.23A8,8,0,0,0,26,27.07a9.48,9.48,0,0,0,3.51-7.37V9.5A9.46,9.46,0,0,0,26,2.15,8,8,0,0,0,20.23,0Z"/></clipPath><clipPath id="clip-path-3"><path class="cls-1" d="M48.82,7.86H59.51a3,3,0,0,1,3,3V18.5a3,3,0,0,1-3,2.95H48.82ZM40.91.05V29.26H61.14a7.93,7.93,0,0,0,5.79-2.14,9.47,9.47,0,0,0,3.51-7.37V9.55A9.49,9.49,0,0,0,67,2.2,8,8,0,0,0,61.14.05Z"/></clipPath><linearGradient id="linear-gradient-2" x1="-401.93" y1="104.59" x2="-400.93" y2="104.59" gradientTransform="matrix(29.52, 0, 0, -29.52, 11907.14, 3102.42)" xlink:href="#linear-gradient"/><clipPath id="clip-path-4"><path class="cls-2" d="M48.82,7.86H59.51a3,3,0,0,1,3,3V18.5a3,3,0,0,1-3,2.95H48.82ZM40.91.05V29.26H61.14a7.93,7.93,0,0,0,5.79-2.14,9.47,9.47,0,0,0,3.51-7.37V9.55A9.49,9.49,0,0,0,67,2.2,8,8,0,0,0,61.14.05Z"/></clipPath><clipPath id="clip-path-5"><rect class="cls-1" x="31.23" y="0.02" width="7.98" height="29.28"/></clipPath><linearGradient id="linear-gradient-3" x1="-374.48" y1="105.29" x2="-373.48" y2="105.29" gradientTransform="matrix(7.98, 0, 0, -7.98, 3018.34, 854.5)" xlink:href="#linear-gradient"/><clipPath id="clip-path-6"><rect class="cls-2" x="31.23" y="0.02" width="7.98" height="29.28"/></clipPath><clipPath id="clip-path-7"><path class="cls-1" d="M72.63,1.85a.45.45,0,0,0-.49.41V8a.45.45,0,0,0,.49.4H91.24a.45.45,0,0,0,.49-.4V2.26a.45.45,0,0,0-.49-.41Z"/></clipPath><linearGradient id="linear-gradient-4" x1="-396.78" y1="104.72" x2="-395.78" y2="104.72" gradientTransform="matrix(19.59, 0, 0, -19.59, 7843.76, 2056.28)" gradientUnits="userSpaceOnUse"><stop offset="0" stop-color="#f9a92e"/><stop offset="0.22" stop-color="#f5a62e"/><stop offset="0.45" stop-color="#e99e2d"/><stop offset="0.67" stop-color="#d5912c"/><stop offset="0.9" stop-color="#b97e2b"/><stop offset="1" stop-color="#a9742a"/></linearGradient><linearGradient id="linear-gradient-5" x1="-396.78" y1="104.72" x2="-395.78" y2="104.72" gradientTransform="matrix(19.59, 0, 0, -19.59, 7843.77, 2056.28)" xlink:href="#linear-gradient-4"/><clipPath id="clip-path-9"><path class="cls-1" d="M74.34,11.27a.45.45,0,0,0-.49.4v5.78a.45.45,0,0,0,.49.4H93a.45.45,0,0,0,.49-.4V11.67a.45.45,0,0,0-.49-.4Z"/></clipPath><linearGradient id="linear-gradient-6" x1="-396.78" y1="104.72" x2="-395.78" y2="104.72" gradientTransform="matrix(19.59, 0, 0, -19.59, 7845.47, 2065.69)" xlink:href="#linear-gradient-4"/><linearGradient id="linear-gradient-7" x1="-396.78" y1="104.72" x2="-395.78" y2="104.72" gradientTransform="matrix(19.59, 0, 0, -19.59, 7845.47, 2065.7)" xlink:href="#linear-gradient-4"/><clipPath id="clip-path-11"><path class="cls-1" d="M72.63,21a.45.45,0,0,0-.49.41v5.78a.45.45,0,0,0,.49.4H91.24a.45.45,0,0,0,.49-.4V21.37a.45.45,0,0,0-.49-.41Z"/></clipPath><linearGradient id="linear-gradient-8" x1="-396.78" y1="104.72" x2="-395.78" y2="104.72" gradientTransform="matrix(19.59, 0, 0, -19.59, 7843.76, 2075.39)" xlink:href="#linear-gradient-4"/><linearGradient id="linear-gradient-9" x1="-396.78" y1="104.72" x2="-395.78" y2="104.72" gradientTransform="matrix(19.59, 0, 0, -19.59, 7843.77, 2075.39)" xlink:href="#linear-gradient-4"/><clipPath id="clip-path-13"><polygon class="cls-1" points="93.36 0.15 112.36 29.41 121.87 29.41 102.87 0.15 93.36 0.15"/></clipPath><linearGradient id="linear-gradient-10" x1="-401.57" y1="104.6" x2="-400.57" y2="104.6" gradientTransform="matrix(28.51, 0, 0, -28.51, 11543.48, 2997.2)" gradientUnits="userSpaceOnUse"><stop offset="0" stop-color="#273274"/><stop offset="0.42" stop-color="#165a9d"/><stop offset="0.79" stop-color="#0a76b9"/><stop offset="1" stop-color="#0580c4"/></linearGradient><clipPath id="clip-path-14"><polygon class="cls-2" points="93.36 0.15 112.36 29.41 121.87 29.41 102.87 0.15 93.36 0.15"/></clipPath><clipPath id="clip-path-15"><polygon class="cls-1" points="112.76 0.04 93.7 29.4 103.2 29.41 122.27 0.04 112.76 0.04"/></clipPath><linearGradient id="linear-gradient-11" x1="-401.6" y1="104.6" x2="-400.6" y2="104.6" gradientTransform="matrix(28.57, 0, 0, -28.57, 11569.09, 3003.54)" gradientUnits="userSpaceOnUse"><stop offset="0" stop-color="#273274"/><stop offset="0.11" stop-color="#204285"/><stop offset="0.33" stop-color="#145da0"/><stop offset="0.55" stop-color="#0c71b4"/><stop offset="0.77" stop-color="#077cc0"/><stop offset="1" stop-color="#0580c4"/></linearGradient><clipPath id="clip-path-16"><polygon class="cls-2" points="112.76 0.04 103.31 14.6 93.7 29.4 103.2 29.41 122.27 0.04 112.76 0.04"/></clipPath></defs><title>Asset 7</title><g id="Layer_2" data-name="Layer 2"><g id="Layer_1-2" data-name="Layer 1"><g class="cls-3"><rect class="cls-4" width="29.52" height="29.2"/></g><path class="cls-2" d="M7.9,7.8H18.59a3,3,0,0,1,3,3v7.69a3,3,0,0,1-3,2.95H7.9ZM0,0V29.2H20.23A8,8,0,0,0,26,27.07a9.48,9.48,0,0,0,3.51-7.37V9.5A9.46,9.46,0,0,0,26,2.15,8,8,0,0,0,20.23,0Z"/><g class="cls-5"><rect class="cls-2" width="29.52" height="29.2"/></g><g class="cls-6"><rect class="cls-7" x="40.91" y="0.05" width="29.52" height="29.2"/></g><path class="cls-2" d="M48.82,7.86H59.51a3,3,0,0,1,3,3V18.5a3,3,0,0,1-3,2.95H48.82ZM40.91.05V29.26H61.14a7.93,7.93,0,0,0,5.79-2.14,9.47,9.47,0,0,0,3.51-7.37V9.55A9.49,9.49,0,0,0,67,2.2,8,8,0,0,0,61.14.05Z"/><g class="cls-8"><rect class="cls-2" x="40.91" y="0.05" width="29.52" height="29.2"/></g><g class="cls-9"><rect class="cls-10" x="31.23" y="0.02" width="7.98" height="29.28"/></g><rect class="cls-2" x="31.23" y="0.02" width="7.98" height="29.28"/><g class="cls-11"><rect class="cls-2" x="31.23" y="0.02" width="7.98" height="29.28"/></g><g class="cls-12"><rect class="cls-13" x="72.14" y="1.85" width="19.59" height="6.59"/></g><g class="cls-12"><rect class="cls-14" x="72.14" y="1.85" width="19.59" height="6.59"/></g><g class="cls-15"><rect class="cls-16" x="73.85" y="11.27" width="19.59" height="6.59"/></g><g class="cls-15"><rect class="cls-17" x="73.85" y="11.27" width="19.59" height="6.59"/></g><g class="cls-18"><rect class="cls-19" x="72.14" y="20.96" width="19.59" height="6.59"/></g><g class="cls-18"><rect class="cls-20" x="72.14" y="20.96" width="19.59" height="6.59"/></g><g class="cls-21"><rect class="cls-22" x="93.36" y="0.15" width="28.51" height="29.26"/></g><polygon class="cls-2" points="93.36 0.15 112.36 29.41 121.87 29.41 102.87 0.15 93.36 0.15"/><g class="cls-23"><rect class="cls-2" x="93.36" y="0.15" width="28.51" height="29.26"/></g><g class="cls-24"><rect class="cls-25" x="93.7" y="0.04" width="28.57" height="29.36"/></g><polygon class="cls-2" points="112.76 0.04 103.31 14.6 93.7 29.4 103.2 29.41 122.27 0.04 112.76 0.04"/><g class="cls-26"><rect class="cls-2" x="93.7" y="0.04" width="28.57" height="29.36"/></g></g></g></svg>