<svg xmlns="http://www.w3.org/2000/svg" xmlns:xlink="http://www.w3.org/1999/xlink" viewBox="0 0 73.65 50.33"><defs><style>.cls-1{fill:none;}.cls-2{fill:#fff;}.cls-3{clip-path:url(#clip-path);}.cls-4{fill:url(#linear-gradient);}.cls-5{clip-path:url(#clip-path-2);}.cls-6{clip-path:url(#clip-path-3);}.cls-7{fill:url(#linear-gradient-2);}</style><clipPath id="clip-path" transform="translate(0)"><path class="cls-1" d="M6.06,21.42,0,27.48l19,19A10.55,10.55,0,0,0,26.49,50a12.6,12.6,0,0,0,9.89-3.32l-6.32-6.3a4.71,4.71,0,0,1-5.77-.68L12.21,27.57,27.57,12.21,39.65,24.29a4.72,4.72,0,0,1,0,6.67l-2.41,2.41,6.26,6.18,2.82-2.83A12.61,12.61,0,0,0,50,26.53,10.59,10.59,0,0,0,46.52,19l-19-19Z"/></clipPath><linearGradient id="linear-gradient" x1="-33.71" y1="-63.8" x2="-32.71" y2="-63.8" gradientTransform="matrix(49.73, 0, 0, -49.73, 1676.04, -3147.37)" gradientUnits="userSpaceOnUse"><stop offset="0" stop-color="#2b387d"/><stop offset="0.11" stop-color="#214a8f"/><stop offset="0.3" stop-color="#1562a6"/><stop offset="0.51" stop-color="#0c73b7"/><stop offset="0.73" stop-color="#077dc1"/><stop offset="1" stop-color="#0580c4"/></linearGradient><clipPath id="clip-path-2" transform="translate(0)"><path class="cls-2" d="M6.06,21.42,0,27.48l19,19A10.55,10.55,0,0,0,26.49,50a12.6,12.6,0,0,0,9.89-3.32l-6.32-6.3a4.71,4.71,0,0,1-5.77-.68L12.21,27.57,27.57,12.21,39.65,24.29a4.72,4.72,0,0,1,0,6.67l-2.41,2.41,6.26,6.18,2.82-2.83A12.61,12.61,0,0,0,50,26.53,10.59,10.59,0,0,0,46.52,19l-19-19Z"/></clipPath><clipPath id="clip-path-3" transform="translate(0)"><path class="cls-1" d="M37.29,8.87l6.11,6,2.68-2.68L61.43,27.57,49.36,39.65a4.72,4.72,0,0,1-6.67,0L34,31a4.72,4.72,0,0,1,0-6.67l2.36-2.36-6.08-6L27.13,19a10.61,10.61,0,0,0-3.45,7.49,12.64,12.64,0,0,0,3.64,10.19l9.6,9.6A12.6,12.6,0,0,0,47.16,50a10.55,10.55,0,0,0,7.45-3.43l19-19-6.07-6.06L46.17,0Z"/></clipPath><linearGradient id="linear-gradient-2" x1="-33.71" y1="-57.08" x2="-32.71" y2="-57.08" gradientTransform="translate(1709.73 2880.69) scale(50.02)" gradientUnits="userSpaceOnUse"><stop offset="0" stop-color="#f9a92e"/><stop offset="0.22" stop-color="#f5a62e"/><stop offset="0.45" stop-color="#e99e2d"/><stop offset="0.67" stop-color="#d5912c"/><stop offset="0.9" stop-color="#b97e2b"/><stop offset="1" stop-color="#a9742a"/></linearGradient></defs><title>Asset 3</title><g id="Layer_2" data-name="Layer 2"><g id="Layer_1-2" data-name="Layer 1"><g class="cls-3"><rect class="cls-4" width="50.32" height="50.31"/></g><path class="cls-2" d="M6.06,21.42,0,27.48l19,19A10.55,10.55,0,0,0,26.49,50a12.6,12.6,0,0,0,9.89-3.32l-6.32-6.3a4.71,4.71,0,0,1-5.77-.68L12.21,27.57,27.57,12.21,39.65,24.29a4.72,4.72,0,0,1,0,6.67l-2.41,2.41,6.26,6.18,2.82-2.83A12.61,12.61,0,0,0,50,26.53,10.59,10.59,0,0,0,46.52,19l-19-19Z" transform="translate(0)"/><g class="cls-5"><rect class="cls-2" width="50.32" height="50.31"/></g><g class="cls-6"><rect class="cls-7" x="23.32" width="50.32" height="50.33"/></g></g></g></svg>