<svg xmlns="http://www.w3.org/2000/svg" width="1185.031" height="662.079" viewBox="0 0 1185.031 662.079">
  <g id="Group_2300" data-name="Group 2300" transform="translate(1185.031 0) rotate(90)">
    <path id="Path_3079" data-name="Path 3079" d="M0,0" transform="translate(560.284 1174.946)" fill="#f5aa28"/>
    <path id="Path_3080" data-name="Path 3080" d="M93.047,55.631a1.341,1.341,0,0,1-.669-.179L.67,2.5A1.34,1.34,0,0,1,2.011.182l91.708,52.95a1.339,1.339,0,0,1-.672,2.5Z" transform="translate(467.256 1120.656)" fill="#f5aa28"/>
    <path id="Path_3081" data-name="Path 3081" d="M15.126,1.351A10.082,10.082,0,1,1,1.353,5.041,10.087,10.087,0,0,1,15.126,1.351Z" transform="translate(550.221 1164.864)" fill="#f5aa28"/>
    <path id="Path_3082" data-name="Path 3082" d="M15.125,1.351a10.084,10.084,0,1,0,3.69,13.773A10.084,10.084,0,0,0,15.125,1.351Z" transform="translate(458.511 1111.915)" fill="#f5aa28"/>
    <path id="Path_3083" data-name="Path 3083" d="M1.343,55.631a1.339,1.339,0,0,1-.672-2.5L92.382.182A1.34,1.34,0,0,1,93.722,2.5L2.011,55.452A1.341,1.341,0,0,1,1.343,55.631Z" transform="translate(375.544 1120.656)" fill="#f5aa28"/>
    <path id="Path_3084" data-name="Path 3084" d="M5.042,1.351a10.084,10.084,0,1,1-3.69,13.773A10.084,10.084,0,0,1,5.042,1.351Z" transform="translate(458.511 1111.915)" fill="#f5aa28"/>
    <path id="Path_3085" data-name="Path 3085" d="M5.044,1.351a10.081,10.081,0,1,0,13.769,3.69A10.085,10.085,0,0,0,5.044,1.351Z" transform="translate(366.801 1164.864)" fill="#f5aa28"/>
    <path id="Path_3086" data-name="Path 3086" d="M0,0" transform="translate(376.905 1174.946)" fill="#f5aa28"/>
    <path id="Path_3087" data-name="Path 3087" d="M0,0" transform="translate(560.284 963.152)" fill="#f5aa28"/>
    <path id="Path_3088" data-name="Path 3088" d="M1.343,55.629a1.341,1.341,0,0,1-.672-2.5L92.382.181A1.34,1.34,0,1,1,93.722,2.5L2.011,55.451A1.341,1.341,0,0,1,1.343,55.629Z" transform="translate(467.234 961.813)" fill="#f5aa28"/>
    <path id="Path_3089" data-name="Path 3089" d="M5.041,1.351a10.082,10.082,0,1,1-3.69,13.773A10.084,10.084,0,0,1,5.041,1.351Z" transform="translate(550.202 953.07)" fill="#f5aa28"/>
    <path id="Path_3090" data-name="Path 3090" d="M5.044,1.351a10.081,10.081,0,1,0,13.769,3.69A10.085,10.085,0,0,0,5.044,1.351Z" transform="translate(458.491 1006.019)" fill="#f5aa28"/>
    <path id="Path_3091" data-name="Path 3091" d="M1.344,108.577A1.341,1.341,0,0,1,0,107.236L0,1.341a1.341,1.341,0,1,1,2.682,0l0,105.9A1.341,1.341,0,0,1,1.344,108.577Z" transform="translate(467.232 1014.761)" fill="#f5aa28"/>
    <path id="Path_3092" data-name="Path 3092" d="M0,10.083A10.081,10.081,0,1,1,10.083,20.166,10.082,10.082,0,0,1,0,10.083Z" transform="translate(458.494 1006.019)" fill="#f5aa28"/>
    <path id="Path_3093" data-name="Path 3093" d="M0,10.083A10.083,10.083,0,1,0,10.083,0,10.082,10.082,0,0,0,0,10.083Z" transform="translate(458.494 1111.918)" fill="#f5aa28"/>
    <path id="Path_3094" data-name="Path 3094" d="M93.029,55.631a1.331,1.331,0,0,1-.669-.179L.67,2.5A1.34,1.34,0,0,1,2.011.182L93.7,53.132a1.339,1.339,0,0,1-.672,2.5Z" transform="translate(467.256 1120.656)" fill="#f5aa28"/>
    <path id="Path_3095" data-name="Path 3095" d="M5.043,18.813a10.081,10.081,0,1,1,13.773-3.686A10.08,10.08,0,0,1,5.043,18.813Z" transform="translate(458.51 1111.916)" fill="#f5aa28"/>
    <path id="Path_3096" data-name="Path 3096" d="M5.041,18.814A10.082,10.082,0,1,0,1.351,5.041,10.081,10.081,0,0,0,5.041,18.814Z" transform="translate(550.202 1164.864)" fill="#f5aa28"/>
    <path id="Path_3097" data-name="Path 3097" d="M0,0" transform="translate(560.284 1174.946)" fill="#f5aa28"/>
    <path id="Path_3098" data-name="Path 3098" d="M1.341,108.577A1.341,1.341,0,0,1,0,107.236V1.341a1.341,1.341,0,1,1,2.682,0v105.9A1.341,1.341,0,0,1,1.341,108.577Z" transform="translate(467.254 1014.761)" fill="#f5aa28"/>
    <path id="Path_3099" data-name="Path 3099" d="M0,10.083A10.083,10.083,0,1,1,10.083,20.166,10.085,10.085,0,0,1,0,10.083Z" transform="translate(458.512 1006.019)" fill="#f5aa28"/>
    <path id="Path_3100" data-name="Path 3100" d="M0,10.079A10.083,10.083,0,1,0,10.083,0,10.083,10.083,0,0,0,0,10.079Z" transform="translate(458.512 1111.918)" fill="#f5aa28"/>
    <path id="Path_3101" data-name="Path 3101" d="M93.05,55.629a1.331,1.331,0,0,1-.669-.179L.67,2.5A1.34,1.34,0,1,1,2.011.181L93.722,53.126a1.341,1.341,0,0,1-.672,2.5Z" transform="translate(375.544 961.813)" fill="#f5aa28"/>
    <path id="Path_3102" data-name="Path 3102" d="M15.125,1.351A10.082,10.082,0,1,1,1.353,5.041,10.084,10.084,0,0,1,15.125,1.351Z" transform="translate(458.511 1006.019)" fill="#f5aa28"/>
    <path id="Path_3103" data-name="Path 3103" d="M15.124,1.351a10.081,10.081,0,1,0,3.69,13.773A10.085,10.085,0,0,0,15.124,1.351Z" transform="translate(366.801 953.07)" fill="#f5aa28"/>
    <path id="Path_3104" data-name="Path 3104" d="M0,0" transform="translate(376.883 963.152)" fill="#f5aa28"/>
    <path id="Path_3105" data-name="Path 3105" d="M0,0" transform="translate(376.883 1174.946)" fill="#f5aa28"/>
    <path id="Path_3106" data-name="Path 3106" d="M1.343,55.631a1.339,1.339,0,0,1-.672-2.5L92.382.182A1.34,1.34,0,0,1,93.722,2.5L2.011,55.452A1.341,1.341,0,0,1,1.343,55.631Z" transform="translate(375.544 1120.656)" fill="#f5aa28"/>
    <path id="Path_3107" data-name="Path 3107" d="M15.124,18.814a10.081,10.081,0,1,1,3.69-13.773A10.081,10.081,0,0,1,15.124,18.814Z" transform="translate(366.801 1164.864)" fill="#f5aa28"/>
    <path id="Path_3108" data-name="Path 3108" d="M15.125,18.817A10.084,10.084,0,1,0,1.353,15.124,10.084,10.084,0,0,0,15.125,18.817Z" transform="translate(458.511 1111.915)" fill="#f5aa28"/>
    <path id="Path_3109" data-name="Path 3109" d="M0,0" transform="translate(651.996 804.307)" fill="#f5aa28"/>
    <path id="Path_3110" data-name="Path 3110" d="M1.343,55.629a1.342,1.342,0,0,1-.672-2.5L92.378.181A1.34,1.34,0,1,1,93.719,2.5L2.011,55.45A1.34,1.34,0,0,1,1.343,55.629Z" transform="translate(558.945 802.969)" fill="#f5aa28"/>
    <path id="Path_3111" data-name="Path 3111" d="M5.043,1.351a10.082,10.082,0,1,1-3.69,13.773A10.088,10.088,0,0,1,5.043,1.351Z" transform="translate(641.911 794.225)" fill="#f5aa28"/>
    <path id="Path_3112" data-name="Path 3112" d="M5.041,1.351a10.082,10.082,0,1,0,13.773,3.69A10.087,10.087,0,0,0,5.041,1.351Z" transform="translate(550.202 847.175)" fill="#f5aa28"/>
    <path id="Path_3113" data-name="Path 3113" d="M1.344,108.581A1.341,1.341,0,0,1,0,107.24L0,1.341a1.341,1.341,0,1,1,2.682,0l0,105.9A1.341,1.341,0,0,1,1.344,108.581Z" transform="translate(558.944 855.916)" fill="#f5aa28"/>
    <path id="Path_3114" data-name="Path 3114" d="M0,10.083A10.083,10.083,0,1,1,10.083,20.166,10.085,10.085,0,0,1,0,10.083Z" transform="translate(550.202 847.174)" fill="#f5aa28"/>
    <path id="Path_3115" data-name="Path 3115" d="M0,10.079A10.081,10.081,0,1,0,10.079,0,10.08,10.08,0,0,0,0,10.079Z" transform="translate(550.205 953.073)" fill="#f5aa28"/>
    <path id="Path_3116" data-name="Path 3116" d="M0,0" transform="translate(560.306 963.152)" fill="#f5aa28"/>
    <path id="Path_3117" data-name="Path 3117" d="M1.341,108.581A1.341,1.341,0,0,1,0,107.24V1.341a1.341,1.341,0,1,1,2.682,0v105.9A1.341,1.341,0,0,1,1.341,108.581Z" transform="translate(558.965 855.916)" fill="#f5aa28"/>
    <path id="Path_3118" data-name="Path 3118" d="M0,10.083A10.081,10.081,0,1,1,10.083,20.166,10.083,10.083,0,0,1,0,10.083Z" transform="translate(550.223 847.174)" fill="#f5aa28"/>
    <path id="Path_3119" data-name="Path 3119" d="M0,10.079A10.081,10.081,0,1,0,10.083,0,10.08,10.08,0,0,0,0,10.079Z" transform="translate(550.223 953.073)" fill="#f5aa28"/>
    <path id="Path_3120" data-name="Path 3120" d="M93.047,55.629a1.341,1.341,0,0,1-.669-.179L.67,2.5A1.34,1.34,0,0,1,2.011.181L93.719,53.126a1.342,1.342,0,0,1-.672,2.5Z" transform="translate(467.256 802.969)" fill="#f5aa28"/>
    <path id="Path_3121" data-name="Path 3121" d="M15.126,1.351A10.082,10.082,0,1,1,1.353,5.041,10.087,10.087,0,0,1,15.126,1.351Z" transform="translate(550.221 847.175)" fill="#f5aa28"/>
    <path id="Path_3122" data-name="Path 3122" d="M15.125,1.351a10.082,10.082,0,1,0,3.69,13.773A10.087,10.087,0,0,0,15.125,1.351Z" transform="translate(458.511 794.225)" fill="#f5aa28"/>
    <path id="Path_3123" data-name="Path 3123" d="M1.343,55.629a1.342,1.342,0,0,1-.672-2.5L92.382.181A1.34,1.34,0,1,1,93.722,2.5L2.011,55.45A1.341,1.341,0,0,1,1.343,55.629Z" transform="translate(375.544 802.969)" fill="#f5aa28"/>
    <path id="Path_3124" data-name="Path 3124" d="M5.042,1.351a10.082,10.082,0,1,1-3.69,13.773A10.086,10.086,0,0,1,5.042,1.351Z" transform="translate(458.511 794.225)" fill="#f5aa28"/>
    <path id="Path_3125" data-name="Path 3125" d="M5.044,1.351a10.081,10.081,0,1,0,13.769,3.69A10.085,10.085,0,0,0,5.044,1.351Z" transform="translate(366.801 847.175)" fill="#f5aa28"/>
    <path id="Path_3126" data-name="Path 3126" d="M1.344,108.581A1.341,1.341,0,0,1,0,107.24L0,1.341a1.341,1.341,0,1,1,2.682,0l0,105.9A1.341,1.341,0,0,1,1.344,108.581Z" transform="translate(375.543 855.916)" fill="#f5aa28"/>
    <path id="Path_3127" data-name="Path 3127" d="M0,10.083A10.081,10.081,0,1,1,10.079,20.166,10.08,10.08,0,0,1,0,10.083Z" transform="translate(366.804 847.174)" fill="#f5aa28"/>
    <path id="Path_3128" data-name="Path 3128" d="M0,10.079A10.083,10.083,0,1,0,10.083,0,10.083,10.083,0,0,0,0,10.079Z" transform="translate(366.804 953.073)" fill="#f5aa28"/>
    <path id="Path_3129" data-name="Path 3129" d="M93.032,55.629a1.331,1.331,0,0,1-.669-.179L.67,2.5A1.34,1.34,0,1,1,2.011.181L93.7,53.126a1.341,1.341,0,0,1-.672,2.5Z" transform="translate(375.562 961.813)" fill="#f5aa28"/>
    <path id="Path_3130" data-name="Path 3130" d="M5.043,18.813a10.081,10.081,0,1,1,13.773-3.686A10.079,10.079,0,0,1,5.043,18.813Z" transform="translate(366.82 953.071)" fill="#f5aa28"/>
    <path id="Path_3131" data-name="Path 3131" d="M5.043,18.814A10.082,10.082,0,1,0,1.353,5.041,10.081,10.081,0,0,0,5.043,18.814Z" transform="translate(458.51 1006.019)" fill="#f5aa28"/>
    <path id="Path_3132" data-name="Path 3132" d="M1.343,55.629a1.341,1.341,0,0,1-.672-2.5L92.378.181A1.34,1.34,0,1,1,93.719,2.5L2.011,55.451A1.34,1.34,0,0,1,1.343,55.629Z" transform="translate(467.256 961.813)" fill="#f5aa28"/>
    <path id="Path_3133" data-name="Path 3133" d="M15.125,18.814a10.082,10.082,0,1,1,3.69-13.773A10.08,10.08,0,0,1,15.125,18.814Z" transform="translate(458.511 1006.019)" fill="#f5aa28"/>
    <path id="Path_3134" data-name="Path 3134" d="M15.126,18.813a10.082,10.082,0,1,0-13.773-3.69A10.082,10.082,0,0,0,15.126,18.813Z" transform="translate(550.221 953.07)" fill="#f5aa28"/>
    <path id="Path_3135" data-name="Path 3135" d="M1.341,108.581A1.341,1.341,0,0,1,0,107.24V1.341a1.341,1.341,0,1,1,2.682,0v105.9A1.341,1.341,0,0,1,1.341,108.581Z" transform="translate(375.564 855.916)" fill="#f5aa28"/>
    <path id="Path_3136" data-name="Path 3136" d="M0,10.083A10.083,10.083,0,1,1,10.083,20.166,10.085,10.085,0,0,1,0,10.083Z" transform="translate(366.822 847.174)" fill="#f5aa28"/>
    <path id="Path_3137" data-name="Path 3137" d="M0,10.079A10.083,10.083,0,1,0,10.083,0,10.083,10.083,0,0,0,0,10.079Z" transform="translate(366.822 953.073)" fill="#f5aa28"/>
    <path id="Path_3138" data-name="Path 3138" d="M93.047,55.629a1.34,1.34,0,0,1-.669-.179L.67,2.5A1.34,1.34,0,1,1,2.011.181L93.719,53.126a1.342,1.342,0,0,1-.672,2.5Z" transform="translate(283.855 802.969)" fill="#f5aa28"/>
    <path id="Path_3139" data-name="Path 3139" d="M15.126,1.351A10.082,10.082,0,1,1,1.353,5.041,10.083,10.083,0,0,1,15.126,1.351Z" transform="translate(366.82 847.175)" fill="#f5aa28"/>
    <path id="Path_3140" data-name="Path 3140" d="M15.124,1.351a10.082,10.082,0,1,0,3.69,13.773A10.088,10.088,0,0,0,15.124,1.351Z" transform="translate(275.111 794.225)" fill="#f5aa28"/>
    <path id="Path_3141" data-name="Path 3141" d="M0,0" transform="translate(285.194 804.307)" fill="#f5aa28"/>
    <path id="Path_3142" data-name="Path 3142" d="M0,0" transform="translate(376.905 963.152)" fill="#f5aa28"/>
    <path id="Path_3143" data-name="Path 3143" d="M0,0" transform="translate(651.974 698.412)" fill="#f5aa28"/>
    <path id="Path_3144" data-name="Path 3144" d="M1.344,108.577A1.341,1.341,0,0,1,0,107.236L0,1.341a1.341,1.341,0,0,1,2.682,0l0,105.9A1.341,1.341,0,0,1,1.344,108.577Z" transform="translate(650.633 697.071)" fill="#f5aa28"/>
    <path id="Path_3145" data-name="Path 3145" d="M0,10.083A10.083,10.083,0,1,1,10.083,20.166,10.085,10.085,0,0,1,0,10.083Z" transform="translate(641.891 688.329)" fill="#f5aa28"/>
    <path id="Path_3146" data-name="Path 3146" d="M0,10.079A10.081,10.081,0,1,0,10.083,0,10.083,10.083,0,0,0,0,10.079Z" transform="translate(641.895 794.228)" fill="#f5aa28"/>
    <path id="Path_3147" data-name="Path 3147" d="M0,0" transform="translate(651.996 804.307)" fill="#f5aa28"/>
    <path id="Path_3148" data-name="Path 3148" d="M1.341,108.577A1.341,1.341,0,0,1,0,107.236V1.341a1.341,1.341,0,0,1,2.682,0v105.9A1.341,1.341,0,0,1,1.341,108.577Z" transform="translate(650.655 697.071)" fill="#f5aa28"/>
    <path id="Path_3149" data-name="Path 3149" d="M0,10.083A10.083,10.083,0,1,1,10.083,20.166,10.085,10.085,0,0,1,0,10.083Z" transform="translate(641.913 688.329)" fill="#f5aa28"/>
    <path id="Path_3150" data-name="Path 3150" d="M0,10.079A10.083,10.083,0,1,0,10.083,0,10.083,10.083,0,0,0,0,10.079Z" transform="translate(641.913 794.228)" fill="#f5aa28"/>
    <path id="Path_3151" data-name="Path 3151" d="M0,0" transform="translate(651.996 698.412)" fill="#f5aa28"/>
    <path id="Path_3152" data-name="Path 3152" d="M0,0" transform="translate(468.577 698.412)" fill="#f5aa28"/>
    <path id="Path_3153" data-name="Path 3153" d="M1.344,108.577A1.341,1.341,0,0,1,0,107.236L0,1.341a1.341,1.341,0,0,1,2.682,0l0,105.9A1.341,1.341,0,0,1,1.344,108.577Z" transform="translate(467.232 697.071)" fill="#f5aa28"/>
    <path id="Path_3154" data-name="Path 3154" d="M0,10.083A10.081,10.081,0,1,1,10.083,20.166,10.082,10.082,0,0,1,0,10.083Z" transform="translate(458.494 688.329)" fill="#f5aa28"/>
    <path id="Path_3155" data-name="Path 3155" d="M0,10.079A10.083,10.083,0,1,0,10.083,0,10.083,10.083,0,0,0,0,10.079Z" transform="translate(458.494 794.228)" fill="#f5aa28"/>
    <path id="Path_3156" data-name="Path 3156" d="M93.029,55.629a1.331,1.331,0,0,1-.669-.179L.67,2.5A1.34,1.34,0,0,1,2.011.181L93.7,53.126a1.342,1.342,0,0,1-.672,2.5Z" transform="translate(467.256 802.969)" fill="#f5aa28"/>
    <path id="Path_3157" data-name="Path 3157" d="M5.043,18.814a10.082,10.082,0,1,1,13.773-3.686A10.079,10.079,0,0,1,5.043,18.814Z" transform="translate(458.51 794.225)" fill="#f5aa28"/>
    <path id="Path_3158" data-name="Path 3158" d="M5.041,18.814A10.082,10.082,0,1,0,1.351,5.041,10.081,10.081,0,0,0,5.041,18.814Z" transform="translate(550.202 847.175)" fill="#f5aa28"/>
    <path id="Path_3159" data-name="Path 3159" d="M1.343,55.629a1.342,1.342,0,0,1-.672-2.5L92.378.181A1.34,1.34,0,1,1,93.719,2.5L2.011,55.45A1.34,1.34,0,0,1,1.343,55.629Z" transform="translate(558.945 802.969)" fill="#f5aa28"/>
    <path id="Path_3160" data-name="Path 3160" d="M15.124,18.814a10.082,10.082,0,1,1,3.69-13.773A10.081,10.081,0,0,1,15.124,18.814Z" transform="translate(550.202 847.175)" fill="#f5aa28"/>
    <path id="Path_3161" data-name="Path 3161" d="M15.126,18.814a10.082,10.082,0,1,0-13.773-3.69A10.086,10.086,0,0,0,15.126,18.814Z" transform="translate(641.911 794.225)" fill="#f5aa28"/>
    <path id="Path_3162" data-name="Path 3162" d="M1.341,108.577A1.341,1.341,0,0,1,0,107.236V1.341a1.341,1.341,0,0,1,2.682,0v105.9A1.341,1.341,0,0,1,1.341,108.577Z" transform="translate(467.254 697.071)" fill="#f5aa28"/>
    <path id="Path_3163" data-name="Path 3163" d="M0,10.083A10.083,10.083,0,1,1,10.083,20.166,10.085,10.085,0,0,1,0,10.083Z" transform="translate(458.512 688.329)" fill="#f5aa28"/>
    <path id="Path_3164" data-name="Path 3164" d="M0,10.079A10.083,10.083,0,1,0,10.083,0,10.083,10.083,0,0,0,0,10.079Z" transform="translate(458.512 794.228)" fill="#f5aa28"/>
    <path id="Path_3165" data-name="Path 3165" d="M93.05,55.629a1.331,1.331,0,0,1-.669-.179L.67,2.5A1.34,1.34,0,1,1,2.011.181L93.722,53.126a1.341,1.341,0,0,1-.672,2.5Z" transform="translate(375.544 644.124)" fill="#f5aa28"/>
    <path id="Path_3166" data-name="Path 3166" d="M15.125,1.353A10.082,10.082,0,1,1,1.353,5.042,10.083,10.083,0,0,1,15.125,1.353Z" transform="translate(458.511 688.328)" fill="#f5aa28"/>
    <path id="Path_3167" data-name="Path 3167" d="M15.124,1.351a10.081,10.081,0,1,0,3.69,13.773A10.088,10.088,0,0,0,15.124,1.351Z" transform="translate(366.801 635.38)" fill="#f5aa28"/>
    <path id="Path_3168" data-name="Path 3168" d="M1.341,55.629a1.341,1.341,0,0,1-.672-2.5L92.38.181A1.34,1.34,0,0,1,93.721,2.5L2.01,55.45A1.331,1.331,0,0,1,1.341,55.629Z" transform="translate(283.835 644.124)" fill="#f5aa28"/>
    <path id="Path_3169" data-name="Path 3169" d="M5.044,1.351A10.081,10.081,0,1,1,1.351,15.124,10.083,10.083,0,0,1,5.044,1.351Z" transform="translate(366.801 635.38)" fill="#f5aa28"/>
    <path id="Path_3170" data-name="Path 3170" d="M5.043,1.353a10.082,10.082,0,1,0,13.773,3.69A10.08,10.08,0,0,0,5.043,1.353Z" transform="translate(275.091 688.328)" fill="#f5aa28"/>
    <path id="Path_3171" data-name="Path 3171" d="M1.341,108.577A1.341,1.341,0,0,1,0,107.236V1.341a1.341,1.341,0,0,1,2.682,0v105.9A1.341,1.341,0,0,1,1.341,108.577Z" transform="translate(283.835 697.071)" fill="#f5aa28"/>
    <path id="Path_3172" data-name="Path 3172" d="M0,10.083A10.083,10.083,0,1,1,10.083,20.166,10.085,10.085,0,0,1,0,10.083Z" transform="translate(275.093 688.329)" fill="#f5aa28"/>
    <path id="Path_3173" data-name="Path 3173" d="M0,10.079A10.083,10.083,0,1,0,10.083,0,10.083,10.083,0,0,0,0,10.079Z" transform="translate(275.093 794.228)" fill="#f5aa28"/>
    <path id="Path_3174" data-name="Path 3174" d="M93.029,55.629a1.331,1.331,0,0,1-.669-.179L.67,2.5A1.34,1.34,0,1,1,2.011.181L93.7,53.126a1.342,1.342,0,0,1-.672,2.5Z" transform="translate(283.855 802.969)" fill="#f5aa28"/>
    <path id="Path_3175" data-name="Path 3175" d="M5.041,18.814a10.082,10.082,0,1,1,13.773-3.686A10.086,10.086,0,0,1,5.041,18.814Z" transform="translate(275.111 794.225)" fill="#f5aa28"/>
    <path id="Path_3176" data-name="Path 3176" d="M5.04,18.814A10.082,10.082,0,1,0,1.353,5.041,10.08,10.08,0,0,0,5.04,18.814Z" transform="translate(366.802 847.175)" fill="#f5aa28"/>
    <path id="Path_3177" data-name="Path 3177" d="M1.343,55.629a1.342,1.342,0,0,1-.672-2.5L92.382.181A1.34,1.34,0,1,1,93.722,2.5L2.011,55.45A1.341,1.341,0,0,1,1.343,55.629Z" transform="translate(375.544 802.969)" fill="#f5aa28"/>
    <path id="Path_3178" data-name="Path 3178" d="M15.124,18.814a10.081,10.081,0,1,1,3.69-13.773A10.081,10.081,0,0,1,15.124,18.814Z" transform="translate(366.801 847.175)" fill="#f5aa28"/>
    <path id="Path_3179" data-name="Path 3179" d="M15.125,18.814a10.082,10.082,0,1,0-13.773-3.69A10.083,10.083,0,0,0,15.125,18.814Z" transform="translate(458.511 794.225)" fill="#f5aa28"/>
    <path id="Path_3180" data-name="Path 3180" d="M1.341,108.577A1.341,1.341,0,0,1,0,107.236V1.341a1.341,1.341,0,0,1,2.682,0v105.9A1.341,1.341,0,0,1,1.341,108.577Z" transform="translate(283.853 697.071)" fill="#f5aa28"/>
    <path id="Path_3181" data-name="Path 3181" d="M0,10.083A10.083,10.083,0,1,1,10.083,20.166,10.085,10.085,0,0,1,0,10.083Z" transform="translate(275.111 688.329)" fill="#f5aa28"/>
    <path id="Path_3182" data-name="Path 3182" d="M0,10.079A10.083,10.083,0,1,0,10.083,0,10.083,10.083,0,0,0,0,10.079Z" transform="translate(275.111 794.228)" fill="#f5aa28"/>
    <path id="Path_3183" data-name="Path 3183" d="M93.049,55.629a1.331,1.331,0,0,1-.669-.179L.669,2.5A1.34,1.34,0,1,1,2.01.181L93.721,53.126a1.341,1.341,0,0,1-.672,2.5Z" transform="translate(192.145 644.124)" fill="#f5aa28"/>
    <path id="Path_3184" data-name="Path 3184" d="M15.124,1.353A10.082,10.082,0,1,1,1.351,5.042,10.08,10.08,0,0,1,15.124,1.353Z" transform="translate(275.111 688.328)" fill="#f5aa28"/>
    <path id="Path_3185" data-name="Path 3185" d="M15.126,1.351a10.082,10.082,0,1,0,3.69,13.773A10.086,10.086,0,0,0,15.126,1.351Z" transform="translate(183.401 635.38)" fill="#f5aa28"/>
    <path id="Path_3186" data-name="Path 3186" d="M0,0" transform="translate(193.486 645.463)" fill="#f5aa28"/>
    <path id="Path_3187" data-name="Path 3187" d="M0,0" transform="translate(285.194 804.307)" fill="#f5aa28"/>
    <path id="Path_3188" data-name="Path 3188" d="M0,0" transform="translate(651.996 698.412)" fill="#f5aa28"/>
    <path id="Path_3189" data-name="Path 3189" d="M0,0" transform="translate(651.996 698.412)" fill="#f5aa28"/>
    <path id="Path_3190" data-name="Path 3190" d="M0,0" transform="translate(468.595 486.618)" fill="#f5aa28"/>
    <path id="Path_3191" data-name="Path 3191" d="M1.343,55.629a1.342,1.342,0,0,1-.672-2.5L92.382.181A1.34,1.34,0,1,1,93.722,2.5L2.011,55.45A1.341,1.341,0,0,1,1.343,55.629Z" transform="translate(375.544 485.279)" fill="#f5aa28"/>
    <path id="Path_3192" data-name="Path 3192" d="M5.042,1.351a10.082,10.082,0,1,1-3.69,13.773A10.086,10.086,0,0,1,5.042,1.351Z" transform="translate(458.511 476.536)" fill="#f5aa28"/>
    <path id="Path_3193" data-name="Path 3193" d="M5.044,1.353a10.081,10.081,0,1,0,13.769,3.69A10.084,10.084,0,0,0,5.044,1.353Z" transform="translate(366.801 529.484)" fill="#f5aa28"/>
    <path id="Path_3194" data-name="Path 3194" d="M1.344,108.58A1.341,1.341,0,0,1,0,107.24L0,1.341a1.341,1.341,0,1,1,2.682,0l0,105.9A1.341,1.341,0,0,1,1.344,108.58Z" transform="translate(375.543 538.227)" fill="#f5aa28"/>
    <path id="Path_3195" data-name="Path 3195" d="M0,10.083A10.081,10.081,0,1,1,10.079,20.166,10.08,10.08,0,0,1,0,10.083Z" transform="translate(366.804 529.485)" fill="#f5aa28"/>
    <path id="Path_3196" data-name="Path 3196" d="M0,10.079A10.083,10.083,0,1,0,10.083,0,10.085,10.085,0,0,0,0,10.079Z" transform="translate(366.804 635.383)" fill="#f5aa28"/>
    <path id="Path_3197" data-name="Path 3197" d="M93.032,55.629a1.331,1.331,0,0,1-.669-.179L.67,2.5A1.34,1.34,0,1,1,2.011.181L93.7,53.126a1.341,1.341,0,0,1-.672,2.5Z" transform="translate(375.562 644.124)" fill="#f5aa28"/>
    <path id="Path_3198" data-name="Path 3198" d="M5.043,18.814a10.082,10.082,0,1,1,13.773-3.69A10.08,10.08,0,0,1,5.043,18.814Z" transform="translate(366.82 635.38)" fill="#f5aa28"/>
    <path id="Path_3199" data-name="Path 3199" d="M5.043,18.816A10.082,10.082,0,1,0,1.353,5.043,10.081,10.081,0,0,0,5.043,18.816Z" transform="translate(458.51 688.328)" fill="#f5aa28"/>
    <path id="Path_3200" data-name="Path 3200" d="M0,0" transform="translate(468.595 698.412)" fill="#f5aa28"/>
    <path id="Path_3201" data-name="Path 3201" d="M1.341,108.58A1.341,1.341,0,0,1,0,107.24V1.341a1.341,1.341,0,1,1,2.682,0v105.9A1.341,1.341,0,0,1,1.341,108.58Z" transform="translate(375.564 538.227)" fill="#f5aa28"/>
    <path id="Path_3202" data-name="Path 3202" d="M0,10.083A10.083,10.083,0,1,1,10.083,20.166,10.085,10.085,0,0,1,0,10.083Z" transform="translate(366.822 529.485)" fill="#f5aa28"/>
    <path id="Path_3203" data-name="Path 3203" d="M0,10.079A10.083,10.083,0,1,0,10.083,0,10.085,10.085,0,0,0,0,10.079Z" transform="translate(366.822 635.383)" fill="#f5aa28"/>
    <path id="Path_3204" data-name="Path 3204" d="M93.047,55.629a1.341,1.341,0,0,1-.669-.179L.67,2.5A1.34,1.34,0,0,1,2.011.181L93.719,53.126a1.342,1.342,0,0,1-.672,2.5Z" transform="translate(283.855 485.279)" fill="#f5aa28"/>
    <path id="Path_3205" data-name="Path 3205" d="M15.126,1.353A10.082,10.082,0,1,1,1.353,5.042,10.082,10.082,0,0,1,15.126,1.353Z" transform="translate(366.82 529.484)" fill="#f5aa28"/>
    <path id="Path_3206" data-name="Path 3206" d="M15.124,1.351a10.082,10.082,0,1,0,3.69,13.773A10.087,10.087,0,0,0,15.124,1.351Z" transform="translate(275.111 476.536)" fill="#f5aa28"/>
    <path id="Path_3207" data-name="Path 3207" d="M1.341,55.629a1.342,1.342,0,0,1-.672-2.5L92.38.181A1.34,1.34,0,0,1,93.721,2.5L2.01,55.45A1.331,1.331,0,0,1,1.341,55.629Z" transform="translate(192.145 485.279)" fill="#f5aa28"/>
    <path id="Path_3208" data-name="Path 3208" d="M5.041,1.351a10.082,10.082,0,1,1-3.69,13.773A10.086,10.086,0,0,1,5.041,1.351Z" transform="translate(275.111 476.536)" fill="#f5aa28"/>
    <path id="Path_3209" data-name="Path 3209" d="M5.043,1.353a10.082,10.082,0,1,0,13.773,3.69A10.079,10.079,0,0,0,5.043,1.353Z" transform="translate(183.401 529.484)" fill="#f5aa28"/>
    <path id="Path_3210" data-name="Path 3210" d="M1.341,108.58A1.341,1.341,0,0,1,0,107.24V1.341a1.341,1.341,0,1,1,2.682,0v105.9A1.341,1.341,0,0,1,1.341,108.58Z" transform="translate(192.145 538.227)" fill="#f5aa28"/>
    <path id="Path_3211" data-name="Path 3211" d="M0,10.083A10.081,10.081,0,1,1,10.083,20.166,10.083,10.083,0,0,1,0,10.083Z" transform="translate(183.403 529.485)" fill="#f5aa28"/>
    <path id="Path_3212" data-name="Path 3212" d="M0,10.079A10.083,10.083,0,1,0,10.083,0,10.085,10.085,0,0,0,0,10.079Z" transform="translate(183.403 635.383)" fill="#f5aa28"/>
    <path id="Path_3213" data-name="Path 3213" d="M93.029,55.629a1.331,1.331,0,0,1-.669-.179L.67,2.5A1.34,1.34,0,1,1,2.011.181L93.7,53.126a1.341,1.341,0,0,1-.672,2.5Z" transform="translate(192.165 644.124)" fill="#f5aa28"/>
    <path id="Path_3214" data-name="Path 3214" d="M5.041,18.814a10.082,10.082,0,1,1,13.773-3.69A10.086,10.086,0,0,1,5.041,18.814Z" transform="translate(183.421 635.38)" fill="#f5aa28"/>
    <path id="Path_3215" data-name="Path 3215" d="M5.041,18.816A10.082,10.082,0,1,0,1.351,5.043,10.08,10.08,0,0,0,5.041,18.816Z" transform="translate(275.111 688.328)" fill="#f5aa28"/>
    <path id="Path_3216" data-name="Path 3216" d="M1.343,55.629a1.341,1.341,0,0,1-.672-2.5L92.378.181A1.34,1.34,0,0,1,93.719,2.5L2.011,55.45A1.341,1.341,0,0,1,1.343,55.629Z" transform="translate(283.855 644.124)" fill="#f5aa28"/>
    <path id="Path_3217" data-name="Path 3217" d="M15.124,18.815a10.082,10.082,0,1,1,3.69-13.773A10.084,10.084,0,0,1,15.124,18.815Z" transform="translate(275.111 688.328)" fill="#f5aa28"/>
    <path id="Path_3218" data-name="Path 3218" d="M15.126,18.814a10.082,10.082,0,1,0-13.773-3.69A10.083,10.083,0,0,0,15.126,18.814Z" transform="translate(366.82 635.38)" fill="#f5aa28"/>
    <path id="Path_3219" data-name="Path 3219" d="M1.341,108.58A1.341,1.341,0,0,1,0,107.24V1.341a1.341,1.341,0,1,1,2.682,0v105.9A1.341,1.341,0,0,1,1.341,108.58Z" transform="translate(192.163 538.227)" fill="#f5aa28"/>
    <path id="Path_3220" data-name="Path 3220" d="M0,10.083A10.083,10.083,0,1,1,10.083,20.166,10.085,10.085,0,0,1,0,10.083Z" transform="translate(183.421 529.485)" fill="#f5aa28"/>
    <path id="Path_3221" data-name="Path 3221" d="M0,10.079A10.083,10.083,0,1,0,10.083,0,10.085,10.085,0,0,0,0,10.079Z" transform="translate(183.421 635.383)" fill="#f5aa28"/>
    <path id="Path_3222" data-name="Path 3222" d="M0,0" transform="translate(193.504 539.567)" fill="#f5aa28"/>
    <path id="Path_3223" data-name="Path 3223" d="M0,0" transform="translate(193.504 645.463)" fill="#f5aa28"/>
    <path id="Path_3224" data-name="Path 3224" d="M0,0" transform="translate(468.577 380.723)" fill="#f5aa28"/>
    <path id="Path_3225" data-name="Path 3225" d="M1.344,108.577A1.341,1.341,0,0,1,0,107.236L0,1.341a1.341,1.341,0,0,1,2.682,0l0,105.9A1.341,1.341,0,0,1,1.344,108.577Z" transform="translate(467.232 379.382)" fill="#f5aa28"/>
    <path id="Path_3226" data-name="Path 3226" d="M0,10.083A10.081,10.081,0,1,1,10.083,20.166,10.082,10.082,0,0,1,0,10.083Z" transform="translate(458.494 370.64)" fill="#f5aa28"/>
    <path id="Path_3227" data-name="Path 3227" d="M0,10.083A10.083,10.083,0,1,0,10.083,0,10.085,10.085,0,0,0,0,10.083Z" transform="translate(458.494 476.535)" fill="#f5aa28"/>
    <path id="Path_3228" data-name="Path 3228" d="M0,0" transform="translate(468.595 486.618)" fill="#f5aa28"/>
    <path id="Path_3229" data-name="Path 3229" d="M1.341,108.577A1.341,1.341,0,0,1,0,107.236V1.341a1.341,1.341,0,0,1,2.682,0v105.9A1.341,1.341,0,0,1,1.341,108.577Z" transform="translate(467.254 379.382)" fill="#f5aa28"/>
    <path id="Path_3230" data-name="Path 3230" d="M0,10.083A10.083,10.083,0,1,1,10.083,20.166,10.085,10.085,0,0,1,0,10.083Z" transform="translate(458.512 370.64)" fill="#f5aa28"/>
    <ellipse id="Ellipse_43" data-name="Ellipse 43" cx="10.082" cy="10.082" rx="10.082" ry="10.082" transform="translate(458.512 476.537)" fill="#f5aa28"/>
    <path id="Path_3231" data-name="Path 3231" d="M93.05,55.632a1.33,1.33,0,0,1-.669-.179L.67,2.5A1.342,1.342,0,0,1,2.011.18L93.722,53.129a1.341,1.341,0,0,1-.672,2.5Z" transform="translate(375.544 326.431)" fill="#f5aa28"/>
    <path id="Path_3232" data-name="Path 3232" d="M15.125,1.353A10.082,10.082,0,1,1,1.353,5.042,10.083,10.083,0,0,1,15.125,1.353Z" transform="translate(458.511 370.639)" fill="#f5aa28"/>
    <path id="Path_3233" data-name="Path 3233" d="M15.124,1.351a10.081,10.081,0,1,0,3.69,13.773A10.087,10.087,0,0,0,15.124,1.351Z" transform="translate(366.801 317.691)" fill="#f5aa28"/>
    <path id="Path_3234" data-name="Path 3234" d="M1.341,55.632a1.341,1.341,0,0,1-.672-2.5L92.38.18A1.342,1.342,0,0,1,93.721,2.5L2.01,55.453A1.33,1.33,0,0,1,1.341,55.632Z" transform="translate(283.835 326.431)" fill="#f5aa28"/>
    <path id="Path_3235" data-name="Path 3235" d="M5.044,1.351A10.081,10.081,0,1,1,1.351,15.124,10.082,10.082,0,0,1,5.044,1.351Z" transform="translate(366.801 317.691)" fill="#f5aa28"/>
    <path id="Path_3236" data-name="Path 3236" d="M5.043,1.353a10.082,10.082,0,1,0,13.773,3.69A10.08,10.08,0,0,0,5.043,1.353Z" transform="translate(275.091 370.639)" fill="#f5aa28"/>
    <path id="Path_3237" data-name="Path 3237" d="M1.341,108.577A1.341,1.341,0,0,1,0,107.236V1.341a1.341,1.341,0,0,1,2.682,0v105.9A1.341,1.341,0,0,1,1.341,108.577Z" transform="translate(283.835 379.382)" fill="#f5aa28"/>
    <path id="Path_3238" data-name="Path 3238" d="M0,10.083A10.083,10.083,0,1,1,10.083,20.166,10.085,10.085,0,0,1,0,10.083Z" transform="translate(275.093 370.64)" fill="#f5aa28"/>
    <path id="Path_3239" data-name="Path 3239" d="M0,10.083A10.083,10.083,0,1,0,10.083,0,10.085,10.085,0,0,0,0,10.083Z" transform="translate(275.093 476.535)" fill="#f5aa28"/>
    <path id="Path_3240" data-name="Path 3240" d="M93.029,55.629a1.331,1.331,0,0,1-.669-.179L.67,2.5A1.34,1.34,0,0,1,2.011.181L93.7,53.126a1.342,1.342,0,0,1-.672,2.5Z" transform="translate(283.855 485.279)" fill="#f5aa28"/>
    <path id="Path_3241" data-name="Path 3241" d="M5.041,18.814a10.082,10.082,0,1,1,13.773-3.69A10.087,10.087,0,0,1,5.041,18.814Z" transform="translate(275.111 476.536)" fill="#f5aa28"/>
    <path id="Path_3242" data-name="Path 3242" d="M5.04,18.816A10.082,10.082,0,1,0,1.353,5.043,10.08,10.08,0,0,0,5.04,18.816Z" transform="translate(366.802 529.483)" fill="#f5aa28"/>
    <path id="Path_3243" data-name="Path 3243" d="M1.343,55.629a1.342,1.342,0,0,1-.672-2.5L92.382.181A1.34,1.34,0,1,1,93.722,2.5L2.011,55.45A1.341,1.341,0,0,1,1.343,55.629Z" transform="translate(375.544 485.279)" fill="#f5aa28"/>
    <path id="Path_3244" data-name="Path 3244" d="M15.124,18.815a10.081,10.081,0,1,1,3.69-13.773A10.084,10.084,0,0,1,15.124,18.815Z" transform="translate(366.801 529.484)" fill="#f5aa28"/>
    <path id="Path_3245" data-name="Path 3245" d="M15.125,18.814a10.082,10.082,0,1,0-13.773-3.69A10.083,10.083,0,0,0,15.125,18.814Z" transform="translate(458.511 476.536)" fill="#f5aa28"/>
    <path id="Path_3246" data-name="Path 3246" d="M1.341,108.577A1.341,1.341,0,0,1,0,107.236V1.341a1.341,1.341,0,0,1,2.682,0v105.9A1.341,1.341,0,0,1,1.341,108.577Z" transform="translate(283.853 379.382)" fill="#f5aa28"/>
    <path id="Path_3247" data-name="Path 3247" d="M0,10.083A10.083,10.083,0,1,1,10.083,20.166,10.085,10.085,0,0,1,0,10.083Z" transform="translate(275.111 370.64)" fill="#f5aa28"/>
    <ellipse id="Ellipse_44" data-name="Ellipse 44" cx="10.082" cy="10.082" rx="10.082" ry="10.082" transform="translate(275.112 476.537)" fill="#f5aa28"/>
    <path id="Path_3248" data-name="Path 3248" d="M93.049,55.632a1.33,1.33,0,0,1-.669-.179L.669,2.5A1.342,1.342,0,0,1,2.01.18L93.721,53.129a1.341,1.341,0,0,1-.672,2.5Z" transform="translate(192.145 326.431)" fill="#f5aa28"/>
    <path id="Path_3249" data-name="Path 3249" d="M15.124,1.353A10.082,10.082,0,1,1,1.351,5.042,10.08,10.08,0,0,1,15.124,1.353Z" transform="translate(275.111 370.639)" fill="#f5aa28"/>
    <path id="Path_3250" data-name="Path 3250" d="M15.126,1.351a10.082,10.082,0,1,0,3.69,13.773A10.086,10.086,0,0,0,15.126,1.351Z" transform="translate(183.401 317.691)" fill="#f5aa28"/>
    <path id="Path_3251" data-name="Path 3251" d="M0,0" transform="translate(193.486 327.773)" fill="#f5aa28"/>
    <path id="Path_3252" data-name="Path 3252" d="M0,0" transform="translate(193.486 539.567)" fill="#f5aa28"/>
    <path id="Path_3253" data-name="Path 3253" d="M1.341,55.629a1.342,1.342,0,0,1-.672-2.5L92.38.181A1.34,1.34,0,0,1,93.721,2.5L2.01,55.45A1.331,1.331,0,0,1,1.341,55.629Z" transform="translate(192.145 485.279)" fill="#f5aa28"/>
    <path id="Path_3254" data-name="Path 3254" d="M15.126,18.815a10.082,10.082,0,1,1,3.69-13.773A10.083,10.083,0,0,1,15.126,18.815Z" transform="translate(183.401 529.484)" fill="#f5aa28"/>
    <path id="Path_3255" data-name="Path 3255" d="M15.124,18.814a10.082,10.082,0,1,0-13.773-3.69A10.08,10.08,0,0,0,15.124,18.814Z" transform="translate(275.111 476.536)" fill="#f5aa28"/>
    <path id="Path_3256" data-name="Path 3256" d="M0,0" transform="translate(468.595 168.929)" fill="#f5aa28"/>
    <path id="Path_3257" data-name="Path 3257" d="M1.343,55.631a1.342,1.342,0,0,1-.672-2.5L92.382.182A1.34,1.34,0,1,1,93.722,2.5L2.011,55.452A1.341,1.341,0,0,1,1.343,55.631Z" transform="translate(375.544 167.588)" fill="#f5aa28"/>
    <path id="Path_3258" data-name="Path 3258" d="M5.042,1.351a10.082,10.082,0,1,1-3.69,13.773A10.086,10.086,0,0,1,5.042,1.351Z" transform="translate(458.511 158.846)" fill="#f5aa28"/>
    <path id="Path_3259" data-name="Path 3259" d="M5.044,1.353a10.081,10.081,0,1,0,13.769,3.69A10.084,10.084,0,0,0,5.044,1.353Z" transform="translate(366.801 211.793)" fill="#f5aa28"/>
    <path id="Path_3260" data-name="Path 3260" d="M1.344,108.577A1.341,1.341,0,0,1,0,107.236L0,1.341a1.341,1.341,0,0,1,2.682,0l0,105.9A1.341,1.341,0,0,1,1.344,108.577Z" transform="translate(375.543 220.537)" fill="#f5aa28"/>
    <path id="Path_3261" data-name="Path 3261" d="M0,10.083A10.081,10.081,0,1,1,10.079,20.166,10.08,10.08,0,0,1,0,10.083Z" transform="translate(366.804 211.795)" fill="#f5aa28"/>
    <path id="Path_3262" data-name="Path 3262" d="M0,10.083A10.083,10.083,0,1,0,10.083,0,10.085,10.085,0,0,0,0,10.083Z" transform="translate(366.804 317.69)" fill="#f5aa28"/>
    <path id="Path_3263" data-name="Path 3263" d="M93.032,55.632a1.33,1.33,0,0,1-.669-.179L.67,2.5A1.342,1.342,0,0,1,2.011.18L93.7,53.129a1.341,1.341,0,0,1-.672,2.5Z" transform="translate(375.562 326.431)" fill="#f5aa28"/>
    <path id="Path_3264" data-name="Path 3264" d="M5.043,18.814a10.082,10.082,0,1,1,13.773-3.69A10.081,10.081,0,0,1,5.043,18.814Z" transform="translate(366.82 317.691)" fill="#f5aa28"/>
    <path id="Path_3265" data-name="Path 3265" d="M5.043,18.816A10.082,10.082,0,1,0,1.353,5.043,10.084,10.084,0,0,0,5.043,18.816Z" transform="translate(458.51 370.638)" fill="#f5aa28"/>
    <path id="Path_3266" data-name="Path 3266" d="M0,0" transform="translate(468.595 380.723)" fill="#f5aa28"/>
    <path id="Path_3267" data-name="Path 3267" d="M1.341,108.577A1.341,1.341,0,0,1,0,107.236V1.341a1.341,1.341,0,0,1,2.682,0v105.9A1.341,1.341,0,0,1,1.341,108.577Z" transform="translate(375.564 220.537)" fill="#f5aa28"/>
    <path id="Path_3268" data-name="Path 3268" d="M0,10.083A10.083,10.083,0,1,1,10.083,20.166,10.085,10.085,0,0,1,0,10.083Z" transform="translate(366.822 211.795)" fill="#f5aa28"/>
    <path id="Path_3269" data-name="Path 3269" d="M0,10.083A10.083,10.083,0,1,0,10.083,0,10.085,10.085,0,0,0,0,10.083Z" transform="translate(366.822 317.69)" fill="#f5aa28"/>
    <path id="Path_3270" data-name="Path 3270" d="M93.047,55.631a1.341,1.341,0,0,1-.669-.179L.67,2.5A1.34,1.34,0,0,1,2.011.182L93.719,53.128a1.342,1.342,0,0,1-.672,2.5Z" transform="translate(283.855 167.588)" fill="#f5aa28"/>
    <path id="Path_3271" data-name="Path 3271" d="M15.126,1.353A10.082,10.082,0,1,1,1.353,5.043,10.083,10.083,0,0,1,15.126,1.353Z" transform="translate(366.82 211.793)" fill="#f5aa28"/>
    <path id="Path_3272" data-name="Path 3272" d="M15.124,1.351a10.082,10.082,0,1,0,3.69,13.773A10.087,10.087,0,0,0,15.124,1.351Z" transform="translate(275.111 158.846)" fill="#f5aa28"/>
    <path id="Path_3273" data-name="Path 3273" d="M1.341,55.631a1.342,1.342,0,0,1-.672-2.5L92.38.182A1.34,1.34,0,1,1,93.721,2.5L2.01,55.452A1.331,1.331,0,0,1,1.341,55.631Z" transform="translate(192.145 167.588)" fill="#f5aa28"/>
    <path id="Path_3274" data-name="Path 3274" d="M5.041,1.351a10.082,10.082,0,1,1-3.69,13.773A10.086,10.086,0,0,1,5.041,1.351Z" transform="translate(275.111 158.846)" fill="#f5aa28"/>
    <path id="Path_3275" data-name="Path 3275" d="M5.043,1.353a10.082,10.082,0,1,0,13.773,3.69A10.08,10.08,0,0,0,5.043,1.353Z" transform="translate(183.401 211.793)" fill="#f5aa28"/>
    <path id="Path_3276" data-name="Path 3276" d="M1.341,108.577A1.341,1.341,0,0,1,0,107.236V1.341a1.341,1.341,0,0,1,2.682,0v105.9A1.341,1.341,0,0,1,1.341,108.577Z" transform="translate(192.145 220.537)" fill="#f5aa28"/>
    <path id="Path_3277" data-name="Path 3277" d="M0,10.083A10.081,10.081,0,1,1,10.083,20.166,10.083,10.083,0,0,1,0,10.083Z" transform="translate(183.403 211.795)" fill="#f5aa28"/>
    <path id="Path_3278" data-name="Path 3278" d="M0,10.083A10.083,10.083,0,1,0,10.083,0,10.085,10.085,0,0,0,0,10.083Z" transform="translate(183.403 317.69)" fill="#f5aa28"/>
    <path id="Path_3279" data-name="Path 3279" d="M93.029,55.632a1.33,1.33,0,0,1-.669-.179L.67,2.5A1.342,1.342,0,0,1,2.011.18L93.7,53.129a1.341,1.341,0,0,1-.672,2.5Z" transform="translate(192.165 326.431)" fill="#f5aa28"/>
    <path id="Path_3280" data-name="Path 3280" d="M5.041,18.814a10.082,10.082,0,1,1,13.773-3.69A10.088,10.088,0,0,1,5.041,18.814Z" transform="translate(183.421 317.691)" fill="#f5aa28"/>
    <path id="Path_3281" data-name="Path 3281" d="M5.041,18.816A10.082,10.082,0,1,0,1.351,5.043,10.084,10.084,0,0,0,5.041,18.816Z" transform="translate(275.111 370.638)" fill="#f5aa28"/>
    <path id="Path_3282" data-name="Path 3282" d="M1.343,55.632a1.341,1.341,0,0,1-.672-2.5L92.378.18A1.342,1.342,0,0,1,93.719,2.5L2.011,55.453A1.34,1.34,0,0,1,1.343,55.632Z" transform="translate(283.855 326.431)" fill="#f5aa28"/>
    <path id="Path_3283" data-name="Path 3283" d="M15.124,18.815a10.082,10.082,0,1,1,3.69-13.773A10.084,10.084,0,0,1,15.124,18.815Z" transform="translate(275.111 370.639)" fill="#f5aa28"/>
    <path id="Path_3284" data-name="Path 3284" d="M15.126,18.814a10.082,10.082,0,1,0-13.773-3.69A10.083,10.083,0,0,0,15.126,18.814Z" transform="translate(366.82 317.691)" fill="#f5aa28"/>
    <path id="Path_3285" data-name="Path 3285" d="M1.341,108.577A1.341,1.341,0,0,1,0,107.236V1.341a1.341,1.341,0,0,1,2.682,0v105.9A1.341,1.341,0,0,1,1.341,108.577Z" transform="translate(192.163 220.537)" fill="#f5aa28"/>
    <path id="Path_3286" data-name="Path 3286" d="M0,10.083A10.083,10.083,0,1,1,10.083,20.166,10.085,10.085,0,0,1,0,10.083Z" transform="translate(183.421 211.795)" fill="#f5aa28"/>
    <path id="Path_3287" data-name="Path 3287" d="M0,10.083A10.083,10.083,0,1,0,10.083,0,10.085,10.085,0,0,0,0,10.083Z" transform="translate(183.421 317.69)" fill="#f5aa28"/>
    <path id="Path_3288" data-name="Path 3288" d="M93.05,55.631a1.331,1.331,0,0,1-.669-.179L.67,2.5A1.34,1.34,0,1,1,2.011.182L93.722,53.128a1.342,1.342,0,0,1-.672,2.5Z" transform="translate(100.454 167.588)" fill="#f5aa28"/>
    <path id="Path_3289" data-name="Path 3289" d="M15.124,1.353A10.082,10.082,0,1,1,1.351,5.043,10.08,10.08,0,0,1,15.124,1.353Z" transform="translate(183.421 211.793)" fill="#f5aa28"/>
    <path id="Path_3290" data-name="Path 3290" d="M15.124,1.351a10.081,10.081,0,1,0,3.69,13.773A10.087,10.087,0,0,0,15.124,1.351Z" transform="translate(91.71 158.846)" fill="#f5aa28"/>
    <path id="Path_3291" data-name="Path 3291" d="M0,0" transform="translate(101.792 168.929)" fill="#f5aa28"/>
    <path id="Path_3292" data-name="Path 3292" d="M0,0" transform="translate(193.504 327.773)" fill="#f5aa28"/>
    <path id="Path_3293" data-name="Path 3293" d="M0,0" transform="translate(468.577 63.033)" fill="#f5aa28"/>
    <path id="Path_3294" data-name="Path 3294" d="M1.344,108.577A1.341,1.341,0,0,1,0,107.236L0,1.341a1.341,1.341,0,1,1,2.682,0l0,105.9A1.341,1.341,0,0,1,1.344,108.577Z" transform="translate(467.232 61.692)" fill="#f5aa28"/>
    <path id="Path_3295" data-name="Path 3295" d="M0,10.083A10.081,10.081,0,1,1,10.083,20.166,10.082,10.082,0,0,1,0,10.083Z" transform="translate(458.494 52.95)" fill="#f5aa28"/>
    <path id="Path_3296" data-name="Path 3296" d="M0,10.083A10.083,10.083,0,1,0,10.083,0,10.085,10.085,0,0,0,0,10.083Z" transform="translate(458.494 158.846)" fill="#f5aa28"/>
    <path id="Path_3297" data-name="Path 3297" d="M0,0" transform="translate(468.595 168.929)" fill="#f5aa28"/>
    <path id="Path_3298" data-name="Path 3298" d="M1.341,108.577A1.341,1.341,0,0,1,0,107.236V1.341a1.341,1.341,0,1,1,2.682,0v105.9A1.341,1.341,0,0,1,1.341,108.577Z" transform="translate(467.254 61.692)" fill="#f5aa28"/>
    <path id="Path_3299" data-name="Path 3299" d="M0,10.083A10.083,10.083,0,1,1,10.083,20.166,10.085,10.085,0,0,1,0,10.083Z" transform="translate(458.512 52.95)" fill="#f5aa28"/>
    <ellipse id="Ellipse_45" data-name="Ellipse 45" cx="10.082" cy="10.082" rx="10.082" ry="10.082" transform="translate(458.512 158.847)" fill="#f5aa28"/>
    <path id="Path_3300" data-name="Path 3300" d="M93.05,55.63a1.331,1.331,0,0,1-.669-.179L.67,2.5A1.342,1.342,0,0,1,2.011.178L93.722,53.128a1.341,1.341,0,0,1-.672,2.5Z" transform="translate(375.544 8.744)" fill="#f5aa28"/>
    <path id="Path_3301" data-name="Path 3301" d="M15.125,1.353A10.082,10.082,0,1,1,1.353,5.043,10.083,10.083,0,0,1,15.125,1.353Z" transform="translate(458.511 52.949)" fill="#f5aa28"/>
    <path id="Path_3302" data-name="Path 3302" d="M15.124,1.353a10.081,10.081,0,1,0,3.69,13.773A10.084,10.084,0,0,0,15.124,1.353Z" transform="translate(366.801 0)" fill="#f5aa28"/>
    <path id="Path_3303" data-name="Path 3303" d="M1.341,55.63a1.341,1.341,0,0,1-.672-2.5L92.38.178A1.342,1.342,0,0,1,93.721,2.5L2.01,55.452A1.331,1.331,0,0,1,1.341,55.63Z" transform="translate(283.835 8.744)" fill="#f5aa28"/>
    <path id="Path_3304" data-name="Path 3304" d="M5.044,1.353A10.081,10.081,0,1,1,1.351,15.125,10.079,10.079,0,0,1,5.044,1.353Z" transform="translate(366.801 0)" fill="#f5aa28"/>
    <path id="Path_3305" data-name="Path 3305" d="M5.043,1.353a10.082,10.082,0,1,0,13.773,3.69A10.08,10.08,0,0,0,5.043,1.353Z" transform="translate(275.091 52.949)" fill="#f5aa28"/>
    <path id="Path_3306" data-name="Path 3306" d="M1.341,108.577A1.341,1.341,0,0,1,0,107.236V1.341a1.341,1.341,0,1,1,2.682,0v105.9A1.341,1.341,0,0,1,1.341,108.577Z" transform="translate(283.835 61.692)" fill="#f5aa28"/>
    <path id="Path_3307" data-name="Path 3307" d="M0,10.083A10.083,10.083,0,1,1,10.083,20.166,10.085,10.085,0,0,1,0,10.083Z" transform="translate(275.093 52.95)" fill="#f5aa28"/>
    <path id="Path_3308" data-name="Path 3308" d="M0,10.083A10.083,10.083,0,1,0,10.083,0,10.085,10.085,0,0,0,0,10.083Z" transform="translate(275.093 158.846)" fill="#f5aa28"/>
    <path id="Path_3309" data-name="Path 3309" d="M93.029,55.631a1.331,1.331,0,0,1-.669-.179L.67,2.5A1.34,1.34,0,0,1,2.011.182L93.7,53.128a1.342,1.342,0,0,1-.672,2.5Z" transform="translate(283.855 167.588)" fill="#f5aa28"/>
    <path id="Path_3310" data-name="Path 3310" d="M5.041,18.814a10.082,10.082,0,1,1,13.773-3.69A10.087,10.087,0,0,1,5.041,18.814Z" transform="translate(275.111 158.846)" fill="#f5aa28"/>
    <path id="Path_3311" data-name="Path 3311" d="M5.04,18.816A10.082,10.082,0,1,0,1.353,5.043,10.086,10.086,0,0,0,5.04,18.816Z" transform="translate(366.802 211.793)" fill="#f5aa28"/>
    <path id="Path_3312" data-name="Path 3312" d="M1.343,55.631a1.342,1.342,0,0,1-.672-2.5L92.382.182A1.34,1.34,0,1,1,93.722,2.5L2.011,55.452A1.341,1.341,0,0,1,1.343,55.631Z" transform="translate(375.544 167.588)" fill="#f5aa28"/>
    <path id="Path_3313" data-name="Path 3313" d="M15.124,18.816a10.081,10.081,0,1,1,3.69-13.773A10.088,10.088,0,0,1,15.124,18.816Z" transform="translate(366.801 211.793)" fill="#f5aa28"/>
    <path id="Path_3314" data-name="Path 3314" d="M15.125,18.814a10.082,10.082,0,1,0-13.773-3.69A10.083,10.083,0,0,0,15.125,18.814Z" transform="translate(458.511 158.846)" fill="#f5aa28"/>
    <path id="Path_3315" data-name="Path 3315" d="M1.341,108.577A1.341,1.341,0,0,1,0,107.236V1.341a1.341,1.341,0,1,1,2.682,0v105.9A1.341,1.341,0,0,1,1.341,108.577Z" transform="translate(283.853 61.692)" fill="#f5aa28"/>
    <path id="Path_3316" data-name="Path 3316" d="M0,10.083A10.083,10.083,0,1,1,10.083,20.166,10.085,10.085,0,0,1,0,10.083Z" transform="translate(275.111 52.95)" fill="#f5aa28"/>
    <ellipse id="Ellipse_46" data-name="Ellipse 46" cx="10.082" cy="10.082" rx="10.082" ry="10.082" transform="translate(275.112 158.847)" fill="#f5aa28"/>
    <path id="Path_3317" data-name="Path 3317" d="M93.049,55.63a1.331,1.331,0,0,1-.669-.179L.669,2.5A1.342,1.342,0,0,1,2.01.178L93.721,53.128a1.341,1.341,0,0,1-.672,2.5Z" transform="translate(192.145 8.744)" fill="#f5aa28"/>
    <path id="Path_3318" data-name="Path 3318" d="M15.124,1.353A10.082,10.082,0,1,1,1.351,5.043,10.08,10.08,0,0,1,15.124,1.353Z" transform="translate(275.111 52.949)" fill="#f5aa28"/>
    <path id="Path_3319" data-name="Path 3319" d="M15.126,1.353a10.082,10.082,0,1,0,3.69,13.773A10.083,10.083,0,0,0,15.126,1.353Z" transform="translate(183.401 0)" fill="#f5aa28"/>
    <path id="Path_3320" data-name="Path 3320" d="M1.341,55.63a1.341,1.341,0,0,1-.672-2.5L92.38.178A1.342,1.342,0,1,1,93.721,2.5L2.01,55.452A1.331,1.331,0,0,1,1.341,55.63Z" transform="translate(100.434 8.744)" fill="#f5aa28"/>
    <path id="Path_3321" data-name="Path 3321" d="M5.043,1.353a10.082,10.082,0,1,1-3.69,13.773A10.084,10.084,0,0,1,5.043,1.353Z" transform="translate(183.401 0)" fill="#f5aa28"/>
    <path id="Path_3322" data-name="Path 3322" d="M5.042,1.353a10.082,10.082,0,1,0,13.773,3.69A10.083,10.083,0,0,0,5.042,1.353Z" transform="translate(91.691 52.949)" fill="#f5aa28"/>
    <path id="Path_3323" data-name="Path 3323" d="M1.341,108.577A1.341,1.341,0,0,1,0,107.236V1.341a1.341,1.341,0,1,1,2.682,0v105.9A1.341,1.341,0,0,1,1.341,108.577Z" transform="translate(100.434 61.692)" fill="#f5aa28"/>
    <path id="Path_3324" data-name="Path 3324" d="M0,10.083A10.083,10.083,0,1,1,10.083,20.166,10.085,10.085,0,0,1,0,10.083Z" transform="translate(91.692 52.95)" fill="#f5aa28"/>
    <path id="Path_3325" data-name="Path 3325" d="M0,10.083A10.083,10.083,0,1,0,10.083,0,10.087,10.087,0,0,0,0,10.083Z" transform="translate(91.692 158.846)" fill="#f5aa28"/>
    <path id="Path_3326" data-name="Path 3326" d="M93.029,55.631a1.341,1.341,0,0,1-.669-.179L.67,2.5A1.34,1.34,0,1,1,2.011.182L93.7,53.128a1.341,1.341,0,0,1-.672,2.5Z" transform="translate(100.454 167.588)" fill="#f5aa28"/>
    <path id="Path_3327" data-name="Path 3327" d="M5.04,18.814a10.083,10.083,0,1,1,13.773-3.69A10.083,10.083,0,0,1,5.04,18.814Z" transform="translate(91.711 158.846)" fill="#f5aa28"/>
    <path id="Path_3328" data-name="Path 3328" d="M5.04,18.816A10.083,10.083,0,1,0,1.353,5.043,10.091,10.091,0,0,0,5.04,18.816Z" transform="translate(183.401 211.793)" fill="#f5aa28"/>
    <path id="Path_3329" data-name="Path 3329" d="M1.341,55.631a1.342,1.342,0,0,1-.672-2.5L92.38.182A1.34,1.34,0,1,1,93.721,2.5L2.01,55.452A1.331,1.331,0,0,1,1.341,55.631Z" transform="translate(192.145 167.588)" fill="#f5aa28"/>
    <path id="Path_3330" data-name="Path 3330" d="M15.126,18.816a10.082,10.082,0,1,1,3.69-13.773A10.086,10.086,0,0,1,15.126,18.816Z" transform="translate(183.401 211.793)" fill="#f5aa28"/>
    <path id="Path_3331" data-name="Path 3331" d="M15.124,18.814a10.082,10.082,0,1,0-13.773-3.69A10.08,10.08,0,0,0,15.124,18.814Z" transform="translate(275.111 158.846)" fill="#f5aa28"/>
    <path id="Path_3332" data-name="Path 3332" d="M1.341,108.577A1.341,1.341,0,0,1,0,107.236V1.341a1.341,1.341,0,1,1,2.682,0v105.9A1.341,1.341,0,0,1,1.341,108.577Z" transform="translate(100.452 61.692)" fill="#f5aa28"/>
    <path id="Path_3333" data-name="Path 3333" d="M0,10.083A10.081,10.081,0,1,1,10.079,20.166,10.082,10.082,0,0,1,0,10.083Z" transform="translate(91.713 52.95)" fill="#f5aa28"/>
    <ellipse id="Ellipse_47" data-name="Ellipse 47" cx="10.082" cy="10.082" rx="10.082" ry="10.082" transform="translate(91.712 158.847)" fill="#f5aa28"/>
    <path id="Path_3334" data-name="Path 3334" d="M93.049,55.63a1.331,1.331,0,0,1-.669-.179L.669,2.5A1.342,1.342,0,0,1,2.01.178L93.721,53.128a1.341,1.341,0,0,1-.672,2.5Z" transform="translate(8.744 8.744)" fill="#f5aa28"/>
    <path id="Path_3335" data-name="Path 3335" d="M15.124,1.353A10.081,10.081,0,1,1,1.351,5.043,10.084,10.084,0,0,1,15.124,1.353Z" transform="translate(91.71 52.949)" fill="#f5aa28"/>
    <path id="Path_3336" data-name="Path 3336" d="M15.126,1.353a10.082,10.082,0,1,0,3.69,13.773A10.083,10.083,0,0,0,15.126,1.353Z" transform="translate(0 0)" fill="#f5aa28"/>
    <path id="Path_3337" data-name="Path 3337" d="M0,0" transform="translate(10.085 10.084)" fill="#f5aa28"/>
    <path id="Path_3338" data-name="Path 3338" d="M0,0" transform="translate(101.792 168.929)" fill="#f5aa28"/>
    <path id="Path_3339" data-name="Path 3339" d="M0,0" transform="translate(376.887 10.084)" fill="#f5aa28"/>
    <path id="Path_3340" data-name="Path 3340" d="M93.032,55.63a1.331,1.331,0,0,1-.669-.179L.67,2.5A1.342,1.342,0,0,1,2.011.178L93.7,53.128a1.341,1.341,0,0,1-.672,2.5Z" transform="translate(375.562 8.744)" fill="#f5aa28"/>
    <path id="Path_3341" data-name="Path 3341" d="M5.043,18.815a10.082,10.082,0,1,1,13.773-3.69A10.081,10.081,0,0,1,5.043,18.815Z" transform="translate(366.82 0)" fill="#f5aa28"/>
    <path id="Path_3342" data-name="Path 3342" d="M5.043,18.816A10.082,10.082,0,1,0,1.353,5.043,10.087,10.087,0,0,0,5.043,18.816Z" transform="translate(458.51 52.949)" fill="#f5aa28"/>
    <path id="Path_3343" data-name="Path 3343" d="M0,0" transform="translate(468.595 63.033)" fill="#f5aa28"/>
    <path id="Path_3344" data-name="Path 3344" d="M0,0" transform="translate(376.905 10.084)" fill="#f5aa28"/>
    <path id="Path_3348" data-name="Path 3348" d="M0,10.083A10.083,10.083,0,1,0,10.083,0,10.085,10.085,0,0,0,0,10.083Z" transform="translate(183.403 0.001)" fill="#f5aa28"/>
    <path id="Path_3349" data-name="Path 3349" d="M93.029,55.63a1.331,1.331,0,0,1-.669-.179L.67,2.5A1.342,1.342,0,0,1,2.011.178L93.7,53.128a1.341,1.341,0,0,1-.672,2.5Z" transform="translate(192.165 8.744)" fill="#f5aa28"/>
    <path id="Path_3350" data-name="Path 3350" d="M5.041,18.815a10.082,10.082,0,1,1,13.773-3.69A10.088,10.088,0,0,1,5.041,18.815Z" transform="translate(183.421 0)" fill="#f5aa28"/>
    <path id="Path_3351" data-name="Path 3351" d="M5.041,18.816A10.082,10.082,0,1,0,1.351,5.043,10.087,10.087,0,0,0,5.041,18.816Z" transform="translate(275.111 52.949)" fill="#f5aa28"/>
    <path id="Path_3352" data-name="Path 3352" d="M1.343,55.63a1.341,1.341,0,0,1-.672-2.5L92.378.178A1.342,1.342,0,0,1,93.719,2.5L2.011,55.452A1.34,1.34,0,0,1,1.343,55.63Z" transform="translate(283.855 8.744)" fill="#f5aa28"/>
    <path id="Path_3353" data-name="Path 3353" d="M15.124,18.816a10.082,10.082,0,1,1,3.69-13.773A10.087,10.087,0,0,1,15.124,18.816Z" transform="translate(275.111 52.949)" fill="#f5aa28"/>
    <path id="Path_3354" data-name="Path 3354" d="M15.126,18.815a10.082,10.082,0,1,0-13.773-3.69A10.083,10.083,0,0,0,15.126,18.815Z" transform="translate(366.82 0)" fill="#f5aa28"/>
    <path id="Path_3357" data-name="Path 3357" d="M0,10.083A10.083,10.083,0,1,0,10.083,0,10.085,10.085,0,0,0,0,10.083Z" transform="translate(183.421 0.001)" fill="#f5aa28"/>
    <path id="Path_3366" data-name="Path 3366" d="M0,10.083A10.083,10.083,0,1,0,10.083,0,10.085,10.085,0,0,0,0,10.083Z" transform="translate(0.002 0.001)" fill="#f5aa28"/>
    <path id="Path_3367" data-name="Path 3367" d="M93.029,55.63a1.331,1.331,0,0,1-.669-.179L.67,2.5A1.342,1.342,0,0,1,2.011.178L93.7,53.128a1.341,1.341,0,0,1-.672,2.5Z" transform="translate(8.764 8.744)" fill="#f5aa28"/>
    <path id="Path_3368" data-name="Path 3368" d="M5.041,18.815a10.082,10.082,0,1,1,13.773-3.69A10.087,10.087,0,0,1,5.041,18.815Z" transform="translate(0.02 0)" fill="#f5aa28"/>
    <path id="Path_3369" data-name="Path 3369" d="M5.04,18.816A10.083,10.083,0,1,0,1.353,5.043,10.086,10.086,0,0,0,5.04,18.816Z" transform="translate(91.711 52.949)" fill="#f5aa28"/>
    <path id="Path_3370" data-name="Path 3370" d="M1.343,55.63a1.341,1.341,0,0,1-.672-2.5L92.382.178A1.342,1.342,0,0,1,93.722,2.5L2.011,55.452A1.34,1.34,0,0,1,1.343,55.63Z" transform="translate(100.454 8.744)" fill="#f5aa28"/>
    <path id="Path_3371" data-name="Path 3371" d="M15.124,18.816a10.081,10.081,0,1,1,3.69-13.773A10.087,10.087,0,0,1,15.124,18.816Z" transform="translate(91.71 52.949)" fill="#f5aa28"/>
    <path id="Path_3372" data-name="Path 3372" d="M15.124,18.815a10.082,10.082,0,1,0-13.773-3.69A10.08,10.08,0,0,0,15.124,18.815Z" transform="translate(183.421 0)" fill="#f5aa28"/>
    <path id="Path_3375" data-name="Path 3375" d="M0,10.083A10.081,10.081,0,1,0,10.079,0,10.082,10.082,0,0,0,0,10.083Z" transform="translate(0.023 0.001)" fill="#f5aa28"/>
    <path id="Path_3383" data-name="Path 3383" d="M0,0" transform="translate(10.103 10.084)" fill="#f5aa28"/>
  </g>
</svg>
