<svg xmlns="http://www.w3.org/2000/svg" width="137.867" height="93" viewBox="0 0 137.867 93">
  <g id="Group_2485" data-name="Group 2485" transform="translate(-1411 -3955)">
    <circle id="Ellipse_27" data-name="Ellipse 27" cx="32" cy="32" r="32" transform="translate(1461 3971)" fill="#d8eff6"/>
    <g id="Ellipse_23" data-name="Ellipse 23" transform="translate(1411 3955)" fill="none" stroke="#7d88b3" stroke-width="5">
      <circle cx="46.5" cy="46.5" r="46.5" stroke="none"/>
      <circle cx="46.5" cy="46.5" r="44" fill="none"/>
    </g>
    <g id="Ellipse_24" data-name="Ellipse 24" transform="translate(1424 3968)" fill="none" stroke="#7d88b3" stroke-width="5" stroke-dasharray="15">
      <circle cx="33.5" cy="33.5" r="33.5" stroke="none"/>
      <circle cx="33.5" cy="33.5" r="31" fill="none"/>
    </g>
    <g id="Group_2248" data-name="Group 2248" transform="translate(0 241.47)">
      <g id="Group_2247" data-name="Group 2247" transform="translate(1348.71 -135.084)">
        <path id="Path_2727" data-name="Path 2727" d="M87.141,70.913a.323.323,0,0,1,.342-.342h8.68c4.941,0,7.273,2.469,7.273,6.21a5.192,5.192,0,0,1-2.709,4.94v.068a5.506,5.506,0,0,1,3.121,5.25c0,4.631-2.916,6.862-8.028,6.862H87.483a.324.324,0,0,1-.342-.344Zm8.922,9.366a3.081,3.081,0,1,0,0-6.142H91.394a.181.181,0,0,0-.2.2v5.732a.182.182,0,0,0,.2.205ZM91.394,90.333h4.874c2.265,0,3.533-1.3,3.533-3.259,0-1.922-1.269-3.227-3.533-3.227H91.394a.182.182,0,0,0-.2.207v6.072A.182.182,0,0,0,91.394,90.333Zm0,0" transform="translate(13 3813.555)" fill="#7d88b3"/>
        <path id="Path_2728" data-name="Path 2728" d="M104.361,62.723a1.962,1.962,0,0,1-1.963-1.961V56.836a1.963,1.963,0,0,1,3.925,0v3.925A1.962,1.962,0,0,1,104.361,62.723Zm0,0" transform="translate(2.127 3824.739)" fill="#7d88b3"/>
        <path id="Path_2729" data-name="Path 2729" d="M104.361,149.508a1.962,1.962,0,0,1-1.963-1.963v-1.962a1.963,1.963,0,0,1,3.925,0v1.962A1.962,1.962,0,0,1,104.361,149.508Zm0,0" transform="translate(2.127 3761.501)" fill="#7d88b3"/>
      </g>
    </g>
    <path id="Subtraction_1" data-name="Subtraction 1" d="M-66.765,84.38H-89.8c.67-1.2,1.3-2.451,1.858-3.717h20.4l6.764-6.877a1.865,1.865,0,0,1,1.325-.555h11.809a3.731,3.731,0,0,1,3.22-1.858,3.72,3.72,0,0,1,3.717,3.715,3.722,3.722,0,0,1-3.717,3.719,3.73,3.73,0,0,1-3.219-1.859H-58.674l-6.766,6.877A1.838,1.838,0,0,1-66.765,84.38Zm29.773-20.441H-76.015a1.861,1.861,0,0,1-1.859-1.859,1.861,1.861,0,0,1,1.859-1.858h39.023a1.861,1.861,0,0,1,1.859,1.858A1.861,1.861,0,0,1-36.992,63.939ZM-48.142,52.79a3.727,3.727,0,0,1-3.218-1.859h-19.2a1.847,1.847,0,0,1-1.6-.905l-4.956-8.293H-88.694c-.621-1.263-1.309-2.513-2.045-3.716h14.675a1.868,1.868,0,0,1,1.6.9l4.957,8.294h18.15a3.731,3.731,0,0,1,3.219-1.859,3.721,3.721,0,0,1,3.717,3.717A3.721,3.721,0,0,1-48.142,52.79Z" transform="translate(1584 3941)" fill="#7d88b3"/>
  </g>
</svg>
