<svg xmlns="http://www.w3.org/2000/svg" width="105.437" height="97.609" viewBox="0 0 105.437 97.609">
  <g id="Group_2486" data-name="Group 2486" transform="translate(-174.803 -3966.737)">
    <circle id="Ellipse_26" data-name="Ellipse 26" cx="38.694" cy="38.694" r="38.694" transform="translate(202.852 3967.055)" fill="#d8eff6"/>
    <g id="support" transform="translate(174.803 3966.737)">
      <g id="Group_2246" data-name="Group 2246" transform="translate(0)">
        <g id="Group_2245" data-name="Group 2245">
          <path id="Path_2712" data-name="Path 2712" d="M28.582,194.873c-3.186,0-6.117,1.784-6.117,4.842v15.928a6.244,6.244,0,0,0,6.117,5.989h7.9v-26.76h-7.9Z" transform="translate(-22.465 -147.343)" fill="#7d88b3"/>
          <path id="Path_2713" data-name="Path 2713" d="M188.075,333.322a8.156,8.156,0,0,0,.127,16.311,8.537,8.537,0,0,0,5.989-2.421,7.518,7.518,0,0,0,2.039-5.607A8.283,8.283,0,0,0,188.075,333.322Z" transform="translate(-141.564 -252.024)" fill="#7d88b3"/>
          <path id="Path_2714" data-name="Path 2714" d="M332.113,194.873h-6.626v26.76h6.626c1.4,0,6.117-.51,6.117-4.715V200.989A6.627,6.627,0,0,0,332.113,194.873Z" transform="translate(-251.579 -147.343)" fill="#7d88b3"/>
          <path id="Path_2715" data-name="Path 2715" d="M121.349,35.68v9.3h3.823v-9.3a35.679,35.679,0,1,0-71.359,0v9.3h3.823v-9.3a31.857,31.857,0,0,1,63.713,0Z" transform="translate(-46.167)" fill="#7d88b3"/>
          <path id="Path_2716" data-name="Path 2716" d="M273.42,311.265a21.28,21.28,0,0,1-18.732,8.283l-.255,3.7h2.294a24.466,24.466,0,0,0,19.751-9.812l3.313-4.587-3.058-2.166Z" transform="translate(-197.855 -231.878)" fill="#7d88b3"/>
        </g>
      </g>
    </g>
  </g>
</svg>
