<svg xmlns="http://www.w3.org/2000/svg" width="109" height="98" viewBox="0 0 109 98">
  <g id="Group_2483" data-name="Group 2483" transform="translate(-583 -3963)">
    <circle id="Ellipse_34" data-name="Ellipse 34" cx="39" cy="39" r="39" transform="translate(614 3963)" fill="#d8eff6"/>
    <g id="Group_2263" data-name="Group 2263" transform="translate(583 3992)">
      <g id="Subtraction_2" data-name="Subtraction 2" transform="translate(23 36)" fill="#7d88b3">
        <path d="M 63.3998908996582 30.5 L 2.600117921829224 30.5 C 2.860858917236328 27.26430130004883 3.629885673522949 24.12177467346191 4.895866870880127 21.12872314453125 C 6.431933403015137 17.49713325500488 8.631477355957031 14.23508930206299 11.43342208862305 11.43317794799805 C 14.23532199859619 8.631333351135254 17.49741172790527 6.431844234466553 21.12908935546875 4.895811080932617 C 24.88772201538086 3.306066751480103 28.88179969787598 2.5 33.0003662109375 2.5 C 37.11893463134766 2.5 41.11295700073242 3.306066751480103 44.87150955200195 4.895800113677979 C 48.50308990478516 6.431822299957275 51.76508712768555 8.631311416625977 54.56692123413086 11.43315601348877 C 57.36875534057617 14.23503303527832 59.56822204589844 17.49707794189453 61.10422134399414 21.12867736816406 C 62.37018585205078 24.1218090057373 63.13917541503906 27.26425933837891 63.3998908996582 30.5 Z" stroke="none"/>
        <path d="M 60.55731582641602 28 C 60.19384384155273 25.97925186157227 59.60747146606445 24.00764465332031 58.80170822143555 22.10256004333496 C 57.3917350769043 18.7689208984375 55.37217330932617 15.77397346496582 52.79916000366211 13.20092010498047 C 50.22610855102539 10.62785339355469 47.231201171875 8.608293533325195 43.89761352539062 7.198306560516357 C 40.44890594482422 5.73961353302002 36.78254699707031 5 33.00035858154297 5 C 29.21817398071289 5 25.55175971984863 5.739626884460449 22.10293388366699 7.198333263397217 C 18.7692928314209 8.608306884765625 15.77430629730225 10.62788009643555 13.20117378234863 13.20096015930176 C 10.62802696228027 15.77406692504883 8.608400344848633 18.7690258026123 7.198373317718506 22.10262680053711 C 6.392526626586914 24.00781440734863 5.806185245513916 25.9791316986084 5.442705631256104 28 L 60.55731582641602 28 M 66 33 L 0 33 C 0 28.54405403137207 0.8727999925613403 24.22260093688965 2.59335994720459 20.15482711791992 C 4.25547981262207 16.22522735595703 6.634946823120117 12.69608020782471 9.665666580200195 9.665399551391602 C 12.69638633728027 6.634746551513672 16.22557258605957 4.255346775054932 20.15521240234375 2.593293428421021 C 24.22366714477539 0.8725066781044006 28.54538726806641 0 33.00035858154297 0 C 37.45534515380859 0 41.77702713012695 0.8725066781044006 45.84538650512695 2.593293428421021 C 49.77494812011719 4.255346775054932 53.3040657043457 6.634746551513672 56.3347053527832 9.665399551391602 C 59.36531829833984 12.69605350494385 61.74469375610352 16.2252140045166 63.40674591064453 20.15482711791992 C 65.12740325927734 24.22299957275391 65.99989318847656 28.54445266723633 66 32.99917221069336 L 66 33 Z" stroke="none" fill="#7d88b3"/>
      </g>
      <circle id="Ellipse_33" data-name="Ellipse 33" cx="17" cy="17" r="17" transform="translate(59)" fill="#7d88b3" opacity="0.32"/>
      <circle id="Ellipse_29" data-name="Ellipse 29" cx="17" cy="17" r="17" transform="translate(39)" fill="#7d88b3"/>
      <g id="Subtraction_3" data-name="Subtraction 3" transform="translate(0 36)" fill="#7d88b3" opacity="0.32">
        <path d="M 63.3998908996582 30.5 L 2.600117921829224 30.5 C 2.860858917236328 27.26430130004883 3.629885673522949 24.12177467346191 4.895866870880127 21.12872314453125 C 6.431933403015137 17.49713325500488 8.631477355957031 14.23508930206299 11.43342208862305 11.43317794799805 C 14.23532199859619 8.631333351135254 17.49741172790527 6.431844234466553 21.12908935546875 4.895811080932617 C 24.88772201538086 3.306066751480103 28.88179969787598 2.5 33.0003662109375 2.5 C 37.11893463134766 2.5 41.11295700073242 3.306066751480103 44.87150955200195 4.895800113677979 C 48.50308990478516 6.431822299957275 51.76508712768555 8.631311416625977 54.56692123413086 11.43315601348877 C 57.36875534057617 14.23503303527832 59.56822204589844 17.49707794189453 61.10422134399414 21.12867736816406 C 62.37018585205078 24.1218090057373 63.13917541503906 27.26425933837891 63.3998908996582 30.5 Z" stroke="none"/>
        <path d="M 60.55731582641602 28 C 60.19384384155273 25.97925186157227 59.60747146606445 24.00764465332031 58.80170822143555 22.10256004333496 C 57.3917350769043 18.7689208984375 55.37217330932617 15.77397346496582 52.79916000366211 13.20092010498047 C 50.22610855102539 10.62785339355469 47.231201171875 8.608293533325195 43.89761352539062 7.198306560516357 C 40.44890594482422 5.73961353302002 36.78254699707031 5 33.00035858154297 5 C 29.21817398071289 5 25.55175971984863 5.739626884460449 22.10293388366699 7.198333263397217 C 18.7692928314209 8.608306884765625 15.77430629730225 10.62788009643555 13.20117378234863 13.20096015930176 C 10.62802696228027 15.77406692504883 8.608400344848633 18.7690258026123 7.198373317718506 22.10262680053711 C 6.392526626586914 24.00781440734863 5.806185245513916 25.9791316986084 5.442705631256104 28 L 60.55731582641602 28 M 66 33 L 0 33 C 0 28.54405403137207 0.8727999925613403 24.22260093688965 2.59335994720459 20.15482711791992 C 4.25547981262207 16.22522735595703 6.634946823120117 12.69608020782471 9.665666580200195 9.665399551391602 C 12.69638633728027 6.634746551513672 16.22557258605957 4.255346775054932 20.15521240234375 2.593293428421021 C 24.22366714477539 0.8725066781044006 28.54538726806641 0 33.00035858154297 0 C 37.45534515380859 0 41.77702713012695 0.8725066781044006 45.84538650512695 2.593293428421021 C 49.77494812011719 4.255346775054932 53.3040657043457 6.634746551513672 56.3347053527832 9.665399551391602 C 59.36531829833984 12.69605350494385 61.74469375610352 16.2252140045166 63.40674591064453 20.15482711791992 C 65.12740325927734 24.22299957275391 65.99989318847656 28.54445266723633 66 32.99917221069336 L 66 33 Z" stroke="none" fill="#7d88b3"/>
      </g>
      <g id="Subtraction_4" data-name="Subtraction 4" transform="translate(43 36)" fill="#7d88b3" opacity="0.32">
        <path d="M 63.3998908996582 30.5 L 2.600117921829224 30.5 C 2.860858917236328 27.26430130004883 3.629885673522949 24.12177467346191 4.895866870880127 21.12872314453125 C 6.431933403015137 17.49713325500488 8.631477355957031 14.23508930206299 11.43342208862305 11.43317794799805 C 14.23532199859619 8.631333351135254 17.49741172790527 6.431844234466553 21.12908935546875 4.895811080932617 C 24.88772201538086 3.306066751480103 28.88179969787598 2.5 33.0003662109375 2.5 C 37.11893463134766 2.5 41.11295700073242 3.306066751480103 44.87150955200195 4.895800113677979 C 48.50308990478516 6.431822299957275 51.76508712768555 8.631311416625977 54.56692123413086 11.43315601348877 C 57.36875534057617 14.23503303527832 59.56822204589844 17.49707794189453 61.10422134399414 21.12867736816406 C 62.37018585205078 24.1218090057373 63.13917541503906 27.26425933837891 63.3998908996582 30.5 Z" stroke="none"/>
        <path d="M 60.55731582641602 28 C 60.19384384155273 25.97925186157227 59.60747146606445 24.00764465332031 58.80170822143555 22.10256004333496 C 57.3917350769043 18.7689208984375 55.37217330932617 15.77397346496582 52.79916000366211 13.20092010498047 C 50.22610855102539 10.62785339355469 47.231201171875 8.608293533325195 43.89761352539062 7.198306560516357 C 40.44890594482422 5.73961353302002 36.78254699707031 5 33.00035858154297 5 C 29.21817398071289 5 25.55175971984863 5.739626884460449 22.10293388366699 7.198333263397217 C 18.7692928314209 8.608306884765625 15.77430629730225 10.62788009643555 13.20117378234863 13.20096015930176 C 10.62802696228027 15.77406692504883 8.608400344848633 18.7690258026123 7.198373317718506 22.10262680053711 C 6.392526626586914 24.00781440734863 5.806185245513916 25.9791316986084 5.442705631256104 28 L 60.55731582641602 28 M 66 33 L 0 33 C 0 28.54405403137207 0.8727999925613403 24.22260093688965 2.59335994720459 20.15482711791992 C 4.25547981262207 16.22522735595703 6.634946823120117 12.69608020782471 9.665666580200195 9.665399551391602 C 12.69638633728027 6.634746551513672 16.22557258605957 4.255346775054932 20.15521240234375 2.593293428421021 C 24.22366714477539 0.8725066781044006 28.54538726806641 0 33.00035858154297 0 C 37.45534515380859 0 41.77702713012695 0.8725066781044006 45.84538650512695 2.593293428421021 C 49.77494812011719 4.255346775054932 53.3040657043457 6.634746551513672 56.3347053527832 9.665399551391602 C 59.36531829833984 12.69605350494385 61.74469375610352 16.2252140045166 63.40674591064453 20.15482711791992 C 65.12740325927734 24.22299957275391 65.99989318847656 28.54445266723633 66 32.99917221069336 L 66 33 Z" stroke="none" fill="#7d88b3"/>
      </g>
      <circle id="Ellipse_31" data-name="Ellipse 31" cx="17" cy="17" r="17" transform="translate(16)" fill="#7d88b3" opacity="0.32"/>
    </g>
  </g>
</svg>
