<svg xmlns="http://www.w3.org/2000/svg" width="27.353" height="27.353" viewBox="0 0 27.353 27.353">
  <path id="linkedin" d="M8.548,22.6H4.809V10.524h3.74Zm.373-15.92A2.19,2.19,0,1,0,6.732,8.868,2.191,2.191,0,0,0,8.922,6.678Zm13.623,9.278c0-3.241-.685-5.645-4.471-5.645a3.881,3.881,0,0,0-3.539,1.856h0V10.524H10.9V22.6h3.633V16.6c0-1.57.4-3.091,2.346-3.091,1.919,0,1.982,1.8,1.982,3.191V22.6h3.686Zm4.808,8.192V3.205A3.209,3.209,0,0,0,24.148,0H3.206A3.209,3.209,0,0,0,0,3.205V24.147a3.209,3.209,0,0,0,3.205,3.205H24.148A3.209,3.209,0,0,0,27.353,24.147ZM24.148,2.137a1.07,1.07,0,0,1,1.068,1.068V24.147a1.07,1.07,0,0,1-1.068,1.068H3.206a1.07,1.07,0,0,1-1.068-1.068V3.205A1.07,1.07,0,0,1,3.206,2.137Zm0,0" transform="translate(0)" fill="#fff"/>
</svg>
