<svg xmlns="http://www.w3.org/2000/svg" width="29.071" height="24.595" viewBox="0 0 29.071 24.595">
  <path id="social-media" d="M28.622.673A1.887,1.887,0,0,0,27.124,0a2.938,2.938,0,0,0-1.045.208L1.471,9.6C.165,10.1-.011,10.848,0,11.249s.229,1.138,1.561,1.562l.024.007,5.1,1.461,2.76,7.894a2.383,2.383,0,0,0,2.205,1.745,2.609,2.609,0,0,0,1.765-.751l3.157-2.907,4.579,3.687h0l.043.035.012.01a2.643,2.643,0,0,0,1.607.6h0a2.256,2.256,0,0,0,2.151-2L29,2.687A2.378,2.378,0,0,0,28.622.673ZM8.4,14l9.848-5.031-6.132,6.516a.85.85,0,0,0-.207.379l-1.182,4.789Zm3.868,7.911c-.041.037-.082.071-.123.1l1.1-4.443,2,1.607ZM27.335,2.349,23.3,22.258c-.039.191-.163.634-.482.634a.993.993,0,0,1-.558-.242l-5.189-4.178,0,0-3.088-2.486,8.867-9.422a.852.852,0,0,0-1.008-1.342L7.26,12.67,2.086,11.19,26.686,1.8a1.249,1.249,0,0,1,.438-.1c.052,0,.145.006.179.049a.812.812,0,0,1,.031.6Zm0,0" transform="translate(0)" fill="#fff"/>
</svg>
