<svg xmlns="http://www.w3.org/2000/svg" width="34.452" height="28.284" viewBox="0 0 34.452 28.284">
  <path id="social-media_1_" data-name="social-media (1)" d="M.63,27.409a20.2,20.2,0,0,0,10.847,3.126A19.838,19.838,0,0,0,31.6,10.365c1.366-1.169,2.974-3.4,2.974-5.577a1.089,1.089,0,0,0-1.639-.939,4.5,4.5,0,0,1-3.658.614,7.769,7.769,0,0,0-9.2-1.239,7.475,7.475,0,0,0-4.059,7.006A18.026,18.026,0,0,1,4.325,3.843a1.089,1.089,0,0,0-1.778.145,7.582,7.582,0,0,0-.17,7.488A1.132,1.132,0,0,0,1.431,12.6,7.673,7.673,0,0,0,4.1,18.4a1.086,1.086,0,0,0-.279,1.127,7.81,7.81,0,0,0,4.42,4.735,12.666,12.666,0,0,1-6.9,1.152,1.088,1.088,0,0,0-.717,2Zm11.145-2.776a1.089,1.089,0,0,0-.64-1.95,5.674,5.674,0,0,1-4.456-2.318,7.673,7.673,0,0,0,1.485-.238,1.089,1.089,0,0,0-.07-2.116,5.584,5.584,0,0,1-4.231-3.8,7.508,7.508,0,0,0,1.659.22,1.089,1.089,0,0,0,.619-2,5.405,5.405,0,0,1-2.315-5.9,20.226,20.226,0,0,0,13.4,5.981,1.086,1.086,0,0,0,1.113-1.33A5.308,5.308,0,0,1,21.109,5.14a5.562,5.562,0,0,1,6.8,1.033c.648.683,2.836.709,3.948.45a7.012,7.012,0,0,1-1.984,2.334,1.088,1.088,0,0,0-.463.944,17.689,17.689,0,0,1-4.871,13,17.815,17.815,0,0,1-13.061,5.46,18.269,18.269,0,0,1-5.862-.96,14.691,14.691,0,0,0,6.158-2.765Z" transform="translate(-0.124 -2.251)" fill="#fff"/>
</svg>
