<svg id="_034-instagram" data-name="034-instagram" xmlns="http://www.w3.org/2000/svg" width="27.037" height="27.037" viewBox="0 0 27.037 27.037">
  <g id="Group_2281" data-name="Group 2281" transform="translate(0)">
    <g id="Group_2280" data-name="Group 2280">
      <path id="Path_2743" data-name="Path 2743" d="M18.588,0H8.449A8.45,8.45,0,0,0,0,8.449V18.588a8.45,8.45,0,0,0,8.449,8.449H18.588a8.45,8.45,0,0,0,8.449-8.449V8.449A8.45,8.45,0,0,0,18.588,0ZM24.5,18.588A5.921,5.921,0,0,1,18.588,24.5H8.449a5.921,5.921,0,0,1-5.914-5.914V8.449A5.921,5.921,0,0,1,8.449,2.535H18.588A5.921,5.921,0,0,1,24.5,8.449Z" fill="#fff"/>
    </g>
  </g>
  <g id="Group_2283" data-name="Group 2283" transform="translate(6.759 6.759)">
    <g id="Group_2282" data-name="Group 2282">
      <path id="Path_2744" data-name="Path 2744" d="M134.759,128a6.759,6.759,0,1,0,6.759,6.759A6.759,6.759,0,0,0,134.759,128Zm0,10.984a4.225,4.225,0,1,1,4.225-4.225A4.23,4.23,0,0,1,134.759,138.984Z" transform="translate(-128 -128)" fill="#fff"/>
    </g>
  </g>
  <g id="Group_2285" data-name="Group 2285" transform="translate(19.884 5.352)">
    <g id="Group_2284" data-name="Group 2284">
      <ellipse id="Ellipse_36" data-name="Ellipse 36" cx="0.901" cy="0.901" rx="0.901" ry="0.901" fill="#fff"/>
    </g>
  </g>
</svg>
