<svg xmlns="http://www.w3.org/2000/svg" width="1640" height="787.765" viewBox="0 0 1640 787.765">
  <g id="Group_2307" data-name="Group 2307" opacity="0.63">
    <path id="Path_3079" data-name="Path 3079" d="M0,0" transform="translate(13.966 140.974) rotate(-90)" fill="#f5aa28"/>
    <path id="Path_3080" data-name="Path 3080" d="M128.859,0a1.857,1.857,0,0,0-.926.248L.928,73.577A1.856,1.856,0,0,0,2.785,76.79l127-73.329A1.855,1.855,0,0,0,128.859,0Z" transform="translate(12.109 269.354) rotate(-90)" fill="#f5aa28"/>
    <path id="Path_3081" data-name="Path 3081" d="M20.948,26.058a13.963,13.963,0,1,0-19.074-5.11A13.97,13.97,0,0,0,20.948,26.058Z" transform="translate(0 154.911) rotate(-90)" fill="#f5aa28"/>
    <path id="Path_3082" data-name="Path 3082" d="M20.947,26.059a13.965,13.965,0,1,1,5.11-19.074A13.966,13.966,0,0,1,20.947,26.059Z" transform="translate(73.327 281.199) rotate(-90)" fill="#f5aa28"/>
    <path id="Path_3084" data-name="Path 3084" d="M6.983,26.059A13.965,13.965,0,1,0,1.873,6.986,13.965,13.965,0,0,0,6.983,26.059Z" transform="translate(73.327 281.199) rotate(-90)" fill="#f5aa28"/>
    <path id="Path_3087" data-name="Path 3087" d="M0,0" transform="translate(307.277 140.974) rotate(-90)" fill="#f5aa28"/>
    <path id="Path_3088" data-name="Path 3088" d="M1.859,0A1.858,1.858,0,0,0,.928,3.466L127.938,76.79a1.856,1.856,0,1,0,1.857-3.214L2.785.248A1.857,1.857,0,0,0,1.859,0Z" transform="translate(232.092 269.383) rotate(-90)" fill="#f5aa28"/>
    <path id="Path_3089" data-name="Path 3089" d="M6.981,26.058A13.963,13.963,0,1,0,1.871,6.984,13.965,13.965,0,0,0,6.981,26.058Z" transform="translate(293.311 154.937) rotate(-90)" fill="#f5aa28"/>
    <path id="Path_3090" data-name="Path 3090" d="M6.986,26.058a13.962,13.962,0,1,1,19.069-5.11A13.967,13.967,0,0,1,6.986,26.058Z" transform="translate(219.982 281.227) rotate(-90)" fill="#f5aa28"/>
    <path id="Path_3091" data-name="Path 3091" d="M1.862,0A1.858,1.858,0,0,0,0,1.857L0,148.51a1.857,1.857,0,1,0,3.714,0L3.719,1.857A1.858,1.858,0,0,0,1.862,0Z" transform="translate(85.438 269.111) rotate(-90)" fill="#f5aa28"/>
    <path id="Path_3092" data-name="Path 3092" d="M0,13.964A13.961,13.961,0,1,0,13.964,0,13.962,13.962,0,0,0,0,13.964Z" transform="translate(219.985 281.223) rotate(-90)" fill="#f5aa28"/>
    <path id="Path_3093" data-name="Path 3093" d="M0,13.959A13.964,13.964,0,1,1,13.964,27.922,13.962,13.962,0,0,1,0,13.959Z" transform="translate(73.331 281.223) rotate(-90)" fill="#f5aa28"/>
    <path id="Path_3094" data-name="Path 3094" d="M128.834,0a1.843,1.843,0,0,0-.926.248L.928,73.577A1.856,1.856,0,0,0,2.785,76.79L129.765,3.461A1.855,1.855,0,0,0,128.834,0Z" transform="translate(12.109 269.354) rotate(-90)" fill="#f5aa28"/>
    <path id="Path_3095" data-name="Path 3095" d="M6.984,1.874A13.961,13.961,0,1,0,26.058,6.98,13.959,13.959,0,0,0,6.984,1.874Z" transform="translate(73.329 281.201) rotate(-90)" fill="#f5aa28"/>
    <path id="Path_3096" data-name="Path 3096" d="M6.981,1.874a13.963,13.963,0,1,1-5.11,19.074A13.961,13.961,0,0,1,6.981,1.874Z" transform="translate(0 154.937) rotate(-90)" fill="#f5aa28"/>
    <path id="Path_3097" data-name="Path 3097" d="M0,0" transform="translate(13.966 140.974) rotate(-90)" fill="#f5aa28"/>
    <path id="Path_3098" data-name="Path 3098" d="M1.857,0A1.857,1.857,0,0,0,0,1.857V148.51a1.857,1.857,0,1,0,3.714,0V1.857A1.858,1.858,0,0,0,1.857,0Z" transform="translate(85.438 269.081) rotate(-90)" fill="#f5aa28"/>
    <path id="Path_3099" data-name="Path 3099" d="M0,13.964A13.964,13.964,0,1,0,13.964,0,13.966,13.966,0,0,0,0,13.964Z" transform="translate(219.985 281.198) rotate(-90)" fill="#f5aa28"/>
    <path id="Path_3100" data-name="Path 3100" d="M0,13.964A13.964,13.964,0,1,1,13.964,27.922,13.963,13.963,0,0,1,0,13.964Z" transform="translate(73.331 281.198) rotate(-90)" fill="#f5aa28"/>
    <path id="Path_3102" data-name="Path 3102" d="M20.947,26.058a13.963,13.963,0,1,0-19.074-5.11A13.965,13.965,0,0,0,20.947,26.058Z" transform="translate(219.982 281.199) rotate(-90)" fill="#f5aa28"/>
    <path id="Path_3108" data-name="Path 3108" d="M20.947,1.871A13.965,13.965,0,1,1,1.873,6.986,13.965,13.965,0,0,1,20.947,1.871Z" transform="translate(73.327 281.199) rotate(-90)" fill="#f5aa28"/>
    <path id="Path_3109" data-name="Path 3109" d="M0,0" transform="translate(526.894 13.964) rotate(-90)" fill="#f5aa28"/>
    <path id="Path_3110" data-name="Path 3110" d="M1.859,0A1.858,1.858,0,0,0,.928,3.466l127,73.324a1.856,1.856,0,1,0,1.857-3.214L2.785.248A1.856,1.856,0,0,0,1.859,0Z" transform="translate(451.745 142.828) rotate(-90)" fill="#f5aa28"/>
    <path id="Path_3111" data-name="Path 3111" d="M6.984,26.058A13.963,13.963,0,1,0,1.874,6.984,13.97,13.97,0,0,0,6.984,26.058Z" transform="translate(512.932 27.931) rotate(-90)" fill="#f5aa28"/>
    <path id="Path_3112" data-name="Path 3112" d="M6.981,26.058a13.963,13.963,0,1,1,19.074-5.11A13.969,13.969,0,0,1,6.981,26.058Z" transform="translate(439.655 154.937) rotate(-90)" fill="#f5aa28"/>
    <path id="Path_3113" data-name="Path 3113" d="M1.862,0A1.858,1.858,0,0,0,0,1.857L0,148.515a1.857,1.857,0,1,0,3.714,0l0-146.658A1.858,1.858,0,0,0,1.862,0Z" transform="translate(305.183 142.831) rotate(-90)" fill="#f5aa28"/>
    <path id="Path_3114" data-name="Path 3114" d="M0,13.964A13.964,13.964,0,1,0,13.964,0,13.967,13.967,0,0,0,0,13.964Z" transform="translate(439.657 154.938) rotate(-90)" fill="#f5aa28"/>
    <path id="Path_3115" data-name="Path 3115" d="M0,13.964A13.961,13.961,0,1,1,13.959,27.922,13.959,13.959,0,0,1,0,13.964Z" transform="translate(293.313 154.933) rotate(-90)" fill="#f5aa28"/>
    <path id="Path_3116" data-name="Path 3116" d="M0,0" transform="translate(307.277 140.945) rotate(-90)" fill="#f5aa28"/>
    <path id="Path_3117" data-name="Path 3117" d="M1.857,0A1.858,1.858,0,0,0,0,1.857V148.515a1.857,1.857,0,1,0,3.714,0V1.857A1.858,1.858,0,0,0,1.857,0Z" transform="translate(305.183 142.8) rotate(-90)" fill="#f5aa28"/>
    <path id="Path_3118" data-name="Path 3118" d="M0,13.964A13.961,13.961,0,1,0,13.964,0,13.963,13.963,0,0,0,0,13.964Z" transform="translate(439.657 154.908) rotate(-90)" fill="#f5aa28"/>
    <path id="Path_3119" data-name="Path 3119" d="M0,13.964A13.961,13.961,0,1,1,13.964,27.922,13.96,13.96,0,0,1,0,13.964Z" transform="translate(293.313 154.908) rotate(-90)" fill="#f5aa28"/>
    <path id="Path_3120" data-name="Path 3120" d="M128.859,0a1.857,1.857,0,0,0-.926.248L.928,73.577A1.856,1.856,0,0,0,2.785,76.79l127-73.324A1.858,1.858,0,0,0,128.859,0Z" transform="translate(451.745 269.354) rotate(-90)" fill="#f5aa28"/>
    <path id="Path_3121" data-name="Path 3121" d="M20.948,26.058a13.963,13.963,0,1,0-19.074-5.11A13.969,13.969,0,0,0,20.948,26.058Z" transform="translate(439.655 154.911) rotate(-90)" fill="#f5aa28"/>
    <path id="Path_3122" data-name="Path 3122" d="M20.947,26.058a13.963,13.963,0,1,1,5.11-19.074A13.969,13.969,0,0,1,20.947,26.058Z" transform="translate(512.932 281.199) rotate(-90)" fill="#f5aa28"/>
    <path id="Path_3124" data-name="Path 3124" d="M6.983,26.058A13.963,13.963,0,1,0,1.873,6.984,13.968,13.968,0,0,0,6.983,26.058Z" transform="translate(512.932 281.199) rotate(-90)" fill="#f5aa28"/>
    <path id="Path_3131" data-name="Path 3131" d="M6.984,1.874a13.963,13.963,0,1,1-5.11,19.074A13.961,13.961,0,0,1,6.984,1.874Z" transform="translate(219.982 281.201) rotate(-90)" fill="#f5aa28"/>
    <path id="Path_3132" data-name="Path 3132" d="M1.859,0A1.858,1.858,0,0,0,.928,3.466l127,73.324a1.856,1.856,0,1,0,1.857-3.214L2.785.248A1.856,1.856,0,0,0,1.859,0Z" transform="translate(232.092 269.354) rotate(-90)" fill="#f5aa28"/>
    <path id="Path_3133" data-name="Path 3133" d="M20.947,1.874a13.963,13.963,0,1,0,5.11,19.074A13.96,13.96,0,0,0,20.947,1.874Z" transform="translate(219.982 281.199) rotate(-90)" fill="#f5aa28"/>
    <path id="Path_3134" data-name="Path 3134" d="M20.948,1.874A13.963,13.963,0,1,1,1.874,6.984,13.963,13.963,0,0,1,20.948,1.874Z" transform="translate(293.311 154.911) rotate(-90)" fill="#f5aa28"/>
    <path id="Path_3143" data-name="Path 3143" d="M0,0" transform="translate(673.446 13.995) rotate(-90)" fill="#f5aa28"/>
    <path id="Path_3144" data-name="Path 3144" d="M1.862,0A1.858,1.858,0,0,0,0,1.857L0,148.51a1.857,1.857,0,0,0,3.714,0l0-146.653A1.858,1.858,0,0,0,1.862,0Z" transform="translate(525.002 15.851) rotate(-90)" fill="#f5aa28"/>
    <path id="Path_3145" data-name="Path 3145" d="M0,13.964A13.964,13.964,0,1,0,13.964,0,13.966,13.966,0,0,0,0,13.964Z" transform="translate(659.484 27.958) rotate(-90)" fill="#f5aa28"/>
    <path id="Path_3146" data-name="Path 3146" d="M0,13.964A13.961,13.961,0,1,1,13.964,27.922,13.963,13.963,0,0,1,0,13.964Z" transform="translate(512.934 27.952) rotate(-90)" fill="#f5aa28"/>
    <path id="Path_3147" data-name="Path 3147" d="M0,0" transform="translate(526.894 13.964) rotate(-90)" fill="#f5aa28"/>
    <path id="Path_3148" data-name="Path 3148" d="M1.857,0A1.858,1.858,0,0,0,0,1.857V148.51a1.857,1.857,0,0,0,3.714,0V1.857A1.858,1.858,0,0,0,1.857,0Z" transform="translate(525.002 15.821) rotate(-90)" fill="#f5aa28"/>
    <path id="Path_3149" data-name="Path 3149" d="M0,13.964A13.964,13.964,0,1,0,13.964,0,13.966,13.966,0,0,0,0,13.964Z" transform="translate(659.484 27.927) rotate(-90)" fill="#f5aa28"/>
    <path id="Path_3150" data-name="Path 3150" d="M0,13.964A13.964,13.964,0,1,1,13.964,27.922,13.963,13.963,0,0,1,0,13.964Z" transform="translate(512.934 27.927) rotate(-90)" fill="#f5aa28"/>
    <path id="Path_3151" data-name="Path 3151" d="M0,0" transform="translate(673.446 13.964) rotate(-90)" fill="#f5aa28"/>
    <path id="Path_3152" data-name="Path 3152" d="M0,0" transform="translate(673.446 267.247) rotate(-90)" fill="#f5aa28"/>
    <path id="Path_3153" data-name="Path 3153" d="M1.862,0A1.858,1.858,0,0,0,0,1.857L0,148.51a1.857,1.857,0,0,0,3.714,0L3.719,1.857A1.858,1.858,0,0,0,1.862,0Z" transform="translate(525.002 269.111) rotate(-90)" fill="#f5aa28"/>
    <path id="Path_3154" data-name="Path 3154" d="M0,13.964A13.961,13.961,0,1,0,13.964,0,13.962,13.962,0,0,0,0,13.964Z" transform="translate(659.484 281.223) rotate(-90)" fill="#f5aa28"/>
    <path id="Path_3155" data-name="Path 3155" d="M0,13.964A13.964,13.964,0,1,1,13.964,27.922,13.963,13.963,0,0,1,0,13.964Z" transform="translate(512.934 281.223) rotate(-90)" fill="#f5aa28"/>
    <path id="Path_3156" data-name="Path 3156" d="M128.834,0a1.843,1.843,0,0,0-.926.248L.928,73.577A1.856,1.856,0,0,0,2.785,76.79L129.765,3.466A1.858,1.858,0,0,0,128.834,0Z" transform="translate(451.745 269.354) rotate(-90)" fill="#f5aa28"/>
    <path id="Path_3157" data-name="Path 3157" d="M6.984,1.874A13.963,13.963,0,1,0,26.058,6.98,13.959,13.959,0,0,0,6.984,1.874Z" transform="translate(512.932 281.201) rotate(-90)" fill="#f5aa28"/>
    <path id="Path_3158" data-name="Path 3158" d="M6.981,1.874a13.963,13.963,0,1,1-5.11,19.074A13.961,13.961,0,0,1,6.981,1.874Z" transform="translate(439.655 154.937) rotate(-90)" fill="#f5aa28"/>
    <path id="Path_3159" data-name="Path 3159" d="M1.859,0A1.858,1.858,0,0,0,.928,3.466l127,73.324a1.856,1.856,0,1,0,1.857-3.214L2.785.248A1.856,1.856,0,0,0,1.859,0Z" transform="translate(451.745 142.828) rotate(-90)" fill="#f5aa28"/>
    <path id="Path_3160" data-name="Path 3160" d="M20.945,1.874a13.963,13.963,0,1,0,5.11,19.074A13.961,13.961,0,0,0,20.945,1.874Z" transform="translate(439.655 154.937) rotate(-90)" fill="#f5aa28"/>
    <path id="Path_3161" data-name="Path 3161" d="M20.948,1.874A13.963,13.963,0,1,1,1.874,6.984,13.968,13.968,0,0,1,20.948,1.874Z" transform="translate(512.932 27.931) rotate(-90)" fill="#f5aa28"/>
    <path id="Path_3162" data-name="Path 3162" d="M1.857,0A1.858,1.858,0,0,0,0,1.857V148.51a1.857,1.857,0,0,0,3.714,0V1.857A1.858,1.858,0,0,0,1.857,0Z" transform="translate(525.002 269.081) rotate(-90)" fill="#f5aa28"/>
    <path id="Path_3163" data-name="Path 3163" d="M0,13.964A13.964,13.964,0,1,0,13.964,0,13.966,13.966,0,0,0,0,13.964Z" transform="translate(659.484 281.198) rotate(-90)" fill="#f5aa28"/>
    <path id="Path_3164" data-name="Path 3164" d="M0,13.964A13.964,13.964,0,1,1,13.964,27.922,13.963,13.963,0,0,1,0,13.964Z" transform="translate(512.934 281.198) rotate(-90)" fill="#f5aa28"/>
    <path id="Path_3165" data-name="Path 3165" d="M128.864,0a1.843,1.843,0,0,0-.926.248L.928,73.577A1.856,1.856,0,1,0,2.785,76.79L129.8,3.466A1.858,1.858,0,0,0,128.864,0Z" transform="translate(671.568 395.947) rotate(-90)" fill="#f5aa28"/>
    <path id="Path_3166" data-name="Path 3166" d="M20.947,26.057a13.963,13.963,0,1,0-19.074-5.11A13.964,13.964,0,0,0,20.947,26.057Z" transform="translate(659.483 281.199) rotate(-90)" fill="#f5aa28"/>
    <path id="Path_3167" data-name="Path 3167" d="M20.945,26.058a13.962,13.962,0,1,1,5.11-19.074A13.97,13.97,0,0,1,20.945,26.058Z" transform="translate(732.759 407.848) rotate(-90)" fill="#f5aa28"/>
    <path id="Path_3169" data-name="Path 3169" d="M6.986,26.058A13.962,13.962,0,1,0,1.871,6.984,13.963,13.963,0,0,0,6.986,26.058Z" transform="translate(732.759 407.848) rotate(-90)" fill="#f5aa28"/>
    <path id="Path_3179" data-name="Path 3179" d="M20.947,1.874A13.963,13.963,0,1,1,1.873,6.984,13.963,13.963,0,0,1,20.947,1.874Z" transform="translate(512.932 281.199) rotate(-90)" fill="#f5aa28"/>
    <path id="Path_3188" data-name="Path 3188" d="M0,0" transform="translate(673.446 13.964) rotate(-90)" fill="#f5aa28"/>
    <path id="Path_3189" data-name="Path 3189" d="M0,0" transform="translate(673.446 13.964) rotate(-90)" fill="#f5aa28"/>
    <path id="Path_3193" data-name="Path 3193" d="M6.986,26.057a13.962,13.962,0,1,1,19.069-5.11A13.965,13.965,0,0,1,6.986,26.057Z" transform="translate(879.31 407.848) rotate(-90)" fill="#f5aa28"/>
    <path id="Path_3194" data-name="Path 3194" d="M1.862,0A1.857,1.857,0,0,0,0,1.857L0,148.515a1.857,1.857,0,1,0,3.714,0L3.719,1.857A1.857,1.857,0,0,0,1.862,0Z" transform="translate(744.812 395.742) rotate(-90)" fill="#f5aa28"/>
    <path id="Path_3195" data-name="Path 3195" d="M0,13.964A13.961,13.961,0,1,0,13.959,0,13.959,13.959,0,0,0,0,13.964Z" transform="translate(879.312 407.843) rotate(-90)" fill="#f5aa28"/>
    <path id="Path_3196" data-name="Path 3196" d="M0,13.964A13.964,13.964,0,1,1,13.964,27.922,13.966,13.966,0,0,1,0,13.964Z" transform="translate(732.762 407.843) rotate(-90)" fill="#f5aa28"/>
    <path id="Path_3197" data-name="Path 3197" d="M128.839,0a1.843,1.843,0,0,0-.926.248L.928,73.577A1.856,1.856,0,1,0,2.785,76.79L129.77,3.466A1.858,1.858,0,0,0,128.839,0Z" transform="translate(671.568 395.923) rotate(-90)" fill="#f5aa28"/>
    <path id="Path_3198" data-name="Path 3198" d="M6.984,1.874a13.963,13.963,0,1,0,19.074,5.11A13.959,13.959,0,0,0,6.984,1.874Z" transform="translate(732.759 407.822) rotate(-90)" fill="#f5aa28"/>
    <path id="Path_3199" data-name="Path 3199" d="M6.984,1.874a13.963,13.963,0,1,1-5.11,19.074A13.961,13.961,0,0,1,6.984,1.874Z" transform="translate(659.482 281.201) rotate(-90)" fill="#f5aa28"/>
    <path id="Path_3200" data-name="Path 3200" d="M0,0" transform="translate(673.446 267.222) rotate(-90)" fill="#f5aa28"/>
    <path id="Path_3201" data-name="Path 3201" d="M1.857,0A1.857,1.857,0,0,0,0,1.857V148.515a1.857,1.857,0,1,0,3.714,0V1.857A1.857,1.857,0,0,0,1.857,0Z" transform="translate(744.812 395.712) rotate(-90)" fill="#f5aa28"/>
    <path id="Path_3202" data-name="Path 3202" d="M0,13.964A13.964,13.964,0,1,0,13.964,0,13.967,13.967,0,0,0,0,13.964Z" transform="translate(879.312 407.819) rotate(-90)" fill="#f5aa28"/>
    <path id="Path_3203" data-name="Path 3203" d="M0,13.964A13.964,13.964,0,1,1,13.964,27.922,13.966,13.966,0,0,1,0,13.964Z" transform="translate(732.762 407.819) rotate(-90)" fill="#f5aa28"/>
    <path id="Path_3204" data-name="Path 3204" d="M128.859,0a1.856,1.856,0,0,0-.926.248L.928,73.577A1.856,1.856,0,0,0,2.785,76.79l127-73.324A1.858,1.858,0,0,0,128.859,0Z" transform="translate(891.39 522.511) rotate(-90)" fill="#f5aa28"/>
    <path id="Path_3205" data-name="Path 3205" d="M20.948,26.057a13.963,13.963,0,1,0-19.074-5.11A13.963,13.963,0,0,0,20.948,26.057Z" transform="translate(879.31 407.822) rotate(-90)" fill="#f5aa28"/>
    <path id="Path_3206" data-name="Path 3206" d="M20.945,26.058a13.963,13.963,0,1,1,5.11-19.074A13.97,13.97,0,0,1,20.945,26.058Z" transform="translate(952.587 534.468) rotate(-90)" fill="#f5aa28"/>
    <path id="Path_3208" data-name="Path 3208" d="M6.981,26.058A13.963,13.963,0,1,0,1.871,6.984,13.968,13.968,0,0,0,6.981,26.058Z" transform="translate(952.587 534.468) rotate(-90)" fill="#f5aa28"/>
    <path id="Path_3218" data-name="Path 3218" d="M20.948,1.874A13.963,13.963,0,1,1,1.874,6.984,13.963,13.963,0,0,1,20.948,1.874Z" transform="translate(732.759 407.822) rotate(-90)" fill="#f5aa28"/>
    <path id="Path_3224" data-name="Path 3224" d="M0,0" transform="translate(1113.106 267.247) rotate(-90)" fill="#f5aa28"/>
    <path id="Path_3226" data-name="Path 3226" d="M0,13.964A13.961,13.961,0,1,0,13.964,0,13.962,13.962,0,0,0,0,13.964Z" transform="translate(1099.139 281.223) rotate(-90)" fill="#f5aa28"/>
    <path id="Path_3230" data-name="Path 3230" d="M0,13.964A13.964,13.964,0,1,0,13.964,0,13.967,13.967,0,0,0,0,13.964Z" transform="translate(1099.139 281.198) rotate(-90)" fill="#f5aa28"/>
    <path id="Path_3231" data-name="Path 3231" d="M128.864,0a1.842,1.842,0,0,0-.926.248L.928,73.577A1.858,1.858,0,0,0,2.785,76.8L129.8,3.466A1.857,1.857,0,0,0,128.864,0Z" transform="translate(1111.213 395.947) rotate(-90)" fill="#f5aa28"/>
    <path id="Path_3232" data-name="Path 3232" d="M20.947,26.057a13.963,13.963,0,1,0-19.074-5.11A13.963,13.963,0,0,0,20.947,26.057Z" transform="translate(1099.138 281.199) rotate(-90)" fill="#f5aa28"/>
    <path id="Path_3233" data-name="Path 3233" d="M20.945,26.058a13.962,13.962,0,1,1,5.11-19.074A13.97,13.97,0,0,1,20.945,26.058Z" transform="translate(1172.414 407.848) rotate(-90)" fill="#f5aa28"/>
    <path id="Path_3234" data-name="Path 3234" d="M1.857,0A1.857,1.857,0,0,0,.926,3.466L127.936,76.8a1.858,1.858,0,0,0,1.857-3.219L2.783.248A1.842,1.842,0,0,0,1.857,0Z" transform="translate(1111.213 522.539) rotate(-90)" fill="#f5aa28"/>
    <path id="Path_3235" data-name="Path 3235" d="M6.986,26.058A13.962,13.962,0,1,0,1.871,6.984,13.963,13.963,0,0,0,6.986,26.058Z" transform="translate(1172.414 407.848) rotate(-90)" fill="#f5aa28"/>
    <path id="Path_3236" data-name="Path 3236" d="M6.984,26.057a13.963,13.963,0,1,1,19.074-5.11A13.959,13.959,0,0,1,6.984,26.057Z" transform="translate(1099.138 534.496) rotate(-90)" fill="#f5aa28"/>
    <path id="Path_3237" data-name="Path 3237" d="M1.857,0A1.858,1.858,0,0,0,0,1.857V148.51a1.857,1.857,0,0,0,3.714,0V1.857A1.858,1.858,0,0,0,1.857,0Z" transform="translate(964.632 522.397) rotate(-90)" fill="#f5aa28"/>
    <path id="Path_3238" data-name="Path 3238" d="M0,13.964A13.964,13.964,0,1,0,13.964,0,13.967,13.967,0,0,0,0,13.964Z" transform="translate(1099.139 534.494) rotate(-90)" fill="#f5aa28"/>
    <path id="Path_3239" data-name="Path 3239" d="M0,13.964A13.964,13.964,0,1,1,13.964,27.927,13.966,13.966,0,0,1,0,13.964Z" transform="translate(952.589 534.494) rotate(-90)" fill="#f5aa28"/>
    <path id="Path_3240" data-name="Path 3240" d="M128.834,0a1.844,1.844,0,0,0-.926.248L.928,73.577A1.856,1.856,0,0,0,2.785,76.79L129.765,3.466A1.858,1.858,0,0,0,128.834,0Z" transform="translate(891.39 522.511) rotate(-90)" fill="#f5aa28"/>
    <path id="Path_3241" data-name="Path 3241" d="M6.981,1.874a13.963,13.963,0,1,0,19.074,5.11A13.969,13.969,0,0,0,6.981,1.874Z" transform="translate(952.587 534.468) rotate(-90)" fill="#f5aa28"/>
    <path id="Path_3242" data-name="Path 3242" d="M6.979,1.874A13.963,13.963,0,1,1,1.874,20.948,13.959,13.959,0,0,1,6.979,1.874Z" transform="translate(879.309 407.846) rotate(-90)" fill="#f5aa28"/>
    <path id="Path_3244" data-name="Path 3244" d="M20.945,1.873a13.962,13.962,0,1,0,5.11,19.074A13.966,13.966,0,0,0,20.945,1.873Z" transform="translate(879.31 407.848) rotate(-90)" fill="#f5aa28"/>
    <path id="Path_3246" data-name="Path 3246" d="M1.857,0A1.858,1.858,0,0,0,0,1.857V148.51a1.857,1.857,0,0,0,3.714,0V1.857A1.858,1.858,0,0,0,1.857,0Z" transform="translate(964.632 522.373) rotate(-90)" fill="#f5aa28"/>
    <path id="Path_3247" data-name="Path 3247" d="M0,13.964A13.964,13.964,0,1,0,13.964,0,13.967,13.967,0,0,0,0,13.964Z" transform="translate(1099.139 534.469) rotate(-90)" fill="#f5aa28"/>
    <ellipse id="Ellipse_44" data-name="Ellipse 44" cx="13.963" cy="13.963" rx="13.963" ry="13.963" transform="translate(952.589 534.466) rotate(-90)" fill="#f5aa28"/>
    <path id="Path_3249" data-name="Path 3249" d="M20.945,26.057a13.963,13.963,0,1,0-19.074-5.11A13.959,13.959,0,0,0,20.945,26.057Z" transform="translate(1099.138 534.468) rotate(-90)" fill="#f5aa28"/>
    <path id="Path_3251" data-name="Path 3251" d="M0,0" transform="translate(1186.385 646.79) rotate(-90)" fill="#f5aa28"/>
    <path id="Path_3255" data-name="Path 3255" d="M20.945,1.874A13.963,13.963,0,1,1,1.871,6.984,13.959,13.959,0,0,1,20.945,1.874Z" transform="translate(952.587 534.468) rotate(-90)" fill="#f5aa28"/>
    <path id="Path_3259" data-name="Path 3259" d="M6.986,26.055a13.962,13.962,0,1,1,19.069-5.11A13.965,13.965,0,0,1,6.986,26.055Z" transform="translate(1318.761 407.848) rotate(-90)" fill="#f5aa28"/>
    <path id="Path_3260" data-name="Path 3260" d="M1.862,0A1.858,1.858,0,0,0,0,1.857L0,148.51a1.857,1.857,0,0,0,3.714,0L3.719,1.857A1.858,1.858,0,0,0,1.862,0Z" transform="translate(1184.446 395.742) rotate(-90)" fill="#f5aa28"/>
    <path id="Path_3261" data-name="Path 3261" d="M0,13.964A13.961,13.961,0,1,0,13.959,0,13.959,13.959,0,0,0,0,13.964Z" transform="translate(1318.76 407.843) rotate(-90)" fill="#f5aa28"/>
    <path id="Path_3262" data-name="Path 3262" d="M0,13.964A13.964,13.964,0,1,1,13.964,27.927,13.966,13.966,0,0,1,0,13.964Z" transform="translate(1172.417 407.843) rotate(-90)" fill="#f5aa28"/>
    <path id="Path_3263" data-name="Path 3263" d="M128.839,0a1.842,1.842,0,0,0-.926.248L.928,73.577A1.858,1.858,0,0,0,2.785,76.8L129.77,3.466A1.857,1.857,0,0,0,128.839,0Z" transform="translate(1111.213 395.923) rotate(-90)" fill="#f5aa28"/>
    <path id="Path_3264" data-name="Path 3264" d="M6.984,1.874a13.963,13.963,0,1,0,19.074,5.11A13.961,13.961,0,0,0,6.984,1.874Z" transform="translate(1172.414 407.822) rotate(-90)" fill="#f5aa28"/>
    <path id="Path_3265" data-name="Path 3265" d="M6.984,1.873a13.963,13.963,0,1,1-5.11,19.074A13.966,13.966,0,0,1,6.984,1.873Z" transform="translate(1099.138 281.201) rotate(-90)" fill="#f5aa28"/>
    <path id="Path_3266" data-name="Path 3266" d="M0,0" transform="translate(1113.106 267.222) rotate(-90)" fill="#f5aa28"/>
    <path id="Path_3267" data-name="Path 3267" d="M1.857,0A1.858,1.858,0,0,0,0,1.857V148.51a1.857,1.857,0,0,0,3.714,0V1.857A1.858,1.858,0,0,0,1.857,0Z" transform="translate(1184.446 395.712) rotate(-90)" fill="#f5aa28"/>
    <path id="Path_3268" data-name="Path 3268" d="M0,13.964A13.964,13.964,0,1,0,13.964,0,13.967,13.967,0,0,0,0,13.964Z" transform="translate(1318.76 407.819) rotate(-90)" fill="#f5aa28"/>
    <path id="Path_3269" data-name="Path 3269" d="M0,13.964A13.964,13.964,0,1,1,13.964,27.927,13.966,13.966,0,0,1,0,13.964Z" transform="translate(1172.417 407.819) rotate(-90)" fill="#f5aa28"/>
    <path id="Path_3270" data-name="Path 3270" d="M128.859,0a1.856,1.856,0,0,0-.926.248L.928,73.577A1.856,1.856,0,0,0,2.785,76.79l127-73.324A1.858,1.858,0,0,0,128.859,0Z" transform="translate(1330.867 522.511) rotate(-90)" fill="#f5aa28"/>
    <path id="Path_3271" data-name="Path 3271" d="M20.948,26.055a13.963,13.963,0,1,0-19.074-5.11A13.963,13.963,0,0,0,20.948,26.055Z" transform="translate(1318.761 407.822) rotate(-90)" fill="#f5aa28"/>
    <path id="Path_3272" data-name="Path 3272" d="M20.945,26.058a13.963,13.963,0,1,1,5.11-19.074A13.97,13.97,0,0,1,20.945,26.058Z" transform="translate(1392.087 534.468) rotate(-90)" fill="#f5aa28"/>
    <path id="Path_3274" data-name="Path 3274" d="M6.981,26.058A13.963,13.963,0,1,0,1.871,6.984,13.968,13.968,0,0,0,6.981,26.058Z" transform="translate(1392.087 534.468) rotate(-90)" fill="#f5aa28"/>
    <path id="Path_3281" data-name="Path 3281" d="M6.981,1.873a13.963,13.963,0,1,1-5.11,19.074A13.965,13.965,0,0,1,6.981,1.873Z" transform="translate(1099.138 534.468) rotate(-90)" fill="#f5aa28"/>
    <path id="Path_3282" data-name="Path 3282" d="M1.859,0A1.857,1.857,0,0,0,.928,3.466l127,73.329a1.858,1.858,0,0,0,1.857-3.219L2.785.248A1.855,1.855,0,0,0,1.859,0Z" transform="translate(1111.213 522.511) rotate(-90)" fill="#f5aa28"/>
    <path id="Path_3283" data-name="Path 3283" d="M20.945,1.873a13.963,13.963,0,1,0,5.11,19.074A13.966,13.966,0,0,0,20.945,1.873Z" transform="translate(1099.138 534.468) rotate(-90)" fill="#f5aa28"/>
    <path id="Path_3284" data-name="Path 3284" d="M20.948,1.874A13.963,13.963,0,1,1,1.874,6.984,13.963,13.963,0,0,1,20.948,1.874Z" transform="translate(1172.414 407.822) rotate(-90)" fill="#f5aa28"/>
    <path id="Path_3292" data-name="Path 3292" d="M0,0" transform="translate(1186.385 646.765) rotate(-90)" fill="#f5aa28"/>
    <path id="Path_3305" data-name="Path 3305" d="M6.984,26.055a13.963,13.963,0,1,1,19.074-5.11A13.959,13.959,0,0,1,6.984,26.055Z" transform="translate(1538.743 534.496) rotate(-90)" fill="#f5aa28"/>
    <path id="Path_3306" data-name="Path 3306" d="M1.857,0A1.858,1.858,0,0,0,0,1.857V148.51a1.857,1.857,0,1,0,3.714,0V1.857A1.858,1.858,0,0,0,1.857,0Z" transform="translate(1404.196 522.397) rotate(-90)" fill="#f5aa28"/>
    <path id="Path_3307" data-name="Path 3307" d="M0,13.964A13.964,13.964,0,1,0,13.964,0,13.966,13.966,0,0,0,0,13.964Z" transform="translate(1538.742 534.494) rotate(-90)" fill="#f5aa28"/>
    <path id="Path_3308" data-name="Path 3308" d="M0,13.964A13.964,13.964,0,1,1,13.964,27.927,13.966,13.966,0,0,1,0,13.964Z" transform="translate(1392.089 534.494) rotate(-90)" fill="#f5aa28"/>
    <path id="Path_3309" data-name="Path 3309" d="M128.834,0a1.844,1.844,0,0,0-.926.248L.928,73.577A1.856,1.856,0,0,0,2.785,76.79L129.765,3.466A1.858,1.858,0,0,0,128.834,0Z" transform="translate(1330.867 522.511) rotate(-90)" fill="#f5aa28"/>
    <path id="Path_3310" data-name="Path 3310" d="M6.981,1.874a13.963,13.963,0,1,0,19.074,5.11A13.97,13.97,0,0,0,6.981,1.874Z" transform="translate(1392.087 534.468) rotate(-90)" fill="#f5aa28"/>
    <path id="Path_3311" data-name="Path 3311" d="M6.979,1.871A13.963,13.963,0,1,1,1.874,20.945,13.968,13.968,0,0,1,6.979,1.871Z" transform="translate(1318.761 407.846) rotate(-90)" fill="#f5aa28"/>
    <path id="Path_3313" data-name="Path 3313" d="M20.945,1.871a13.962,13.962,0,1,0,5.11,19.074A13.97,13.97,0,0,0,20.945,1.871Z" transform="translate(1318.761 407.848) rotate(-90)" fill="#f5aa28"/>
    <path id="Path_3315" data-name="Path 3315" d="M1.857,0A1.858,1.858,0,0,0,0,1.857V148.51a1.857,1.857,0,1,0,3.714,0V1.857A1.858,1.858,0,0,0,1.857,0Z" transform="translate(1404.196 522.373) rotate(-90)" fill="#f5aa28"/>
    <path id="Path_3316" data-name="Path 3316" d="M0,13.964A13.964,13.964,0,1,0,13.964,0,13.966,13.966,0,0,0,0,13.964Z" transform="translate(1538.742 534.469) rotate(-90)" fill="#f5aa28"/>
    <ellipse id="Ellipse_46" data-name="Ellipse 46" cx="13.963" cy="13.963" rx="13.963" ry="13.963" transform="translate(1392.089 534.466) rotate(-90)" fill="#f5aa28"/>
    <path id="Path_3317" data-name="Path 3317" d="M128.862,0a1.843,1.843,0,0,0-.926.248L.926,73.577A1.858,1.858,0,0,0,2.783,76.8L129.793,3.466A1.857,1.857,0,0,0,128.862,0Z" transform="translate(1550.849 649.103) rotate(-90)" fill="#f5aa28"/>
    <path id="Path_3318" data-name="Path 3318" d="M20.945,26.055a13.963,13.963,0,1,0-19.074-5.11A13.959,13.959,0,0,0,20.945,26.055Z" transform="translate(1538.743 534.468) rotate(-90)" fill="#f5aa28"/>
    <path id="Path_3319" data-name="Path 3319" d="M20.948,26.057a13.963,13.963,0,1,1,5.11-19.074A13.963,13.963,0,0,1,20.948,26.057Z" transform="translate(1612.07 660.756) rotate(-90)" fill="#f5aa28"/>
    <path id="Path_3320" data-name="Path 3320" d="M1.857,0A1.857,1.857,0,0,0,.926,3.466L127.936,76.8a1.858,1.858,0,1,0,1.857-3.219L2.783.248A1.843,1.843,0,0,0,1.857,0Z" transform="translate(1550.849 775.658) rotate(-90)" fill="#f5aa28"/>
    <path id="Path_3321" data-name="Path 3321" d="M6.984,26.057A13.963,13.963,0,1,0,1.874,6.983,13.966,13.966,0,0,0,6.984,26.057Z" transform="translate(1612.07 660.756) rotate(-90)" fill="#f5aa28"/>
    <path id="Path_3322" data-name="Path 3322" d="M6.983,26.055a13.963,13.963,0,1,1,19.074-5.11A13.963,13.963,0,0,1,6.983,26.055Z" transform="translate(1538.743 787.765) rotate(-90)" fill="#f5aa28"/>
    <path id="Path_3324" data-name="Path 3324" d="M0,13.964A13.964,13.964,0,1,0,13.964,0,13.966,13.966,0,0,0,0,13.964Z" transform="translate(1538.742 787.764) rotate(-90)" fill="#f5aa28"/>
    <path id="Path_3331" data-name="Path 3331" d="M20.945,1.874A13.963,13.963,0,1,1,1.871,6.984,13.959,13.959,0,0,1,20.945,1.874Z" transform="translate(1392.087 534.468) rotate(-90)" fill="#f5aa28"/>
    <path id="Path_3333" data-name="Path 3333" d="M0,13.964A13.961,13.961,0,1,0,13.959,0,13.962,13.962,0,0,0,0,13.964Z" transform="translate(1538.742 787.735) rotate(-90)" fill="#f5aa28"/>
    <path id="Path_3335" data-name="Path 3335" d="M20.945,26.055a13.962,13.962,0,1,0-19.074-5.11A13.965,13.965,0,0,0,20.945,26.055Z" transform="translate(1538.743 787.738) rotate(-90)" fill="#f5aa28"/>
    <path id="Path_3339" data-name="Path 3339" d="M0,0" transform="translate(1626.035 393.88) rotate(-90)" fill="#f5aa28"/>
    <path id="Path_3344" data-name="Path 3344" d="M0,0" transform="translate(1626.035 393.854) rotate(-90)" fill="#f5aa28"/>
    <path id="Path_3348" data-name="Path 3348" d="M0,13.964A13.964,13.964,0,1,1,13.964,27.927,13.966,13.966,0,0,1,0,13.964Z" transform="translate(1612.071 660.754) rotate(-90)" fill="#f5aa28"/>
    <path id="Path_3349" data-name="Path 3349" d="M128.834,0a1.843,1.843,0,0,0-.926.248L.928,73.577A1.858,1.858,0,0,0,2.785,76.8L129.765,3.466A1.857,1.857,0,0,0,128.834,0Z" transform="translate(1550.849 649.076) rotate(-90)" fill="#f5aa28"/>
    <path id="Path_3350" data-name="Path 3350" d="M6.981,1.874a13.963,13.963,0,1,0,19.074,5.11A13.97,13.97,0,0,0,6.981,1.874Z" transform="translate(1612.069 660.729) rotate(-90)" fill="#f5aa28"/>
    <path id="Path_3351" data-name="Path 3351" d="M6.981,1.871a13.963,13.963,0,1,1-5.11,19.074A13.969,13.969,0,0,1,6.981,1.871Z" transform="translate(1538.743 534.468) rotate(-90)" fill="#f5aa28"/>
    <path id="Path_3353" data-name="Path 3353" d="M20.945,1.871a13.963,13.963,0,1,0,5.11,19.074A13.97,13.97,0,0,0,20.945,1.871Z" transform="translate(1538.743 534.468) rotate(-90)" fill="#f5aa28"/>
    <path id="Path_3357" data-name="Path 3357" d="M0,13.964A13.964,13.964,0,1,1,13.964,27.927,13.966,13.966,0,0,1,0,13.964Z" transform="translate(1612.071 660.729) rotate(-90)" fill="#f5aa28"/>
    <path id="Path_3369" data-name="Path 3369" d="M6.98,1.871A13.964,13.964,0,1,1,1.874,20.945,13.968,13.968,0,0,1,6.98,1.871Z" transform="translate(1538.743 787.737) rotate(-90)" fill="#f5aa28"/>
    <path id="Path_3370" data-name="Path 3370" d="M1.859,0A1.857,1.857,0,0,0,.928,3.466L127.938,76.8a1.858,1.858,0,0,0,1.857-3.219L2.785.248A1.856,1.856,0,0,0,1.859,0Z" transform="translate(1550.849 775.63) rotate(-90)" fill="#f5aa28"/>
    <path id="Path_3371" data-name="Path 3371" d="M20.945,1.871a13.962,13.962,0,1,0,5.11,19.074A13.97,13.97,0,0,0,20.945,1.871Z" transform="translate(1538.743 787.738) rotate(-90)" fill="#f5aa28"/>
    <path id="Path_3372" data-name="Path 3372" d="M20.945,1.873A13.963,13.963,0,1,1,1.871,6.983,13.959,13.959,0,0,1,20.945,1.873Z" transform="translate(1612.07 660.729) rotate(-90)" fill="#f5aa28"/>
  </g>
</svg>
