<svg xmlns="http://www.w3.org/2000/svg" width="96.407" height="87.744" viewBox="0 0 96.407 87.744">
  <g id="Component_3_1" data-name="Component 3 – 1" transform="translate(0 2.904)">
    <circle id="Ellipse_39" data-name="Ellipse 39" cx="31.5" cy="31.5" r="31.5" transform="translate(0 7.561)" fill="#d8eff6" opacity="0.54"/>
    <g id="Group_2293" data-name="Group 2293" transform="translate(-935 -3997.296)">
      <g id="Group_2263" data-name="Group 2263" transform="translate(968 4020.771)">
        <g id="Subtraction_2" data-name="Subtraction 2" transform="translate(0 16.086)" fill="#7d88b3">
          <path d="M 26.26111602783203 12.5 L 2.738900899887085 12.5 C 2.898198366165161 11.68162536621094 3.136797904968262 10.88213539123535 3.453549146652222 10.10744094848633 C 4.063019275665283 8.616830825805664 4.934739112854004 7.278940677642822 6.044498920440674 6.130930423736572 C 7.148499011993408 4.988880634307861 8.431609153747559 4.093320369720459 9.858199119567871 3.469130516052246 C 11.3279390335083 2.82606053352356 12.88970947265625 2.500000476837158 14.50015926361084 2.500000476837158 C 16.11059951782227 2.500000476837158 17.67234992980957 2.82606053352356 19.14204978942871 3.469120502471924 C 20.56859970092773 4.093310356140137 21.8516788482666 4.988860607147217 22.95564842224121 6.130910396575928 C 24.06533813476562 7.278890609741211 24.9370288848877 8.616780281066895 25.54647827148438 10.1074104309082 C 25.86324310302734 10.88215446472168 26.1018238067627 11.6815710067749 26.26111602783203 12.5 Z" stroke="none"/>
          <path d="M 22.73005104064941 10 C 22.30252647399902 9.22184944152832 21.77640724182129 8.508030891418457 21.15816879272461 7.868460655212402 C 20.28185844421387 6.961920261383057 19.2663688659668 6.252360343933105 18.1399097442627 5.759480476379395 C 16.98814964294434 5.255520343780518 15.76355934143066 5.000000476837158 14.50015926361084 5.000000476837158 C 13.23674869537354 5.000000476837158 12.01212882995605 5.25553035736084 10.86031913757324 5.759490489959717 C 9.733819007873535 6.25238037109375 8.71829891204834 6.961950302124023 7.841958999633789 7.868500709533691 C 7.223718643188477 8.508042335510254 6.697535991668701 9.221936225891113 6.270021915435791 10 L 22.73005104064941 10 M 29 15 L -9.5367431640625e-07 15 C -9.5367431640625e-07 12.97457027435303 0.3835090398788452 11.01027011871338 1.139509081840515 9.161290168762207 C 1.869829058647156 7.375100612640381 2.915359020233154 5.77094030380249 4.247038841247559 4.393360614776611 C 5.578709125518799 3.015790462493896 7.129418849945068 1.934250473976135 8.8560791015625 1.178770422935486 C 10.6437292098999 0.3966004848480225 12.54266929626465 4.76837158203125e-07 14.50015926361084 4.76837158203125e-07 C 16.45764923095703 4.76837158203125e-07 18.35656929016113 0.3966004848480225 20.14418983459473 1.178770422935486 C 21.87080955505371 1.934250473976135 23.42148971557617 3.015790462493896 24.75312995910645 4.393360614776611 C 26.08475875854492 5.77094030380249 27.13023948669434 7.375100612640381 27.86053848266602 9.161290168762207 C 28.6165885925293 11.01045036315918 28.99995994567871 12.97475051879883 29 14.99962043762207 L 29 15 Z" stroke="none" fill="#7d88b3"/>
        </g>
        <circle id="Ellipse_33" data-name="Ellipse 33" cx="7.5" cy="7.5" r="7.5" transform="translate(16 0.086)" fill="#7d88b3" opacity="0.32"/>
        <circle id="Ellipse_29" data-name="Ellipse 29" cx="7.5" cy="7.5" r="7.5" transform="translate(7 0.086)" fill="#7d88b3"/>
        <g id="Subtraction_4" data-name="Subtraction 4" transform="translate(9 16.086)" fill="#7d88b3" opacity="0.32">
          <path d="M 26.26111602783203 12.5 L 2.738900899887085 12.5 C 2.898198366165161 11.68162536621094 3.136797904968262 10.88213539123535 3.453549146652222 10.10744094848633 C 4.063019275665283 8.616830825805664 4.934739112854004 7.278940677642822 6.044498920440674 6.130930423736572 C 7.148499011993408 4.988880634307861 8.431609153747559 4.093320369720459 9.858199119567871 3.469130516052246 C 11.3279390335083 2.82606053352356 12.88970947265625 2.500000476837158 14.50015926361084 2.500000476837158 C 16.11059951782227 2.500000476837158 17.67234992980957 2.82606053352356 19.14204978942871 3.469120502471924 C 20.56859970092773 4.093310356140137 21.8516788482666 4.988860607147217 22.95564842224121 6.130910396575928 C 24.06533813476562 7.278890609741211 24.9370288848877 8.616780281066895 25.54647827148438 10.1074104309082 C 25.86324310302734 10.88215446472168 26.1018238067627 11.6815710067749 26.26111602783203 12.5 Z" stroke="none"/>
          <path d="M 22.73005104064941 10 C 22.30252647399902 9.22184944152832 21.77640724182129 8.508030891418457 21.15816879272461 7.868460655212402 C 20.28185844421387 6.961920261383057 19.2663688659668 6.252360343933105 18.1399097442627 5.759480476379395 C 16.98814964294434 5.255520343780518 15.76355934143066 5.000000476837158 14.50015926361084 5.000000476837158 C 13.23674869537354 5.000000476837158 12.01212882995605 5.25553035736084 10.86031913757324 5.759490489959717 C 9.733819007873535 6.25238037109375 8.71829891204834 6.961950302124023 7.841958999633789 7.868500709533691 C 7.223718643188477 8.508042335510254 6.697535991668701 9.221936225891113 6.270021915435791 10 L 22.73005104064941 10 M 29 15 L -9.5367431640625e-07 15 C -9.5367431640625e-07 12.97457027435303 0.3835090398788452 11.01027011871338 1.139509081840515 9.161290168762207 C 1.869829058647156 7.375100612640381 2.915359020233154 5.77094030380249 4.247038841247559 4.393360614776611 C 5.578709125518799 3.015790462493896 7.129418849945068 1.934250473976135 8.8560791015625 1.178770422935486 C 10.6437292098999 0.3966004848480225 12.54266929626465 4.76837158203125e-07 14.50015926361084 4.76837158203125e-07 C 16.45764923095703 4.76837158203125e-07 18.35656929016113 0.3966004848480225 20.14418983459473 1.178770422935486 C 21.87080955505371 1.934250473976135 23.42148971557617 3.015790462493896 24.75312995910645 4.393360614776611 C 26.08475875854492 5.77094030380249 27.13023948669434 7.375100612640381 27.86053848266602 9.161290168762207 C 28.6165885925293 11.01045036315918 28.99995994567871 12.97475051879883 29 14.99962043762207 L 29 15 Z" stroke="none" fill="#7d88b3"/>
        </g>
      </g>
    </g>
    <path id="Path_2750" data-name="Path 2750" d="M0,24.4A30.157,30.157,0,1,1,8.28,51.477" transform="translate(41.924 0) rotate(30)" fill="none" stroke="#7d88b3" stroke-linecap="round" stroke-miterlimit="10" stroke-width="4"/>
  </g>
</svg>
