<svg xmlns="http://www.w3.org/2000/svg" width="89" height="89" viewBox="0 0 89 89">
  <g id="Group_2291" data-name="Group 2291" transform="translate(2 2)">
    <path id="Path_2748" data-name="Path 2748" d="M337.009,428.3a42.5,42.5,0,1,1-35.242-18.737" transform="translate(-259.267 -409.567)" fill="none" stroke="#7d88b3" stroke-linecap="round" stroke-miterlimit="10" stroke-width="4"/>
    <path id="Path_2749" data-name="Path 2749" d="M268.836,446.055a34.035,34.035,0,1,1,9.346,30.539" transform="translate(-259.781 -410.049)" fill="none" stroke="#7d88b3" stroke-linecap="round" stroke-miterlimit="10" stroke-width="4"/>
    <path id="Path_6686" data-name="Path 6686" d="M1.485-19.035H14.742v2.592L6.1,0H2.4l8.613-16.227H1.485Zm16.767,0h7.02q4.671,0,7.249,2.5A9.3,9.3,0,0,1,35.1-9.531a9.347,9.347,0,0,1-2.579,7.02Q29.943,0,25.272,0h-7.02Zm6.8,16.2q6.561,0,6.561-6.7,0-6.669-6.561-6.669H21.735V-2.835Z" transform="translate(24.683 54.655)" fill="#7d88b3"/>
  </g>
</svg>
