<svg xmlns="http://www.w3.org/2000/svg" width="1274.515" height="712.074" viewBox="0 0 1274.515 712.074">
  <g id="Group_2300" data-name="Group 2300" transform="translate(1274.515) rotate(90)">
    <path id="Path_3079" data-name="Path 3079" d="M0,0" transform="translate(602.593 10.846)" fill="#f5aa28"/>
    <path id="Path_3080" data-name="Path 3080" d="M100.073,0a1.442,1.442,0,0,0-.719.192L.721,57.14a1.441,1.441,0,0,0,1.442,2.5L100.8,2.688A1.44,1.44,0,0,0,100.073,0Z" transform="translate(502.539 9.404)" fill="#f5aa28"/>
    <path id="Path_3081" data-name="Path 3081" d="M16.268,20.237A10.844,10.844,0,1,0,1.456,16.268,10.849,10.849,0,0,0,16.268,20.237Z" transform="translate(591.77 0)" fill="#f5aa28"/>
    <path id="Path_3082" data-name="Path 3082" d="M16.267,20.238A10.845,10.845,0,1,1,20.236,5.425,10.846,10.846,0,0,1,16.267,20.238Z" transform="translate(493.134 56.947)" fill="#f5aa28"/>
    <path id="Path_3083" data-name="Path 3083" d="M1.444,0A1.44,1.44,0,0,0,.721,2.688L99.358,59.636a1.441,1.441,0,0,0,1.442-2.5L2.163.192A1.442,1.442,0,0,0,1.444,0Z" transform="translate(403.903 9.404)" fill="#f5aa28"/>
    <path id="Path_3084" data-name="Path 3084" d="M5.423,20.238A10.845,10.845,0,1,0,1.455,5.425,10.845,10.845,0,0,0,5.423,20.238Z" transform="translate(493.134 56.947)" fill="#f5aa28"/>
    <path id="Path_3085" data-name="Path 3085" d="M5.425,20.237a10.843,10.843,0,1,1,14.809-3.969A10.847,10.847,0,0,1,5.425,20.237Z" transform="translate(394.499 0)" fill="#f5aa28"/>
    <path id="Path_3086" data-name="Path 3086" d="M0,0" transform="translate(405.366 10.846)" fill="#f5aa28"/>
    <path id="Path_3087" data-name="Path 3087" d="M0,0" transform="translate(602.593 238.633)" fill="#f5aa28"/>
    <path id="Path_3088" data-name="Path 3088" d="M1.444,0A1.443,1.443,0,0,0,.721,2.692L99.358,59.636a1.441,1.441,0,1,0,1.442-2.5L2.163.192A1.442,1.442,0,0,0,1.444,0Z" transform="translate(502.516 180.244)" fill="#f5aa28"/>
    <path id="Path_3089" data-name="Path 3089" d="M5.422,20.237A10.844,10.844,0,1,0,1.453,5.424,10.845,10.845,0,0,0,5.422,20.237Z" transform="translate(591.749 227.787)" fill="#f5aa28"/>
    <path id="Path_3090" data-name="Path 3090" d="M5.425,20.237a10.843,10.843,0,1,1,14.809-3.969A10.847,10.847,0,0,1,5.425,20.237Z" transform="translate(493.113 170.839)" fill="#f5aa28"/>
    <path id="Path_3091" data-name="Path 3091" d="M1.446,0A1.443,1.443,0,0,0,0,1.442L0,115.334a1.442,1.442,0,1,0,2.884,0l0-113.892A1.443,1.443,0,0,0,1.446,0Z" transform="translate(502.514 66.352)" fill="#f5aa28"/>
    <path id="Path_3092" data-name="Path 3092" d="M0,10.844A10.842,10.842,0,1,0,10.844,0,10.843,10.843,0,0,0,0,10.844Z" transform="translate(493.116 170.841)" fill="#f5aa28"/>
    <path id="Path_3093" data-name="Path 3093" d="M0,10.84A10.844,10.844,0,1,1,10.844,21.685,10.843,10.843,0,0,1,0,10.84Z" transform="translate(493.116 56.949)" fill="#f5aa28"/>
    <path id="Path_3094" data-name="Path 3094" d="M100.054,0a1.432,1.432,0,0,0-.719.192L.721,57.14a1.441,1.441,0,0,0,1.442,2.5L100.777,2.688A1.44,1.44,0,0,0,100.054,0Z" transform="translate(502.539 9.404)" fill="#f5aa28"/>
    <path id="Path_3095" data-name="Path 3095" d="M5.424,1.456A10.842,10.842,0,1,0,20.237,5.42,10.841,10.841,0,0,0,5.424,1.456Z" transform="translate(493.133 56.947)" fill="#f5aa28"/>
    <path id="Path_3096" data-name="Path 3096" d="M5.422,1.455A10.844,10.844,0,1,1,1.453,16.268,10.842,10.842,0,0,1,5.422,1.455Z" transform="translate(591.749 0)" fill="#f5aa28"/>
    <path id="Path_3097" data-name="Path 3097" d="M0,0" transform="translate(602.593 10.846)" fill="#f5aa28"/>
    <path id="Path_3098" data-name="Path 3098" d="M1.442,0A1.443,1.443,0,0,0,0,1.442V115.334a1.442,1.442,0,1,0,2.884,0V1.442A1.443,1.443,0,0,0,1.442,0Z" transform="translate(502.537 66.352)" fill="#f5aa28"/>
    <path id="Path_3099" data-name="Path 3099" d="M0,10.844A10.844,10.844,0,1,0,10.844,0,10.846,10.846,0,0,0,0,10.844Z" transform="translate(493.135 170.841)" fill="#f5aa28"/>
    <path id="Path_3100" data-name="Path 3100" d="M0,10.844A10.844,10.844,0,1,1,10.844,21.685,10.844,10.844,0,0,1,0,10.844Z" transform="translate(493.135 56.949)" fill="#f5aa28"/>
    <path id="Path_3101" data-name="Path 3101" d="M100.077,0a1.432,1.432,0,0,0-.719.192L.721,57.14a1.441,1.441,0,1,0,1.442,2.5L100.8,2.692A1.443,1.443,0,0,0,100.077,0Z" transform="translate(403.903 180.244)" fill="#f5aa28"/>
    <path id="Path_3102" data-name="Path 3102" d="M16.267,20.237A10.844,10.844,0,1,0,1.455,16.268,10.846,10.846,0,0,0,16.267,20.237Z" transform="translate(493.134 170.839)" fill="#f5aa28"/>
    <path id="Path_3103" data-name="Path 3103" d="M16.266,20.237A10.843,10.843,0,1,1,20.234,5.424,10.847,10.847,0,0,1,16.266,20.237Z" transform="translate(394.499 227.787)" fill="#f5aa28"/>
    <path id="Path_3104" data-name="Path 3104" d="M0,0" transform="translate(405.343 238.633)" fill="#f5aa28"/>
    <path id="Path_3105" data-name="Path 3105" d="M0,0" transform="translate(405.343 10.846)" fill="#f5aa28"/>
    <path id="Path_3106" data-name="Path 3106" d="M1.444,0A1.44,1.44,0,0,0,.721,2.688L99.358,59.636a1.441,1.441,0,0,0,1.442-2.5L2.163.192A1.442,1.442,0,0,0,1.444,0Z" transform="translate(403.903 9.404)" fill="#f5aa28"/>
    <path id="Path_3107" data-name="Path 3107" d="M16.266,1.455a10.843,10.843,0,1,0,3.969,14.813A10.843,10.843,0,0,0,16.266,1.455Z" transform="translate(394.499 0)" fill="#f5aa28"/>
    <path id="Path_3108" data-name="Path 3108" d="M16.267,1.453A10.845,10.845,0,1,1,1.455,5.425,10.846,10.846,0,0,1,16.267,1.453Z" transform="translate(493.134 56.947)" fill="#f5aa28"/>
    <path id="Path_3109" data-name="Path 3109" d="M0,0" transform="translate(701.229 409.473)" fill="#f5aa28"/>
    <path id="Path_3110" data-name="Path 3110" d="M1.444,0A1.443,1.443,0,0,0,.721,2.692L99.354,59.636a1.441,1.441,0,1,0,1.442-2.5L2.163.192A1.442,1.442,0,0,0,1.444,0Z" transform="translate(601.153 351.083)" fill="#f5aa28"/>
    <path id="Path_3111" data-name="Path 3111" d="M5.424,20.237A10.844,10.844,0,1,0,1.456,5.424,10.849,10.849,0,0,0,5.424,20.237Z" transform="translate(690.383 398.627)" fill="#f5aa28"/>
    <path id="Path_3112" data-name="Path 3112" d="M5.422,20.237a10.844,10.844,0,1,1,14.813-3.969A10.848,10.848,0,0,1,5.422,20.237Z" transform="translate(591.749 341.679)" fill="#f5aa28"/>
    <path id="Path_3113" data-name="Path 3113" d="M1.446,0A1.443,1.443,0,0,0,0,1.442l0,113.9a1.442,1.442,0,1,0,2.884,0l0-113.9A1.443,1.443,0,0,0,1.446,0Z" transform="translate(601.151 237.187)" fill="#f5aa28"/>
    <path id="Path_3114" data-name="Path 3114" d="M0,10.844A10.844,10.844,0,1,0,10.844,0,10.846,10.846,0,0,0,0,10.844Z" transform="translate(591.749 341.681)" fill="#f5aa28"/>
    <path id="Path_3115" data-name="Path 3115" d="M0,10.844a10.842,10.842,0,1,1,10.84,10.84A10.841,10.841,0,0,1,0,10.844Z" transform="translate(591.753 227.789)" fill="#f5aa28"/>
    <path id="Path_3116" data-name="Path 3116" d="M0,0" transform="translate(602.616 238.633)" fill="#f5aa28"/>
    <path id="Path_3117" data-name="Path 3117" d="M1.442,0A1.443,1.443,0,0,0,0,1.442v113.9a1.442,1.442,0,1,0,2.884,0V1.442A1.443,1.443,0,0,0,1.442,0Z" transform="translate(601.174 237.187)" fill="#f5aa28"/>
    <path id="Path_3118" data-name="Path 3118" d="M0,10.844A10.842,10.842,0,1,0,10.844,0,10.844,10.844,0,0,0,0,10.844Z" transform="translate(591.772 341.681)" fill="#f5aa28"/>
    <path id="Path_3119" data-name="Path 3119" d="M0,10.844a10.842,10.842,0,1,1,10.844,10.84A10.842,10.842,0,0,1,0,10.844Z" transform="translate(591.772 227.789)" fill="#f5aa28"/>
    <path id="Path_3120" data-name="Path 3120" d="M100.073,0a1.442,1.442,0,0,0-.719.192L.721,57.14a1.441,1.441,0,0,0,1.442,2.5L100.8,2.692A1.443,1.443,0,0,0,100.073,0Z" transform="translate(502.539 351.083)" fill="#f5aa28"/>
    <path id="Path_3121" data-name="Path 3121" d="M16.268,20.237A10.844,10.844,0,1,0,1.456,16.268,10.848,10.848,0,0,0,16.268,20.237Z" transform="translate(591.77 341.679)" fill="#f5aa28"/>
    <path id="Path_3122" data-name="Path 3122" d="M16.267,20.237A10.844,10.844,0,1,1,20.236,5.424,10.848,10.848,0,0,1,16.267,20.237Z" transform="translate(493.134 398.627)" fill="#f5aa28"/>
    <path id="Path_3123" data-name="Path 3123" d="M1.444,0A1.443,1.443,0,0,0,.721,2.692L99.358,59.636a1.441,1.441,0,1,0,1.442-2.5L2.163.192A1.442,1.442,0,0,0,1.444,0Z" transform="translate(403.903 351.083)" fill="#f5aa28"/>
    <path id="Path_3124" data-name="Path 3124" d="M5.423,20.237A10.844,10.844,0,1,0,1.455,5.424,10.848,10.848,0,0,0,5.423,20.237Z" transform="translate(493.134 398.627)" fill="#f5aa28"/>
    <path id="Path_3125" data-name="Path 3125" d="M5.425,20.237a10.843,10.843,0,1,1,14.809-3.969A10.846,10.846,0,0,1,5.425,20.237Z" transform="translate(394.499 341.679)" fill="#f5aa28"/>
    <path id="Path_3126" data-name="Path 3126" d="M1.446,0A1.443,1.443,0,0,0,0,1.442l0,113.9a1.442,1.442,0,1,0,2.884,0l0-113.9A1.443,1.443,0,0,0,1.446,0Z" transform="translate(403.901 237.187)" fill="#f5aa28"/>
    <path id="Path_3127" data-name="Path 3127" d="M0,10.844A10.842,10.842,0,1,0,10.84,0,10.841,10.841,0,0,0,0,10.844Z" transform="translate(394.502 341.681)" fill="#f5aa28"/>
    <path id="Path_3128" data-name="Path 3128" d="M0,10.844a10.844,10.844,0,1,1,10.844,10.84A10.844,10.844,0,0,1,0,10.844Z" transform="translate(394.502 227.789)" fill="#f5aa28"/>
    <path id="Path_3129" data-name="Path 3129" d="M100.058,0a1.431,1.431,0,0,0-.719.192L.721,57.14a1.441,1.441,0,1,0,1.442,2.5L100.78,2.692A1.443,1.443,0,0,0,100.058,0Z" transform="translate(403.922 180.244)" fill="#f5aa28"/>
    <path id="Path_3130" data-name="Path 3130" d="M5.424,1.456A10.842,10.842,0,1,0,20.237,5.42,10.841,10.841,0,0,0,5.424,1.456Z" transform="translate(394.52 227.787)" fill="#f5aa28"/>
    <path id="Path_3131" data-name="Path 3131" d="M5.424,1.456A10.844,10.844,0,1,1,1.455,16.268,10.842,10.842,0,0,1,5.424,1.456Z" transform="translate(493.133 170.839)" fill="#f5aa28"/>
    <path id="Path_3132" data-name="Path 3132" d="M1.444,0A1.443,1.443,0,0,0,.721,2.692L99.354,59.636a1.441,1.441,0,1,0,1.442-2.5L2.163.192A1.442,1.442,0,0,0,1.444,0Z" transform="translate(502.539 180.244)" fill="#f5aa28"/>
    <path id="Path_3133" data-name="Path 3133" d="M16.267,1.456a10.844,10.844,0,1,0,3.969,14.813A10.841,10.841,0,0,0,16.267,1.456Z" transform="translate(493.134 170.839)" fill="#f5aa28"/>
    <path id="Path_3134" data-name="Path 3134" d="M16.268,1.456A10.844,10.844,0,1,1,1.456,5.424,10.844,10.844,0,0,1,16.268,1.456Z" transform="translate(591.77 227.787)" fill="#f5aa28"/>
    <path id="Path_3135" data-name="Path 3135" d="M1.442,0A1.443,1.443,0,0,0,0,1.442v113.9a1.442,1.442,0,1,0,2.884,0V1.442A1.443,1.443,0,0,0,1.442,0Z" transform="translate(403.924 237.187)" fill="#f5aa28"/>
    <path id="Path_3136" data-name="Path 3136" d="M0,10.844A10.844,10.844,0,1,0,10.844,0,10.847,10.847,0,0,0,0,10.844Z" transform="translate(394.522 341.681)" fill="#f5aa28"/>
    <path id="Path_3137" data-name="Path 3137" d="M0,10.844a10.844,10.844,0,1,1,10.844,10.84A10.844,10.844,0,0,1,0,10.844Z" transform="translate(394.522 227.789)" fill="#f5aa28"/>
    <path id="Path_3138" data-name="Path 3138" d="M100.073,0a1.442,1.442,0,0,0-.719.192L.721,57.14a1.441,1.441,0,1,0,1.442,2.5L100.8,2.692A1.443,1.443,0,0,0,100.073,0Z" transform="translate(305.289 351.083)" fill="#f5aa28"/>
    <path id="Path_3139" data-name="Path 3139" d="M16.268,20.237A10.844,10.844,0,1,0,1.455,16.268,10.845,10.845,0,0,0,16.268,20.237Z" transform="translate(394.52 341.679)" fill="#f5aa28"/>
    <path id="Path_3140" data-name="Path 3140" d="M16.266,20.237A10.844,10.844,0,1,1,20.234,5.424,10.849,10.849,0,0,1,16.266,20.237Z" transform="translate(295.886 398.627)" fill="#f5aa28"/>
    <path id="Path_3141" data-name="Path 3141" d="M0,0" transform="translate(306.729 409.473)" fill="#f5aa28"/>
    <path id="Path_3142" data-name="Path 3142" d="M0,0" transform="translate(405.366 238.633)" fill="#f5aa28"/>
    <path id="Path_3143" data-name="Path 3143" d="M0,0" transform="translate(701.206 523.364)" fill="#f5aa28"/>
    <path id="Path_3144" data-name="Path 3144" d="M1.446,0A1.443,1.443,0,0,0,0,1.442L0,115.334a1.442,1.442,0,0,0,2.884,0l0-113.892A1.443,1.443,0,0,0,1.446,0Z" transform="translate(699.764 408.031)" fill="#f5aa28"/>
    <path id="Path_3145" data-name="Path 3145" d="M0,10.844A10.844,10.844,0,1,0,10.844,0,10.846,10.846,0,0,0,0,10.844Z" transform="translate(690.362 512.52)" fill="#f5aa28"/>
    <path id="Path_3146" data-name="Path 3146" d="M0,10.844a10.842,10.842,0,1,1,10.844,10.84A10.844,10.844,0,0,1,0,10.844Z" transform="translate(690.366 398.628)" fill="#f5aa28"/>
    <path id="Path_3147" data-name="Path 3147" d="M0,0" transform="translate(701.229 409.473)" fill="#f5aa28"/>
    <path id="Path_3148" data-name="Path 3148" d="M1.442,0A1.443,1.443,0,0,0,0,1.442V115.334a1.442,1.442,0,0,0,2.884,0V1.442A1.443,1.443,0,0,0,1.442,0Z" transform="translate(699.787 408.031)" fill="#f5aa28"/>
    <path id="Path_3149" data-name="Path 3149" d="M0,10.844A10.844,10.844,0,1,0,10.844,0,10.846,10.846,0,0,0,0,10.844Z" transform="translate(690.385 512.52)" fill="#f5aa28"/>
    <path id="Path_3150" data-name="Path 3150" d="M0,10.844a10.844,10.844,0,1,1,10.844,10.84A10.844,10.844,0,0,1,0,10.844Z" transform="translate(690.385 398.628)" fill="#f5aa28"/>
    <path id="Path_3151" data-name="Path 3151" d="M0,0" transform="translate(701.229 523.364)" fill="#f5aa28"/>
    <path id="Path_3152" data-name="Path 3152" d="M0,0" transform="translate(503.96 523.364)" fill="#f5aa28"/>
    <path id="Path_3153" data-name="Path 3153" d="M1.446,0A1.443,1.443,0,0,0,0,1.442L0,115.334a1.442,1.442,0,0,0,2.884,0l0-113.892A1.443,1.443,0,0,0,1.446,0Z" transform="translate(502.514 408.031)" fill="#f5aa28"/>
    <path id="Path_3154" data-name="Path 3154" d="M0,10.844A10.842,10.842,0,1,0,10.844,0,10.843,10.843,0,0,0,0,10.844Z" transform="translate(493.116 512.52)" fill="#f5aa28"/>
    <path id="Path_3155" data-name="Path 3155" d="M0,10.844a10.844,10.844,0,1,1,10.844,10.84A10.844,10.844,0,0,1,0,10.844Z" transform="translate(493.116 398.628)" fill="#f5aa28"/>
    <path id="Path_3156" data-name="Path 3156" d="M100.054,0a1.432,1.432,0,0,0-.719.192L.721,57.14a1.441,1.441,0,0,0,1.442,2.5L100.777,2.692A1.443,1.443,0,0,0,100.054,0Z" transform="translate(502.539 351.083)" fill="#f5aa28"/>
    <path id="Path_3157" data-name="Path 3157" d="M5.424,1.456A10.844,10.844,0,1,0,20.237,5.42,10.841,10.841,0,0,0,5.424,1.456Z" transform="translate(493.133 398.626)" fill="#f5aa28"/>
    <path id="Path_3158" data-name="Path 3158" d="M5.422,1.455A10.844,10.844,0,1,1,1.453,16.268,10.842,10.842,0,0,1,5.422,1.455Z" transform="translate(591.749 341.679)" fill="#f5aa28"/>
    <path id="Path_3159" data-name="Path 3159" d="M1.444,0A1.443,1.443,0,0,0,.721,2.692L99.354,59.636a1.441,1.441,0,1,0,1.442-2.5L2.163.192A1.442,1.442,0,0,0,1.444,0Z" transform="translate(601.153 351.083)" fill="#f5aa28"/>
    <path id="Path_3160" data-name="Path 3160" d="M16.266,1.455a10.844,10.844,0,1,0,3.969,14.813A10.842,10.842,0,0,0,16.266,1.455Z" transform="translate(591.749 341.679)" fill="#f5aa28"/>
    <path id="Path_3161" data-name="Path 3161" d="M16.268,1.456A10.844,10.844,0,1,1,1.456,5.424,10.847,10.847,0,0,1,16.268,1.456Z" transform="translate(690.383 398.627)" fill="#f5aa28"/>
    <path id="Path_3162" data-name="Path 3162" d="M1.442,0A1.443,1.443,0,0,0,0,1.442V115.334a1.442,1.442,0,0,0,2.884,0V1.442A1.443,1.443,0,0,0,1.442,0Z" transform="translate(502.537 408.031)" fill="#f5aa28"/>
    <path id="Path_3163" data-name="Path 3163" d="M0,10.844A10.844,10.844,0,1,0,10.844,0,10.846,10.846,0,0,0,0,10.844Z" transform="translate(493.135 512.52)" fill="#f5aa28"/>
    <path id="Path_3164" data-name="Path 3164" d="M0,10.844a10.844,10.844,0,1,1,10.844,10.84A10.844,10.844,0,0,1,0,10.844Z" transform="translate(493.135 398.628)" fill="#f5aa28"/>
    <path id="Path_3165" data-name="Path 3165" d="M100.077,0a1.432,1.432,0,0,0-.719.192L.721,57.14a1.441,1.441,0,1,0,1.442,2.5L100.8,2.692A1.443,1.443,0,0,0,100.077,0Z" transform="translate(403.903 521.922)" fill="#f5aa28"/>
    <path id="Path_3166" data-name="Path 3166" d="M16.267,20.236A10.844,10.844,0,1,0,1.455,16.267,10.845,10.845,0,0,0,16.267,20.236Z" transform="translate(493.134 512.519)" fill="#f5aa28"/>
    <path id="Path_3167" data-name="Path 3167" d="M16.266,20.237A10.843,10.843,0,1,1,20.234,5.424,10.849,10.849,0,0,1,16.266,20.237Z" transform="translate(394.499 569.466)" fill="#f5aa28"/>
    <path id="Path_3168" data-name="Path 3168" d="M1.442,0A1.443,1.443,0,0,0,.719,2.692L99.356,59.636a1.441,1.441,0,0,0,1.442-2.5L2.161.192A1.432,1.432,0,0,0,1.442,0Z" transform="translate(305.268 521.922)" fill="#f5aa28"/>
    <path id="Path_3169" data-name="Path 3169" d="M5.425,20.237A10.843,10.843,0,1,0,1.453,5.424,10.844,10.844,0,0,0,5.425,20.237Z" transform="translate(394.499 569.466)" fill="#f5aa28"/>
    <path id="Path_3170" data-name="Path 3170" d="M5.424,20.236a10.844,10.844,0,1,1,14.813-3.969A10.842,10.842,0,0,1,5.424,20.236Z" transform="translate(295.864 512.519)" fill="#f5aa28"/>
    <path id="Path_3171" data-name="Path 3171" d="M1.442,0A1.443,1.443,0,0,0,0,1.442V115.334a1.442,1.442,0,0,0,2.884,0V1.442A1.443,1.443,0,0,0,1.442,0Z" transform="translate(305.268 408.031)" fill="#f5aa28"/>
    <path id="Path_3172" data-name="Path 3172" d="M0,10.844A10.844,10.844,0,1,0,10.844,0,10.846,10.846,0,0,0,0,10.844Z" transform="translate(295.866 512.52)" fill="#f5aa28"/>
    <path id="Path_3173" data-name="Path 3173" d="M0,10.844a10.844,10.844,0,1,1,10.844,10.84A10.844,10.844,0,0,1,0,10.844Z" transform="translate(295.866 398.628)" fill="#f5aa28"/>
    <path id="Path_3174" data-name="Path 3174" d="M100.054,0a1.432,1.432,0,0,0-.719.192L.721,57.14a1.441,1.441,0,1,0,1.442,2.5L100.777,2.692A1.443,1.443,0,0,0,100.054,0Z" transform="translate(305.289 351.083)" fill="#f5aa28"/>
    <path id="Path_3175" data-name="Path 3175" d="M5.421,1.456A10.844,10.844,0,1,0,20.234,5.42,10.847,10.847,0,0,0,5.421,1.456Z" transform="translate(295.886 398.626)" fill="#f5aa28"/>
    <path id="Path_3176" data-name="Path 3176" d="M5.42,1.455A10.844,10.844,0,1,1,1.456,16.268,10.841,10.841,0,0,1,5.42,1.455Z" transform="translate(394.5 341.679)" fill="#f5aa28"/>
    <path id="Path_3177" data-name="Path 3177" d="M1.444,0A1.443,1.443,0,0,0,.721,2.692L99.358,59.636a1.441,1.441,0,1,0,1.442-2.5L2.163.192A1.442,1.442,0,0,0,1.444,0Z" transform="translate(403.903 351.083)" fill="#f5aa28"/>
    <path id="Path_3178" data-name="Path 3178" d="M16.266,1.455a10.843,10.843,0,1,0,3.969,14.813A10.843,10.843,0,0,0,16.266,1.455Z" transform="translate(394.499 341.679)" fill="#f5aa28"/>
    <path id="Path_3179" data-name="Path 3179" d="M16.267,1.456A10.844,10.844,0,1,1,1.455,5.424,10.844,10.844,0,0,1,16.267,1.456Z" transform="translate(493.134 398.627)" fill="#f5aa28"/>
    <path id="Path_3180" data-name="Path 3180" d="M1.442,0A1.443,1.443,0,0,0,0,1.442V115.334a1.442,1.442,0,0,0,2.884,0V1.442A1.443,1.443,0,0,0,1.442,0Z" transform="translate(305.287 408.031)" fill="#f5aa28"/>
    <path id="Path_3181" data-name="Path 3181" d="M0,10.844A10.844,10.844,0,1,0,10.844,0,10.846,10.846,0,0,0,0,10.844Z" transform="translate(295.885 512.52)" fill="#f5aa28"/>
    <path id="Path_3182" data-name="Path 3182" d="M0,10.844a10.844,10.844,0,1,1,10.844,10.84A10.844,10.844,0,0,1,0,10.844Z" transform="translate(295.885 398.628)" fill="#f5aa28"/>
    <path id="Path_3183" data-name="Path 3183" d="M100.075,0a1.432,1.432,0,0,0-.719.192L.719,57.14a1.441,1.441,0,1,0,1.442,2.5L100.8,2.692A1.443,1.443,0,0,0,100.075,0Z" transform="translate(206.654 521.922)" fill="#f5aa28"/>
    <path id="Path_3184" data-name="Path 3184" d="M16.266,20.236A10.844,10.844,0,1,0,1.453,16.267,10.842,10.842,0,0,0,16.266,20.236Z" transform="translate(295.886 512.519)" fill="#f5aa28"/>
    <path id="Path_3185" data-name="Path 3185" d="M16.268,20.237A10.844,10.844,0,1,1,20.237,5.424,10.848,10.848,0,0,1,16.268,20.237Z" transform="translate(197.25 569.466)" fill="#f5aa28"/>
    <path id="Path_3186" data-name="Path 3186" d="M0,0" transform="translate(208.096 580.312)" fill="#f5aa28"/>
    <path id="Path_3187" data-name="Path 3187" d="M0,0" transform="translate(306.729 409.473)" fill="#f5aa28"/>
    <path id="Path_3188" data-name="Path 3188" d="M0,0" transform="translate(701.229 523.364)" fill="#f5aa28"/>
    <path id="Path_3189" data-name="Path 3189" d="M0,0" transform="translate(701.229 523.364)" fill="#f5aa28"/>
    <path id="Path_3190" data-name="Path 3190" d="M0,0" transform="translate(503.979 751.152)" fill="#f5aa28"/>
    <path id="Path_3191" data-name="Path 3191" d="M1.444,0A1.443,1.443,0,0,0,.721,2.692L99.358,59.636a1.441,1.441,0,1,0,1.442-2.5L2.163.192A1.442,1.442,0,0,0,1.444,0Z" transform="translate(403.903 692.762)" fill="#f5aa28"/>
    <path id="Path_3192" data-name="Path 3192" d="M5.423,20.237A10.844,10.844,0,1,0,1.455,5.424,10.847,10.847,0,0,0,5.423,20.237Z" transform="translate(493.134 740.306)" fill="#f5aa28"/>
    <path id="Path_3193" data-name="Path 3193" d="M5.425,20.236a10.843,10.843,0,1,1,14.809-3.969A10.845,10.845,0,0,1,5.425,20.236Z" transform="translate(394.499 683.359)" fill="#f5aa28"/>
    <path id="Path_3194" data-name="Path 3194" d="M1.446,0A1.443,1.443,0,0,0,0,1.442l0,113.9a1.442,1.442,0,1,0,2.884,0l0-113.9A1.443,1.443,0,0,0,1.446,0Z" transform="translate(403.901 578.866)" fill="#f5aa28"/>
    <path id="Path_3195" data-name="Path 3195" d="M0,10.844A10.842,10.842,0,1,0,10.84,0,10.841,10.841,0,0,0,0,10.844Z" transform="translate(394.502 683.36)" fill="#f5aa28"/>
    <path id="Path_3196" data-name="Path 3196" d="M0,10.844a10.844,10.844,0,1,1,10.844,10.84A10.846,10.846,0,0,1,0,10.844Z" transform="translate(394.502 569.468)" fill="#f5aa28"/>
    <path id="Path_3197" data-name="Path 3197" d="M100.058,0a1.431,1.431,0,0,0-.719.192L.721,57.14a1.441,1.441,0,1,0,1.442,2.5L100.78,2.692A1.443,1.443,0,0,0,100.058,0Z" transform="translate(403.922 521.922)" fill="#f5aa28"/>
    <path id="Path_3198" data-name="Path 3198" d="M5.424,1.456A10.844,10.844,0,1,0,20.237,5.424,10.841,10.841,0,0,0,5.424,1.456Z" transform="translate(394.52 569.466)" fill="#f5aa28"/>
    <path id="Path_3199" data-name="Path 3199" d="M5.424,1.456A10.844,10.844,0,1,1,1.455,16.268,10.842,10.842,0,0,1,5.424,1.456Z" transform="translate(493.133 512.518)" fill="#f5aa28"/>
    <path id="Path_3200" data-name="Path 3200" d="M0,0" transform="translate(503.979 523.364)" fill="#f5aa28"/>
    <path id="Path_3201" data-name="Path 3201" d="M1.442,0A1.443,1.443,0,0,0,0,1.442v113.9a1.442,1.442,0,1,0,2.884,0V1.442A1.443,1.443,0,0,0,1.442,0Z" transform="translate(403.924 578.866)" fill="#f5aa28"/>
    <path id="Path_3202" data-name="Path 3202" d="M0,10.844A10.844,10.844,0,1,0,10.844,0,10.846,10.846,0,0,0,0,10.844Z" transform="translate(394.522 683.36)" fill="#f5aa28"/>
    <path id="Path_3203" data-name="Path 3203" d="M0,10.844a10.844,10.844,0,1,1,10.844,10.84A10.846,10.846,0,0,1,0,10.844Z" transform="translate(394.522 569.468)" fill="#f5aa28"/>
    <path id="Path_3204" data-name="Path 3204" d="M100.073,0a1.442,1.442,0,0,0-.719.192L.721,57.14a1.441,1.441,0,0,0,1.442,2.5L100.8,2.692A1.443,1.443,0,0,0,100.073,0Z" transform="translate(305.289 692.762)" fill="#f5aa28"/>
    <path id="Path_3205" data-name="Path 3205" d="M16.268,20.236A10.844,10.844,0,1,0,1.455,16.267,10.844,10.844,0,0,0,16.268,20.236Z" transform="translate(394.52 683.359)" fill="#f5aa28"/>
    <path id="Path_3206" data-name="Path 3206" d="M16.266,20.237A10.844,10.844,0,1,1,20.234,5.424,10.849,10.849,0,0,1,16.266,20.237Z" transform="translate(295.886 740.306)" fill="#f5aa28"/>
    <path id="Path_3207" data-name="Path 3207" d="M1.442,0A1.443,1.443,0,0,0,.719,2.692L99.356,59.636a1.441,1.441,0,0,0,1.442-2.5L2.161.192A1.432,1.432,0,0,0,1.442,0Z" transform="translate(206.654 692.762)" fill="#f5aa28"/>
    <path id="Path_3208" data-name="Path 3208" d="M5.421,20.237A10.844,10.844,0,1,0,1.453,5.424,10.847,10.847,0,0,0,5.421,20.237Z" transform="translate(295.886 740.306)" fill="#f5aa28"/>
    <path id="Path_3209" data-name="Path 3209" d="M5.424,20.236a10.844,10.844,0,1,1,14.813-3.969A10.841,10.841,0,0,1,5.424,20.236Z" transform="translate(197.25 683.359)" fill="#f5aa28"/>
    <path id="Path_3210" data-name="Path 3210" d="M1.442,0A1.443,1.443,0,0,0,0,1.442v113.9a1.442,1.442,0,1,0,2.884,0V1.442A1.443,1.443,0,0,0,1.442,0Z" transform="translate(206.654 578.866)" fill="#f5aa28"/>
    <path id="Path_3211" data-name="Path 3211" d="M0,10.844A10.842,10.842,0,1,0,10.844,0,10.844,10.844,0,0,0,0,10.844Z" transform="translate(197.252 683.36)" fill="#f5aa28"/>
    <path id="Path_3212" data-name="Path 3212" d="M0,10.844a10.844,10.844,0,1,1,10.844,10.84A10.846,10.846,0,0,1,0,10.844Z" transform="translate(197.252 569.468)" fill="#f5aa28"/>
    <path id="Path_3213" data-name="Path 3213" d="M100.054,0a1.432,1.432,0,0,0-.719.192L.721,57.14a1.441,1.441,0,1,0,1.442,2.5L100.777,2.692A1.443,1.443,0,0,0,100.054,0Z" transform="translate(206.676 521.922)" fill="#f5aa28"/>
    <path id="Path_3214" data-name="Path 3214" d="M5.421,1.456A10.844,10.844,0,1,0,20.234,5.424,10.847,10.847,0,0,0,5.421,1.456Z" transform="translate(197.272 569.466)" fill="#f5aa28"/>
    <path id="Path_3215" data-name="Path 3215" d="M5.421,1.456A10.844,10.844,0,1,1,1.453,16.268,10.841,10.841,0,0,1,5.421,1.456Z" transform="translate(295.886 512.518)" fill="#f5aa28"/>
    <path id="Path_3216" data-name="Path 3216" d="M1.444,0A1.443,1.443,0,0,0,.721,2.692L99.354,59.636a1.441,1.441,0,0,0,1.442-2.5L2.163.192A1.442,1.442,0,0,0,1.444,0Z" transform="translate(305.289 521.922)" fill="#f5aa28"/>
    <path id="Path_3217" data-name="Path 3217" d="M16.266,1.455a10.844,10.844,0,1,0,3.969,14.813A10.846,10.846,0,0,0,16.266,1.455Z" transform="translate(295.886 512.519)" fill="#f5aa28"/>
    <path id="Path_3218" data-name="Path 3218" d="M16.268,1.456A10.844,10.844,0,1,1,1.455,5.424,10.844,10.844,0,0,1,16.268,1.456Z" transform="translate(394.52 569.466)" fill="#f5aa28"/>
    <path id="Path_3219" data-name="Path 3219" d="M1.442,0A1.443,1.443,0,0,0,0,1.442v113.9a1.442,1.442,0,1,0,2.884,0V1.442A1.443,1.443,0,0,0,1.442,0Z" transform="translate(206.674 578.866)" fill="#f5aa28"/>
    <path id="Path_3220" data-name="Path 3220" d="M0,10.844A10.844,10.844,0,1,0,10.844,0,10.846,10.846,0,0,0,0,10.844Z" transform="translate(197.271 683.36)" fill="#f5aa28"/>
    <path id="Path_3221" data-name="Path 3221" d="M0,10.844a10.844,10.844,0,1,1,10.844,10.84A10.846,10.846,0,0,1,0,10.844Z" transform="translate(197.271 569.468)" fill="#f5aa28"/>
    <path id="Path_3222" data-name="Path 3222" d="M0,0" transform="translate(208.116 694.204)" fill="#f5aa28"/>
    <path id="Path_3223" data-name="Path 3223" d="M0,0" transform="translate(208.116 580.312)" fill="#f5aa28"/>
    <path id="Path_3224" data-name="Path 3224" d="M0,0" transform="translate(503.96 865.043)" fill="#f5aa28"/>
    <path id="Path_3225" data-name="Path 3225" d="M1.446,0A1.443,1.443,0,0,0,0,1.442L0,115.334a1.442,1.442,0,0,0,2.884,0l0-113.892A1.443,1.443,0,0,0,1.446,0Z" transform="translate(502.514 749.71)" fill="#f5aa28"/>
    <path id="Path_3226" data-name="Path 3226" d="M0,10.844A10.842,10.842,0,1,0,10.844,0,10.843,10.843,0,0,0,0,10.844Z" transform="translate(493.116 854.199)" fill="#f5aa28"/>
    <path id="Path_3227" data-name="Path 3227" d="M0,10.844A10.844,10.844,0,1,1,10.844,21.689,10.846,10.846,0,0,1,0,10.844Z" transform="translate(493.116 740.307)" fill="#f5aa28"/>
    <path id="Path_3228" data-name="Path 3228" d="M0,0" transform="translate(503.979 751.152)" fill="#f5aa28"/>
    <path id="Path_3229" data-name="Path 3229" d="M1.442,0A1.443,1.443,0,0,0,0,1.442V115.334a1.442,1.442,0,0,0,2.884,0V1.442A1.443,1.443,0,0,0,1.442,0Z" transform="translate(502.537 749.71)" fill="#f5aa28"/>
    <path id="Path_3230" data-name="Path 3230" d="M0,10.844A10.844,10.844,0,1,0,10.844,0,10.846,10.846,0,0,0,0,10.844Z" transform="translate(493.135 854.199)" fill="#f5aa28"/>
    <ellipse id="Ellipse_43" data-name="Ellipse 43" cx="10.843" cy="10.843" rx="10.843" ry="10.843" transform="translate(493.136 740.307)" fill="#f5aa28"/>
    <path id="Path_3231" data-name="Path 3231" d="M100.077,0a1.43,1.43,0,0,0-.719.192L.721,57.14a1.443,1.443,0,0,0,1.442,2.5L100.8,2.692A1.442,1.442,0,0,0,100.077,0Z" transform="translate(403.903 863.601)" fill="#f5aa28"/>
    <path id="Path_3232" data-name="Path 3232" d="M16.267,20.236A10.844,10.844,0,1,0,1.455,16.267,10.844,10.844,0,0,0,16.267,20.236Z" transform="translate(493.134 854.198)" fill="#f5aa28"/>
    <path id="Path_3233" data-name="Path 3233" d="M16.266,20.237A10.843,10.843,0,1,1,20.234,5.424,10.849,10.849,0,0,1,16.266,20.237Z" transform="translate(394.499 911.145)" fill="#f5aa28"/>
    <path id="Path_3234" data-name="Path 3234" d="M1.442,0A1.443,1.443,0,0,0,.719,2.692L99.356,59.64a1.443,1.443,0,0,0,1.442-2.5L2.161.192A1.43,1.43,0,0,0,1.442,0Z" transform="translate(305.268 863.601)" fill="#f5aa28"/>
    <path id="Path_3235" data-name="Path 3235" d="M5.425,20.237A10.843,10.843,0,1,0,1.453,5.424,10.844,10.844,0,0,0,5.425,20.237Z" transform="translate(394.499 911.145)" fill="#f5aa28"/>
    <path id="Path_3236" data-name="Path 3236" d="M5.424,20.236a10.844,10.844,0,1,1,14.813-3.969A10.841,10.841,0,0,1,5.424,20.236Z" transform="translate(295.864 854.198)" fill="#f5aa28"/>
    <path id="Path_3237" data-name="Path 3237" d="M1.442,0A1.443,1.443,0,0,0,0,1.442V115.334a1.442,1.442,0,0,0,2.884,0V1.442A1.443,1.443,0,0,0,1.442,0Z" transform="translate(305.268 749.71)" fill="#f5aa28"/>
    <path id="Path_3238" data-name="Path 3238" d="M0,10.844A10.844,10.844,0,1,0,10.844,0,10.846,10.846,0,0,0,0,10.844Z" transform="translate(295.866 854.199)" fill="#f5aa28"/>
    <path id="Path_3239" data-name="Path 3239" d="M0,10.844A10.844,10.844,0,1,1,10.844,21.689,10.846,10.846,0,0,1,0,10.844Z" transform="translate(295.866 740.307)" fill="#f5aa28"/>
    <path id="Path_3240" data-name="Path 3240" d="M100.054,0a1.432,1.432,0,0,0-.719.192L.721,57.14a1.441,1.441,0,0,0,1.442,2.5L100.777,2.692A1.443,1.443,0,0,0,100.054,0Z" transform="translate(305.289 692.762)" fill="#f5aa28"/>
    <path id="Path_3241" data-name="Path 3241" d="M5.421,1.456A10.844,10.844,0,1,0,20.234,5.424,10.848,10.848,0,0,0,5.421,1.456Z" transform="translate(295.886 740.306)" fill="#f5aa28"/>
    <path id="Path_3242" data-name="Path 3242" d="M5.42,1.456A10.844,10.844,0,1,1,1.456,16.268,10.841,10.841,0,0,1,5.42,1.456Z" transform="translate(394.5 683.358)" fill="#f5aa28"/>
    <path id="Path_3243" data-name="Path 3243" d="M1.444,0A1.443,1.443,0,0,0,.721,2.692L99.358,59.636a1.441,1.441,0,1,0,1.442-2.5L2.163.192A1.442,1.442,0,0,0,1.444,0Z" transform="translate(403.903 692.762)" fill="#f5aa28"/>
    <path id="Path_3244" data-name="Path 3244" d="M16.266,1.455a10.843,10.843,0,1,0,3.969,14.813A10.846,10.846,0,0,0,16.266,1.455Z" transform="translate(394.499 683.359)" fill="#f5aa28"/>
    <path id="Path_3245" data-name="Path 3245" d="M16.267,1.456A10.844,10.844,0,1,1,1.455,5.424,10.844,10.844,0,0,1,16.267,1.456Z" transform="translate(493.134 740.306)" fill="#f5aa28"/>
    <path id="Path_3246" data-name="Path 3246" d="M1.442,0A1.443,1.443,0,0,0,0,1.442V115.334a1.442,1.442,0,0,0,2.884,0V1.442A1.443,1.443,0,0,0,1.442,0Z" transform="translate(305.287 749.71)" fill="#f5aa28"/>
    <path id="Path_3247" data-name="Path 3247" d="M0,10.844A10.844,10.844,0,1,0,10.844,0,10.846,10.846,0,0,0,0,10.844Z" transform="translate(295.885 854.199)" fill="#f5aa28"/>
    <ellipse id="Ellipse_44" data-name="Ellipse 44" cx="10.843" cy="10.843" rx="10.843" ry="10.843" transform="translate(295.887 740.307)" fill="#f5aa28"/>
    <path id="Path_3248" data-name="Path 3248" d="M100.075,0a1.43,1.43,0,0,0-.719.192L.719,57.14a1.443,1.443,0,0,0,1.442,2.5L100.8,2.692A1.443,1.443,0,0,0,100.075,0Z" transform="translate(206.654 863.601)" fill="#f5aa28"/>
    <path id="Path_3249" data-name="Path 3249" d="M16.266,20.236A10.844,10.844,0,1,0,1.453,16.267,10.841,10.841,0,0,0,16.266,20.236Z" transform="translate(295.886 854.198)" fill="#f5aa28"/>
    <path id="Path_3250" data-name="Path 3250" d="M16.268,20.237A10.844,10.844,0,1,1,20.237,5.424,10.847,10.847,0,0,1,16.268,20.237Z" transform="translate(197.25 911.145)" fill="#f5aa28"/>
    <path id="Path_3251" data-name="Path 3251" d="M0,0" transform="translate(208.096 921.991)" fill="#f5aa28"/>
    <path id="Path_3252" data-name="Path 3252" d="M0,0" transform="translate(208.096 694.204)" fill="#f5aa28"/>
    <path id="Path_3253" data-name="Path 3253" d="M1.442,0A1.443,1.443,0,0,0,.719,2.692L99.356,59.636a1.441,1.441,0,0,0,1.442-2.5L2.161.192A1.432,1.432,0,0,0,1.442,0Z" transform="translate(206.654 692.762)" fill="#f5aa28"/>
    <path id="Path_3254" data-name="Path 3254" d="M16.268,1.455a10.844,10.844,0,1,0,3.969,14.813A10.844,10.844,0,0,0,16.268,1.455Z" transform="translate(197.25 683.359)" fill="#f5aa28"/>
    <path id="Path_3255" data-name="Path 3255" d="M16.266,1.456A10.844,10.844,0,1,1,1.453,5.424,10.841,10.841,0,0,1,16.266,1.456Z" transform="translate(295.886 740.306)" fill="#f5aa28"/>
    <path id="Path_3256" data-name="Path 3256" d="M0,0" transform="translate(503.979 1092.831)" fill="#f5aa28"/>
    <path id="Path_3257" data-name="Path 3257" d="M1.444,0A1.443,1.443,0,0,0,.721,2.692L99.358,59.636a1.441,1.441,0,1,0,1.442-2.5L2.163.192A1.442,1.442,0,0,0,1.444,0Z" transform="translate(403.903 1034.441)" fill="#f5aa28"/>
    <path id="Path_3258" data-name="Path 3258" d="M5.423,20.237A10.844,10.844,0,1,0,1.455,5.424,10.847,10.847,0,0,0,5.423,20.237Z" transform="translate(493.134 1081.984)" fill="#f5aa28"/>
    <path id="Path_3259" data-name="Path 3259" d="M5.425,20.234a10.843,10.843,0,1,1,14.809-3.969A10.845,10.845,0,0,1,5.425,20.234Z" transform="translate(394.499 1025.039)" fill="#f5aa28"/>
    <path id="Path_3260" data-name="Path 3260" d="M1.446,0A1.443,1.443,0,0,0,0,1.442L0,115.334a1.442,1.442,0,0,0,2.884,0l0-113.892A1.443,1.443,0,0,0,1.446,0Z" transform="translate(403.901 920.549)" fill="#f5aa28"/>
    <path id="Path_3261" data-name="Path 3261" d="M0,10.844A10.842,10.842,0,1,0,10.84,0,10.841,10.841,0,0,0,0,10.844Z" transform="translate(394.502 1025.038)" fill="#f5aa28"/>
    <path id="Path_3262" data-name="Path 3262" d="M0,10.844A10.844,10.844,0,1,1,10.844,21.689,10.846,10.846,0,0,1,0,10.844Z" transform="translate(394.502 911.147)" fill="#f5aa28"/>
    <path id="Path_3263" data-name="Path 3263" d="M100.058,0a1.43,1.43,0,0,0-.719.192L.721,57.14a1.443,1.443,0,0,0,1.442,2.5L100.78,2.692A1.443,1.443,0,0,0,100.058,0Z" transform="translate(403.922 863.601)" fill="#f5aa28"/>
    <path id="Path_3264" data-name="Path 3264" d="M5.424,1.455A10.844,10.844,0,1,0,20.237,5.424,10.843,10.843,0,0,0,5.424,1.455Z" transform="translate(394.52 911.145)" fill="#f5aa28"/>
    <path id="Path_3265" data-name="Path 3265" d="M5.424,1.455A10.844,10.844,0,1,1,1.455,16.267,10.846,10.846,0,0,1,5.424,1.455Z" transform="translate(493.133 854.198)" fill="#f5aa28"/>
    <path id="Path_3266" data-name="Path 3266" d="M0,0" transform="translate(503.979 865.043)" fill="#f5aa28"/>
    <path id="Path_3267" data-name="Path 3267" d="M1.442,0A1.443,1.443,0,0,0,0,1.442V115.334a1.442,1.442,0,0,0,2.884,0V1.442A1.443,1.443,0,0,0,1.442,0Z" transform="translate(403.924 920.549)" fill="#f5aa28"/>
    <path id="Path_3268" data-name="Path 3268" d="M0,10.844A10.844,10.844,0,1,0,10.844,0,10.846,10.846,0,0,0,0,10.844Z" transform="translate(394.522 1025.038)" fill="#f5aa28"/>
    <path id="Path_3269" data-name="Path 3269" d="M0,10.844A10.844,10.844,0,1,1,10.844,21.689,10.846,10.846,0,0,1,0,10.844Z" transform="translate(394.522 911.147)" fill="#f5aa28"/>
    <path id="Path_3270" data-name="Path 3270" d="M100.073,0a1.442,1.442,0,0,0-.719.192L.721,57.14a1.441,1.441,0,0,0,1.442,2.5L100.8,2.692A1.443,1.443,0,0,0,100.073,0Z" transform="translate(305.289 1034.441)" fill="#f5aa28"/>
    <path id="Path_3271" data-name="Path 3271" d="M16.268,20.234A10.844,10.844,0,1,0,1.455,16.266,10.844,10.844,0,0,0,16.268,20.234Z" transform="translate(394.52 1025.039)" fill="#f5aa28"/>
    <path id="Path_3272" data-name="Path 3272" d="M16.266,20.237A10.844,10.844,0,1,1,20.234,5.424,10.849,10.849,0,0,1,16.266,20.237Z" transform="translate(295.886 1081.984)" fill="#f5aa28"/>
    <path id="Path_3273" data-name="Path 3273" d="M1.442,0A1.443,1.443,0,0,0,.719,2.692L99.356,59.636a1.441,1.441,0,1,0,1.442-2.5L2.161.192A1.432,1.432,0,0,0,1.442,0Z" transform="translate(206.654 1034.441)" fill="#f5aa28"/>
    <path id="Path_3274" data-name="Path 3274" d="M5.421,20.237A10.844,10.844,0,1,0,1.453,5.424,10.847,10.847,0,0,0,5.421,20.237Z" transform="translate(295.886 1081.984)" fill="#f5aa28"/>
    <path id="Path_3275" data-name="Path 3275" d="M5.424,20.234a10.844,10.844,0,1,1,14.813-3.969A10.841,10.841,0,0,1,5.424,20.234Z" transform="translate(197.25 1025.039)" fill="#f5aa28"/>
    <path id="Path_3276" data-name="Path 3276" d="M1.442,0A1.443,1.443,0,0,0,0,1.442V115.334a1.442,1.442,0,0,0,2.884,0V1.442A1.443,1.443,0,0,0,1.442,0Z" transform="translate(206.654 920.549)" fill="#f5aa28"/>
    <path id="Path_3277" data-name="Path 3277" d="M0,10.844A10.842,10.842,0,1,0,10.844,0,10.844,10.844,0,0,0,0,10.844Z" transform="translate(197.252 1025.038)" fill="#f5aa28"/>
    <path id="Path_3278" data-name="Path 3278" d="M0,10.844A10.844,10.844,0,1,1,10.844,21.689,10.846,10.846,0,0,1,0,10.844Z" transform="translate(197.252 911.147)" fill="#f5aa28"/>
    <path id="Path_3279" data-name="Path 3279" d="M100.054,0a1.43,1.43,0,0,0-.719.192L.721,57.14a1.443,1.443,0,0,0,1.442,2.5L100.777,2.692A1.443,1.443,0,0,0,100.054,0Z" transform="translate(206.676 863.601)" fill="#f5aa28"/>
    <path id="Path_3280" data-name="Path 3280" d="M5.421,1.455A10.844,10.844,0,1,0,20.234,5.424,10.849,10.849,0,0,0,5.421,1.455Z" transform="translate(197.272 911.145)" fill="#f5aa28"/>
    <path id="Path_3281" data-name="Path 3281" d="M5.421,1.455A10.844,10.844,0,1,1,1.453,16.267,10.845,10.845,0,0,1,5.421,1.455Z" transform="translate(295.886 854.198)" fill="#f5aa28"/>
    <path id="Path_3282" data-name="Path 3282" d="M1.444,0A1.443,1.443,0,0,0,.721,2.692L99.354,59.64a1.443,1.443,0,0,0,1.442-2.5L2.163.192A1.441,1.441,0,0,0,1.444,0Z" transform="translate(305.289 863.601)" fill="#f5aa28"/>
    <path id="Path_3283" data-name="Path 3283" d="M16.266,1.455a10.844,10.844,0,1,0,3.969,14.813A10.846,10.846,0,0,0,16.266,1.455Z" transform="translate(295.886 854.198)" fill="#f5aa28"/>
    <path id="Path_3284" data-name="Path 3284" d="M16.268,1.455A10.844,10.844,0,1,1,1.455,5.424,10.844,10.844,0,0,1,16.268,1.455Z" transform="translate(394.52 911.145)" fill="#f5aa28"/>
    <path id="Path_3285" data-name="Path 3285" d="M1.442,0A1.443,1.443,0,0,0,0,1.442V115.334a1.442,1.442,0,0,0,2.884,0V1.442A1.443,1.443,0,0,0,1.442,0Z" transform="translate(206.674 920.549)" fill="#f5aa28"/>
    <path id="Path_3286" data-name="Path 3286" d="M0,10.844A10.844,10.844,0,1,0,10.844,0,10.846,10.846,0,0,0,0,10.844Z" transform="translate(197.271 1025.038)" fill="#f5aa28"/>
    <path id="Path_3287" data-name="Path 3287" d="M0,10.844A10.844,10.844,0,1,1,10.844,21.689,10.846,10.846,0,0,1,0,10.844Z" transform="translate(197.271 911.147)" fill="#f5aa28"/>
    <path id="Path_3288" data-name="Path 3288" d="M100.077,0a1.431,1.431,0,0,0-.719.192L.721,57.14a1.441,1.441,0,1,0,1.442,2.5L100.8,2.692A1.443,1.443,0,0,0,100.077,0Z" transform="translate(108.039 1034.441)" fill="#f5aa28"/>
    <path id="Path_3289" data-name="Path 3289" d="M16.266,20.234A10.844,10.844,0,1,0,1.453,16.266,10.841,10.841,0,0,0,16.266,20.234Z" transform="translate(197.272 1025.039)" fill="#f5aa28"/>
    <path id="Path_3290" data-name="Path 3290" d="M16.266,20.237A10.843,10.843,0,1,1,20.234,5.424,10.849,10.849,0,0,1,16.266,20.237Z" transform="translate(98.636 1081.984)" fill="#f5aa28"/>
    <path id="Path_3291" data-name="Path 3291" d="M0,0" transform="translate(109.479 1092.831)" fill="#f5aa28"/>
    <path id="Path_3292" data-name="Path 3292" d="M0,0" transform="translate(208.116 921.991)" fill="#f5aa28"/>
    <path id="Path_3293" data-name="Path 3293" d="M0,0" transform="translate(503.96 1206.722)" fill="#f5aa28"/>
    <path id="Path_3294" data-name="Path 3294" d="M1.446,0A1.443,1.443,0,0,0,0,1.442L0,115.334a1.442,1.442,0,1,0,2.884,0l0-113.892A1.443,1.443,0,0,0,1.446,0Z" transform="translate(502.514 1091.389)" fill="#f5aa28"/>
    <path id="Path_3295" data-name="Path 3295" d="M0,10.844A10.842,10.842,0,1,0,10.844,0,10.843,10.843,0,0,0,0,10.844Z" transform="translate(493.116 1195.878)" fill="#f5aa28"/>
    <path id="Path_3296" data-name="Path 3296" d="M0,10.844A10.844,10.844,0,1,1,10.844,21.689,10.846,10.846,0,0,1,0,10.844Z" transform="translate(493.116 1081.986)" fill="#f5aa28"/>
    <path id="Path_3297" data-name="Path 3297" d="M0,0" transform="translate(503.979 1092.831)" fill="#f5aa28"/>
    <path id="Path_3298" data-name="Path 3298" d="M1.442,0A1.443,1.443,0,0,0,0,1.442V115.334a1.442,1.442,0,1,0,2.884,0V1.442A1.443,1.443,0,0,0,1.442,0Z" transform="translate(502.537 1091.389)" fill="#f5aa28"/>
    <path id="Path_3299" data-name="Path 3299" d="M0,10.844A10.844,10.844,0,1,0,10.844,0,10.846,10.846,0,0,0,0,10.844Z" transform="translate(493.135 1195.878)" fill="#f5aa28"/>
    <ellipse id="Ellipse_45" data-name="Ellipse 45" cx="10.843" cy="10.843" rx="10.843" ry="10.843" transform="translate(493.136 1081.987)" fill="#f5aa28"/>
    <path id="Path_3300" data-name="Path 3300" d="M100.077,0a1.431,1.431,0,0,0-.719.192L.721,57.14a1.443,1.443,0,0,0,1.442,2.5L100.8,2.692A1.442,1.442,0,0,0,100.077,0Z" transform="translate(403.903 1205.28)" fill="#f5aa28"/>
    <path id="Path_3301" data-name="Path 3301" d="M16.267,20.234A10.844,10.844,0,1,0,1.455,16.266,10.844,10.844,0,0,0,16.267,20.234Z" transform="translate(493.134 1195.879)" fill="#f5aa28"/>
    <path id="Path_3302" data-name="Path 3302" d="M16.266,20.236A10.843,10.843,0,1,1,20.234,5.423,10.846,10.846,0,0,1,16.266,20.236Z" transform="translate(394.499 1252.825)" fill="#f5aa28"/>
    <path id="Path_3303" data-name="Path 3303" d="M1.442,0A1.443,1.443,0,0,0,.719,2.692L99.356,59.64a1.443,1.443,0,0,0,1.442-2.5L2.161.192A1.431,1.431,0,0,0,1.442,0Z" transform="translate(305.268 1205.28)" fill="#f5aa28"/>
    <path id="Path_3304" data-name="Path 3304" d="M5.425,20.236A10.843,10.843,0,1,0,1.453,5.423,10.84,10.84,0,0,0,5.425,20.236Z" transform="translate(394.499 1252.825)" fill="#f5aa28"/>
    <path id="Path_3305" data-name="Path 3305" d="M5.424,20.234a10.844,10.844,0,1,1,14.813-3.969A10.841,10.841,0,0,1,5.424,20.234Z" transform="translate(295.864 1195.879)" fill="#f5aa28"/>
    <path id="Path_3306" data-name="Path 3306" d="M1.442,0A1.443,1.443,0,0,0,0,1.442V115.334a1.442,1.442,0,1,0,2.884,0V1.442A1.443,1.443,0,0,0,1.442,0Z" transform="translate(305.268 1091.389)" fill="#f5aa28"/>
    <path id="Path_3307" data-name="Path 3307" d="M0,10.844A10.844,10.844,0,1,0,10.844,0,10.846,10.846,0,0,0,0,10.844Z" transform="translate(295.866 1195.878)" fill="#f5aa28"/>
    <path id="Path_3308" data-name="Path 3308" d="M0,10.844A10.844,10.844,0,1,1,10.844,21.689,10.846,10.846,0,0,1,0,10.844Z" transform="translate(295.866 1081.986)" fill="#f5aa28"/>
    <path id="Path_3309" data-name="Path 3309" d="M100.054,0a1.432,1.432,0,0,0-.719.192L.721,57.14a1.441,1.441,0,0,0,1.442,2.5L100.777,2.692A1.443,1.443,0,0,0,100.054,0Z" transform="translate(305.289 1034.441)" fill="#f5aa28"/>
    <path id="Path_3310" data-name="Path 3310" d="M5.421,1.456A10.844,10.844,0,1,0,20.234,5.424,10.849,10.849,0,0,0,5.421,1.456Z" transform="translate(295.886 1081.984)" fill="#f5aa28"/>
    <path id="Path_3311" data-name="Path 3311" d="M5.42,1.453A10.844,10.844,0,1,1,1.456,16.266,10.848,10.848,0,0,1,5.42,1.453Z" transform="translate(394.5 1025.039)" fill="#f5aa28"/>
    <path id="Path_3312" data-name="Path 3312" d="M1.444,0A1.443,1.443,0,0,0,.721,2.692L99.358,59.636a1.441,1.441,0,1,0,1.442-2.5L2.163.192A1.442,1.442,0,0,0,1.444,0Z" transform="translate(403.903 1034.441)" fill="#f5aa28"/>
    <path id="Path_3313" data-name="Path 3313" d="M16.266,1.453a10.843,10.843,0,1,0,3.969,14.813A10.849,10.849,0,0,0,16.266,1.453Z" transform="translate(394.499 1025.039)" fill="#f5aa28"/>
    <path id="Path_3314" data-name="Path 3314" d="M16.267,1.456A10.844,10.844,0,1,1,1.455,5.424,10.844,10.844,0,0,1,16.267,1.456Z" transform="translate(493.134 1081.984)" fill="#f5aa28"/>
    <path id="Path_3315" data-name="Path 3315" d="M1.442,0A1.443,1.443,0,0,0,0,1.442V115.334a1.442,1.442,0,1,0,2.884,0V1.442A1.443,1.443,0,0,0,1.442,0Z" transform="translate(305.287 1091.389)" fill="#f5aa28"/>
    <path id="Path_3316" data-name="Path 3316" d="M0,10.844A10.844,10.844,0,1,0,10.844,0,10.846,10.846,0,0,0,0,10.844Z" transform="translate(295.885 1195.878)" fill="#f5aa28"/>
    <ellipse id="Ellipse_46" data-name="Ellipse 46" cx="10.843" cy="10.843" rx="10.843" ry="10.843" transform="translate(295.887 1081.987)" fill="#f5aa28"/>
    <path id="Path_3317" data-name="Path 3317" d="M100.075,0a1.431,1.431,0,0,0-.719.192L.719,57.14a1.443,1.443,0,0,0,1.442,2.5L100.8,2.692A1.443,1.443,0,0,0,100.075,0Z" transform="translate(206.654 1205.28)" fill="#f5aa28"/>
    <path id="Path_3318" data-name="Path 3318" d="M16.266,20.234A10.844,10.844,0,1,0,1.453,16.266,10.841,10.841,0,0,0,16.266,20.234Z" transform="translate(295.886 1195.879)" fill="#f5aa28"/>
    <path id="Path_3319" data-name="Path 3319" d="M16.268,20.236A10.844,10.844,0,1,1,20.237,5.423,10.844,10.844,0,0,1,16.268,20.236Z" transform="translate(197.25 1252.825)" fill="#f5aa28"/>
    <path id="Path_3320" data-name="Path 3320" d="M1.442,0A1.443,1.443,0,0,0,.719,2.692L99.356,59.64a1.443,1.443,0,1,0,1.442-2.5L2.161.192A1.431,1.431,0,0,0,1.442,0Z" transform="translate(108.018 1205.28)" fill="#f5aa28"/>
    <path id="Path_3321" data-name="Path 3321" d="M5.424,20.236A10.844,10.844,0,1,0,1.456,5.423,10.846,10.846,0,0,0,5.424,20.236Z" transform="translate(197.25 1252.825)" fill="#f5aa28"/>
    <path id="Path_3322" data-name="Path 3322" d="M5.423,20.234a10.844,10.844,0,1,1,14.813-3.969A10.844,10.844,0,0,1,5.423,20.234Z" transform="translate(98.614 1195.879)" fill="#f5aa28"/>
    <path id="Path_3323" data-name="Path 3323" d="M1.442,0A1.443,1.443,0,0,0,0,1.442V115.334a1.442,1.442,0,1,0,2.884,0V1.442A1.443,1.443,0,0,0,1.442,0Z" transform="translate(108.018 1091.389)" fill="#f5aa28"/>
    <path id="Path_3324" data-name="Path 3324" d="M0,10.844A10.844,10.844,0,1,0,10.844,0,10.846,10.846,0,0,0,0,10.844Z" transform="translate(98.616 1195.878)" fill="#f5aa28"/>
    <path id="Path_3325" data-name="Path 3325" d="M0,10.844A10.844,10.844,0,1,1,10.844,21.689,10.849,10.849,0,0,1,0,10.844Z" transform="translate(98.616 1081.986)" fill="#f5aa28"/>
    <path id="Path_3326" data-name="Path 3326" d="M100.054,0a1.442,1.442,0,0,0-.719.192L.721,57.14a1.441,1.441,0,1,0,1.442,2.5L100.777,2.692A1.442,1.442,0,0,0,100.054,0Z" transform="translate(108.039 1034.441)" fill="#f5aa28"/>
    <path id="Path_3327" data-name="Path 3327" d="M5.42,1.456A10.845,10.845,0,1,0,20.233,5.424,10.845,10.845,0,0,0,5.42,1.456Z" transform="translate(98.637 1081.984)" fill="#f5aa28"/>
    <path id="Path_3328" data-name="Path 3328" d="M5.42,1.453A10.845,10.845,0,1,1,1.456,16.266,10.853,10.853,0,0,1,5.42,1.453Z" transform="translate(197.25 1025.039)" fill="#f5aa28"/>
    <path id="Path_3329" data-name="Path 3329" d="M1.442,0A1.443,1.443,0,0,0,.719,2.692L99.356,59.636a1.441,1.441,0,1,0,1.442-2.5L2.161.192A1.432,1.432,0,0,0,1.442,0Z" transform="translate(206.654 1034.441)" fill="#f5aa28"/>
    <path id="Path_3330" data-name="Path 3330" d="M16.268,1.453a10.844,10.844,0,1,0,3.969,14.813A10.847,10.847,0,0,0,16.268,1.453Z" transform="translate(197.25 1025.039)" fill="#f5aa28"/>
    <path id="Path_3331" data-name="Path 3331" d="M16.266,1.456A10.844,10.844,0,1,1,1.453,5.424,10.841,10.841,0,0,1,16.266,1.456Z" transform="translate(295.886 1081.984)" fill="#f5aa28"/>
    <path id="Path_3332" data-name="Path 3332" d="M1.442,0A1.443,1.443,0,0,0,0,1.442V115.334a1.442,1.442,0,1,0,2.884,0V1.442A1.443,1.443,0,0,0,1.442,0Z" transform="translate(108.037 1091.389)" fill="#f5aa28"/>
    <path id="Path_3333" data-name="Path 3333" d="M0,10.844A10.842,10.842,0,1,0,10.84,0,10.843,10.843,0,0,0,0,10.844Z" transform="translate(98.639 1195.878)" fill="#f5aa28"/>
    <ellipse id="Ellipse_47" data-name="Ellipse 47" cx="10.843" cy="10.843" rx="10.843" ry="10.843" transform="translate(98.637 1081.987)" fill="#f5aa28"/>
    <path id="Path_3334" data-name="Path 3334" d="M100.075,0a1.431,1.431,0,0,0-.719.192L.719,57.14a1.443,1.443,0,0,0,1.442,2.5L100.8,2.692A1.443,1.443,0,0,0,100.075,0Z" transform="translate(9.404 1205.28)" fill="#f5aa28"/>
    <path id="Path_3335" data-name="Path 3335" d="M16.266,20.234A10.843,10.843,0,1,0,1.453,16.266,10.845,10.845,0,0,0,16.266,20.234Z" transform="translate(98.636 1195.879)" fill="#f5aa28"/>
    <path id="Path_3336" data-name="Path 3336" d="M16.268,20.236A10.844,10.844,0,1,1,20.237,5.423,10.844,10.844,0,0,1,16.268,20.236Z" transform="translate(0 1252.825)" fill="#f5aa28"/>
    <path id="Path_3337" data-name="Path 3337" d="M0,0" transform="translate(10.846 1263.67)" fill="#f5aa28"/>
    <path id="Path_3338" data-name="Path 3338" d="M0,0" transform="translate(109.479 1092.831)" fill="#f5aa28"/>
    <path id="Path_3339" data-name="Path 3339" d="M0,0" transform="translate(405.347 1263.67)" fill="#f5aa28"/>
    <path id="Path_3340" data-name="Path 3340" d="M100.058,0a1.431,1.431,0,0,0-.719.192L.721,57.14a1.443,1.443,0,0,0,1.442,2.5L100.78,2.692A1.442,1.442,0,0,0,100.058,0Z" transform="translate(403.922 1205.28)" fill="#f5aa28"/>
    <path id="Path_3341" data-name="Path 3341" d="M5.424,1.456A10.844,10.844,0,1,0,20.237,5.424,10.842,10.842,0,0,0,5.424,1.456Z" transform="translate(394.52 1252.824)" fill="#f5aa28"/>
    <path id="Path_3342" data-name="Path 3342" d="M5.424,1.453A10.844,10.844,0,1,1,1.455,16.266,10.849,10.849,0,0,1,5.424,1.453Z" transform="translate(493.133 1195.879)" fill="#f5aa28"/>
    <path id="Path_3343" data-name="Path 3343" d="M0,0" transform="translate(503.979 1206.722)" fill="#f5aa28"/>
    <path id="Path_3344" data-name="Path 3344" d="M0,0" transform="translate(405.366 1263.67)" fill="#f5aa28"/>
    <path id="Path_3348" data-name="Path 3348" d="M0,10.844A10.844,10.844,0,1,1,10.844,21.689,10.846,10.846,0,0,1,0,10.844Z" transform="translate(197.252 1252.826)" fill="#f5aa28"/>
    <path id="Path_3349" data-name="Path 3349" d="M100.054,0a1.431,1.431,0,0,0-.719.192L.721,57.14a1.443,1.443,0,0,0,1.442,2.5L100.777,2.692A1.443,1.443,0,0,0,100.054,0Z" transform="translate(206.676 1205.28)" fill="#f5aa28"/>
    <path id="Path_3350" data-name="Path 3350" d="M5.421,1.456A10.844,10.844,0,1,0,20.234,5.424,10.849,10.849,0,0,0,5.421,1.456Z" transform="translate(197.272 1252.824)" fill="#f5aa28"/>
    <path id="Path_3351" data-name="Path 3351" d="M5.421,1.453A10.844,10.844,0,1,1,1.453,16.266,10.848,10.848,0,0,1,5.421,1.453Z" transform="translate(295.886 1195.879)" fill="#f5aa28"/>
    <path id="Path_3352" data-name="Path 3352" d="M1.444,0A1.443,1.443,0,0,0,.721,2.692L99.354,59.64a1.443,1.443,0,0,0,1.442-2.5L2.163.192A1.442,1.442,0,0,0,1.444,0Z" transform="translate(305.289 1205.28)" fill="#f5aa28"/>
    <path id="Path_3353" data-name="Path 3353" d="M16.266,1.453a10.844,10.844,0,1,0,3.969,14.813A10.849,10.849,0,0,0,16.266,1.453Z" transform="translate(295.886 1195.879)" fill="#f5aa28"/>
    <path id="Path_3354" data-name="Path 3354" d="M16.268,1.455A10.844,10.844,0,1,1,1.455,5.423,10.844,10.844,0,0,1,16.268,1.455Z" transform="translate(394.52 1252.825)" fill="#f5aa28"/>
    <path id="Path_3357" data-name="Path 3357" d="M0,10.844A10.844,10.844,0,1,1,10.844,21.689,10.846,10.846,0,0,1,0,10.844Z" transform="translate(197.271 1252.826)" fill="#f5aa28"/>
    <path id="Path_3366" data-name="Path 3366" d="M0,10.844A10.844,10.844,0,1,1,10.844,21.689,10.846,10.846,0,0,1,0,10.844Z" transform="translate(0.002 1252.826)" fill="#f5aa28"/>
    <path id="Path_3367" data-name="Path 3367" d="M100.054,0a1.431,1.431,0,0,0-.719.192L.721,57.14a1.443,1.443,0,0,0,1.442,2.5L100.777,2.692A1.443,1.443,0,0,0,100.054,0Z" transform="translate(9.425 1205.28)" fill="#f5aa28"/>
    <path id="Path_3368" data-name="Path 3368" d="M5.422,1.456A10.844,10.844,0,1,0,20.234,5.424,10.849,10.849,0,0,0,5.422,1.456Z" transform="translate(0.022 1252.824)" fill="#f5aa28"/>
    <path id="Path_3369" data-name="Path 3369" d="M5.42,1.453A10.845,10.845,0,1,1,1.456,16.266,10.847,10.847,0,0,1,5.42,1.453Z" transform="translate(98.637 1195.879)" fill="#f5aa28"/>
    <path id="Path_3370" data-name="Path 3370" d="M1.444,0A1.443,1.443,0,0,0,.721,2.692L99.358,59.64a1.443,1.443,0,0,0,1.442-2.5L2.163.192A1.442,1.442,0,0,0,1.444,0Z" transform="translate(108.039 1205.28)" fill="#f5aa28"/>
    <path id="Path_3371" data-name="Path 3371" d="M16.266,1.453a10.843,10.843,0,1,0,3.969,14.813A10.849,10.849,0,0,0,16.266,1.453Z" transform="translate(98.636 1195.879)" fill="#f5aa28"/>
    <path id="Path_3372" data-name="Path 3372" d="M16.266,1.455A10.844,10.844,0,1,1,1.453,5.423,10.841,10.841,0,0,1,16.266,1.455Z" transform="translate(197.272 1252.825)" fill="#f5aa28"/>
    <path id="Path_3375" data-name="Path 3375" d="M0,10.844A10.842,10.842,0,1,1,10.84,21.689,10.843,10.843,0,0,1,0,10.844Z" transform="translate(0.025 1252.826)" fill="#f5aa28"/>
    <path id="Path_3383" data-name="Path 3383" d="M0,0" transform="translate(10.865 1263.67)" fill="#f5aa28"/>
  </g>
</svg>
